<?xml version="1.0" standalone="no"?>
<!DOCTYPE svg PUBLIC "-//W3C//DTD SVG 1.1//EN" "http://www.w3.org/Graphics/SVG/1.1/DTD/svg11.dtd" >
<svg xmlns="http://www.w3.org/2000/svg" xmlns:xlink="http://www.w3.org/1999/xlink" version="1.1">
<metadata>
Created by FontForge 20190801 at Tue Feb 21 18:08:43 2017
 By www-data
(URW)++,Copyright 2016 by (URW)++ Design &#38; Development
</metadata>
<defs>
<font id="URWGeometricExtBold" horiz-adv-x="1274" >
  <font-face 
    font-family="URWGeometricExtBold"
    font-weight="400"
    font-stretch="normal"
    units-per-em="2048"
    panose-1="0 0 0 0 0 0 0 0 0 0"
    ascent="1504"
    descent="-544"
    x-height="908"
    cap-height="1365"
    bbox="-414 -499 2931 2226"
    underline-thickness="205"
    underline-position="-560"
    unicode-range="U+0020-FB04"
  />
<missing-glyph horiz-adv-x="479" 
d="M48 0v1365h383v-1365h-383zM383 48v1269h-287v-1269h287z" />
    <glyph glyph-name="ff" unicode="ff" horiz-adv-x="1288" 
d="M181 703h-122v205h122v74q0 108 13 166.5t46 106.5q76 106 260 106q67 0 149 -15v-188q-53 10 -95 10q-83 0 -111 -36t-28 -142v-82h213v-205h-213v-703h-234v703zM825 703h-122v205h122v94q0 107 13 166.5t46 106.5q77 106 261 106q66 0 148 -15v-188q-54 10 -95 10
q-83 0 -111 -36t-28 -142v-102h213v-205h-213v-703h-234v703z" />
    <glyph glyph-name="fi" unicode="fi" horiz-adv-x="1160" 
d="M181 703h-122v205h122v94q0 108 13 166.5t46 106.5q77 106 261 106q66 0 148 -15v-188q-54 10 -95 10q-83 0 -111 -36t-28 -142v-102h213v-205h-213v-703h-234v703zM786 0v908h234v-908h-234zM903 1335q65 0 104 -37t39 -99q0 -63 -39 -100t-104 -37q-67 0 -105.5 37
t-38.5 102q0 60 39.5 97t104.5 37z" />
    <glyph glyph-name="fl" unicode="fl" horiz-adv-x="1166" 
d="M181 703h-122v205h122v94q0 108 13 166.5t46 106.5q77 106 261 106q66 0 148 -15v-188q-54 10 -95 10q-83 0 -111 -36t-28 -142v-102h213v-205h-213v-703h-234v703zM788 0v1365h234v-1365h-234z" />
    <glyph glyph-name="ffi" unicode="ffi" horiz-adv-x="1804" 
d="M181 703h-122v205h122v74q0 108 13 166.5t46 106.5q76 106 260 106q67 0 149 -15v-188q-53 10 -95 10q-83 0 -111 -36t-28 -142v-82h213v-205h-213v-703h-234v703zM825 703h-122v205h122v94q0 107 13 166.5t46 106.5q77 106 261 106q66 0 148 -15v-188q-54 10 -95 10
q-83 0 -111 -36t-28 -142v-102h213v-205h-213v-703h-234v703zM1430 0v908h234v-908h-234zM1547 1335q65 0 104 -37t39 -99q0 -63 -39 -100t-104 -37q-67 0 -105.5 37t-38.5 102q0 60 39.5 97t104.5 37z" />
    <glyph glyph-name="ffl" unicode="ffl" horiz-adv-x="1809" 
d="M181 703h-122v205h122v74q0 108 13 166.5t46 106.5q76 106 260 106q67 0 149 -15v-188q-53 10 -95 10q-83 0 -111 -36t-28 -142v-82h213v-205h-213v-703h-234v703zM825 703h-122v205h122v94q0 107 13 166.5t46 106.5q77 106 261 106q66 0 148 -15v-188q-54 10 -95 10
q-83 0 -111 -36t-28 -142v-102h213v-205h-213v-703h-234v703zM1432 0v1365h234v-1365h-234z" />
    <glyph glyph-name=".notdef" horiz-adv-x="479" 
d="M48 0v1365h383v-1365h-383zM383 48v1269h-287v-1269h287z" />
    <glyph glyph-name="glyph1" horiz-adv-x="0" 
 />
    <glyph glyph-name="glyph2" horiz-adv-x="479" 
 />
    <glyph glyph-name="space" unicode=" " horiz-adv-x="479" 
 />
    <glyph glyph-name="exclam" unicode="!" horiz-adv-x="705" 
d="M238 374l-23 991h266l-22 -991h-221zM349 255q61 0 103 -41t42 -100t-42 -100t-103 -41q-62 0 -104 41.5t-42 101.5q0 58 42.5 98.5t103.5 40.5z" />
    <glyph glyph-name="quotedbl" unicode="&#x22;" horiz-adv-x="942" 
d="M164 836l-26 600h246l-26 -600h-194zM584 836l-26 600h245l-26 -600h-193z" />
    <glyph glyph-name="numbersign" unicode="#" 
d="M256 554l52 253h-149l37 177h149l83 404l188 -43l-74 -361h317l83 404l189 -41l-75 -363h149l-37 -177h-149l-51 -253h148l-37 -177h-148l-83 -404l-188 43l74 361h-317l-84 -404l-188 43l74 361h-149l37 177h149zM453 554h318l51 253h-317z" />
    <glyph glyph-name="dollar" unicode="$" horiz-adv-x="1256" 
d="M526 -212v201q-195 27 -277 81q-125 84 -171 239l215 109q32 -81 68 -123q44 -52 106 -74.5t161 -22.5q151 0 221 57q59 48 59 130q0 92 -97 139q-50 25 -242 86q-188 59 -288 141q-126 101 -126 262q0 205 189 307q71 39 182 55v195h239v-202q212 -46 329 -222
l-194 -118q-48 77 -114 111.5t-165 34.5q-96 0 -154 -36q-68 -42 -68 -117q0 -81 75 -126q32 -19 60 -29.5t163 -54.5q208 -67 313 -136q146 -96 146 -279q0 -104 -44 -193t-120 -137q-77 -49 -227 -73v-205h-239z" />
    <glyph glyph-name="percent" unicode="%" horiz-adv-x="2092" 
d="M467 1390q208 0 306 -107q87 -96 87 -265q0 -372 -394 -372q-392 0 -392 377q0 165 87 260q98 107 306 107zM468 1239q-201 0 -201 -218q0 -116 49 -170t153 -54q199 0 199 221t-200 221zM506 59l942 1339l139 -92l-942 -1338zM1626 719q208 0 305 -107q88 -96 88 -265
t-87 -265q-97 -107 -307 -107q-393 0 -393 377q0 165 87 260q98 107 307 107zM1625 568q-200 0 -200 -218q0 -115 49 -169.5t153 -54.5q199 0 199 220q0 222 -201 222z" />
    <glyph glyph-name="ampersand" unicode="&#x26;" horiz-adv-x="1618" 
d="M480 762q-100 96 -138.5 164.5t-38.5 149.5q0 140 106 225q111 89 297 89q194 0 311 -82q107 -75 107 -211q0 -98 -68 -179.5t-239 -188.5l368 -347q81 137 99 252h230q-8 -26 -12 -40q-51 -200 -159 -356l256 -238h-317l-102 98q-193 -123 -483 -123q-230 0 -377 81
q-95 51 -145 147q-39 72 -39 153q0 120 76 209.5t268 196.5zM671 863l24 15q116 69 152 99q53 46 53 109q0 59 -50 93t-137 34q-85 0 -135 -36q-51 -36 -51 -91q0 -83 144 -223zM631 621q-94 -54 -123 -75q-116 -84 -116 -179q0 -90 88.5 -140.5t245.5 -50.5q99 0 151 13.5
t140 61.5z" />
    <glyph glyph-name="quotesingle" unicode="'" horiz-adv-x="474" 
d="M140 836l-26 600h246l-26 -600h-194z" />
    <glyph glyph-name="parenleft" unicode="(" horiz-adv-x="862" 
d="M719 -310l-160 -83q-132 181 -197 316q-139 292 -139 642q0 273 76.5 491.5t259.5 466.5l160 -83q-117 -206 -147 -281q-99 -244 -99 -594q0 -349 99 -593q30 -75 147 -282z" />
    <glyph glyph-name="parenright" unicode=")" horiz-adv-x="862" 
d="M303 -393l-160 83q115 204 147 282q99 245 99 593q0 349 -99 594q-32 78 -147 281l160 83q132 -178 197 -315q139 -293 139 -643q0 -272 -76.5 -490.5t-259.5 -467.5z" />
    <glyph glyph-name="asterisk" unicode="*" 
d="M507 1072l-277 60l62 174l264 -95l-15 254h193l-15 -254l264 95l62 -174l-277 -60l184 -210l-163 -108l-152 240l-151 -240l-163 108z" />
    <glyph glyph-name="plus" unicode="+" 
d="M120 539v202h409v344h220v-344h410v-202h-410v-344h-220v344h-409z" />
    <glyph glyph-name="comma" unicode="," horiz-adv-x="591" 
d="M251 252l217 -79l-235 -546l-175 70z" />
    <glyph glyph-name="hyphen" unicode="-" horiz-adv-x="814" 
d="M106 507v208h603v-208h-603z" />
    <glyph glyph-name="period" unicode="." horiz-adv-x="591" 
d="M296 255q61 0 103 -41t42 -100t-42 -100t-103 -41q-62 0 -104 41t-42 102q0 58 42.5 98.5t103.5 40.5z" />
    <glyph glyph-name="slash" unicode="/" horiz-adv-x="1132" 
d="M92 79l753 1319l196 -111l-752 -1319z" />
    <glyph glyph-name="zero" unicode="0" horiz-adv-x="1238" 
d="M619 1390q314 0 458 -213q114 -169 114 -495q0 -354 -131 -525q-140 -182 -441 -182q-326 0 -462 213q-110 171 -110 502q0 700 572 700zM617 1178q-187 0 -264 -157q-59 -124 -59 -333q0 -242 71 -366q78 -136 251 -136q188 0 267 158q61 124 61 339q0 249 -81 372
t-246 123z" />
    <glyph glyph-name="one" unicode="1" horiz-adv-x="927" 
d="M408 0v1072l-251 -101l-75 207l451 192h125v-1370h-250z" />
    <glyph glyph-name="two" unicode="2" horiz-adv-x="1148" 
d="M21 0v130l469 432q161 148 227 244t66 181q0 90 -70 141q-72 53 -184 53q-220 0 -281 -214l-221 59q60 169 134 239q131 125 375 125q237 0 368 -113q127 -110 127 -288q0 -128 -71.5 -241t-262.5 -285l-275 -248h663v-215h-1064z" />
    <glyph glyph-name="three" unicode="3" horiz-adv-x="1176" 
d="M395 609v210h138q89 0 138.5 10t86.5 36q72 50 72 132q0 85 -70.5 133.5t-194.5 48.5q-213 0 -297 -164l-204 85q73 156 192.5 223t324.5 67q223 0 352 -90q70 -49 108 -125.5t38 -168.5q0 -197 -182 -281q219 -88 219 -325q0 -178 -117 -293q-134 -132 -430 -132
q-243 0 -369 80t-180 270l233 59q37 -107 109 -151.5t209 -44.5q148 0 225 68q68 60 68 151q0 54 -27 99t-75 70q-63 33 -217 33h-150z" />
    <glyph glyph-name="four" unicode="4" horiz-adv-x="1164" 
d="M726 0v264h-704v155l519 946h258l-514 -889h441v364h227v-364h182v-212h-182v-264h-227z" />
    <glyph glyph-name="five" unicode="5" horiz-adv-x="1133" 
d="M-31 257l211 114q36 -82 82 -120q76 -64 215 -64q161 0 244 72q79 70 79 191q0 126 -80 191.5t-234 65.5q-98 0 -161 -18t-112 -60l-162 36l132 700h787v-216h-608l-67 -268q96 35 240 35q254 0 386 -119q129 -116 129 -334q0 -233 -152 -363q-145 -125 -402 -125
q-205 0 -327.5 65.5t-199.5 216.5z" />
    <glyph glyph-name="six" unicode="6" horiz-adv-x="1208" 
d="M496 871q85 19 166 19q224 0 358 -113q138 -116 138 -335q0 -227 -150 -347q-149 -120 -410 -120q-258 0 -407 120q-151 121 -151 338q0 132 52 247.5t177 261.5l402 469l184 -128zM596 695q-154 0 -234 -74q-76 -69 -76 -182q0 -118 76 -186q80 -72 238 -72
q155 0 235 72q76 67 76 182q0 124 -82.5 192t-232.5 68z" />
    <glyph glyph-name="seven" unicode="7" horiz-adv-x="1102" 
d="M161 65l593 1084h-693v216h974v-127l-646 -1281z" />
    <glyph glyph-name="eight" unicode="8" horiz-adv-x="1199" 
d="M302 719q-76 33 -122 71q-91 75 -91 217q0 182 134 282q136 101 376 101t376 -101q134 -100 134 -282q0 -106 -48.5 -172t-164.5 -116q102 -35 162 -83q116 -94 116 -254q0 -192 -155 -300q-154 -107 -420 -107t-420 107q-155 108 -155 300q0 125 67 206t211 131z
M599 1192q-142 0 -209 -54q-63 -49 -63 -133q0 -95 71 -145.5t203 -50.5t203 54q67 51 67 139q0 93 -69.5 141.5t-202.5 48.5zM599 611q-160 0 -247 -62q-81 -57 -81 -156q0 -108 84.5 -164t245.5 -56t246 60q80 57 80 156q0 106 -86 164t-242 58z" />
    <glyph glyph-name="nine" unicode="9" horiz-adv-x="1209" 
d="M712 494q-85 -19 -166 -19q-223 0 -358 113q-138 116 -138 336q0 226 150 346q149 120 410 120q258 0 407 -120q151 -121 151 -338q0 -133 -50.5 -245.5t-178.5 -263.5l-395 -467l-190 126zM608 1184q-153 0 -235 -72q-76 -67 -76 -182q0 -124 82.5 -192t232.5 -68
q154 0 234 74q76 70 76 182q0 120 -76 186q-83 72 -238 72z" />
    <glyph glyph-name="colon" unicode=":" horiz-adv-x="591" 
d="M308 255q61 0 103 -41t42 -100t-42 -100t-103 -41q-62 0 -104 41t-42 102q0 58 42.5 98.5t103.5 40.5zM308 888q61 0 103 -41t42 -100t-42 -100t-103 -41q-62 0 -104 41t-42 102q0 58 42.5 98.5t103.5 40.5z" />
    <glyph glyph-name="semicolon" unicode=";" horiz-adv-x="591" 
d="M260 252l217 -79l-235 -546l-175 70zM339 888q61 0 103 -41t42 -100t-42.5 -100t-102.5 -41q-62 0 -104 41t-42 102q0 58 42.5 98.5t103.5 40.5z" />
    <glyph glyph-name="less" unicode="&#x3c;" 
d="M389 640l731 -257v-234l-1016 423v136l1016 424v-234z" />
    <glyph glyph-name="equal" unicode="=" 
d="M153 361v201h972v-201h-972zM153 716v201h972v-201h-972z" />
    <glyph glyph-name="greater" unicode="&#x3e;" 
d="M885 640l-731 258v234l1016 -424v-136l-1016 -423v234z" />
    <glyph glyph-name="question" unicode="?" horiz-adv-x="1101" 
d="M415 374v93q0 129 46 194q34 48 154 126q79 51 100.5 68t44.5 45q44 54 44 122q0 79 -58 123q-65 49 -170 49q-93 0 -161 -34t-149 -121l-169 124q97 120 213.5 176t269.5 56q228 0 359 -110q113 -95 113 -272q0 -120 -53 -193.5t-210 -170.5q-85 -53 -108.5 -85
t-23.5 -97v-93h-242zM545 255q61 0 103 -41t42 -100t-42.5 -100t-102.5 -41q-62 0 -104 41t-42 102q0 58 42.5 98.5t103.5 40.5z" />
    <glyph glyph-name="at" unicode="@" horiz-adv-x="2330" 
d="M1515 369h67q181 0 283 91q106 96 106 270q0 227 -144 361q-103 96 -237 133q-160 43 -346 43q-393 0 -619 -159q-113 -80 -181 -205q-73 -133 -73 -280q0 -195 122 -353q215 -278 782 -278q236 0 528 62l54 -159q-286 -73 -605 -73q-332 0 -583 99t-377 308
q-110 181 -110 389q0 253 156 458q145 191 401 282q224 79 507 79q326 0 545 -106q208 -100 301 -290q68 -137 68 -299q0 -327 -262 -462q-149 -77 -428 -77h-259q-136 0 -220 20t-145 67q-136 106 -136 287q0 125 68 231q151 233 530 233h310zM1325 368l80 508h-125
q-176 0 -270 -69q-108 -80 -108 -224q0 -112 88 -173q61 -42 216 -42h119z" />
    <glyph glyph-name="A" unicode="A" horiz-adv-x="1544" 
d="M1143 294h-743l-139 -294h-264l684 1382h182l683 -1382h-264zM1057 483l-285 607l-286 -607h571z" />
    <glyph glyph-name="B" unicode="B" horiz-adv-x="1304" 
d="M177 0v1365h430q288 0 411 -81q153 -100 153 -280q0 -96 -44.5 -161t-142.5 -115q113 -48 157 -92q101 -102 101 -254q0 -214 -179 -313q-68 -37 -159 -53t-235 -16h-492zM415 801h200q162 0 230 34q89 44 89 147q0 94 -76.5 137.5t-242.5 43.5h-200v-362zM415 209h224
q183 0 259 39q94 48 94 158q0 124 -127 175q-70 28 -239 28h-211v-400z" />
    <glyph glyph-name="C" unicode="C" horiz-adv-x="1464" 
d="M1295 364l175 -150q-92 -90 -166 -134q-179 -105 -452 -105q-359 0 -563 181q-200 175 -200 520q0 333 188 517q201 197 560 197q197 0 344 -58t269 -183l-164 -154q-86 94 -188.5 136t-243.5 42q-255 0 -388 -143q-119 -128 -119 -357q0 -218 111 -337
q135 -145 409 -145q278 0 428 173z" />
    <glyph glyph-name="D" unicode="D" horiz-adv-x="1588" 
d="M177 0v1365h476q385 0 588 -145q140 -100 207 -264q51 -123 51 -274q0 -223 -110 -387q-103 -152 -279.5 -223.5t-447.5 -71.5h-485zM426 216h258q272 0 403 102q154 119 154 364q0 246 -157 365q-134 102 -401 102h-257v-933z" />
    <glyph glyph-name="E" unicode="E" horiz-adv-x="1220" 
d="M177 0v1365h908v-216h-664v-335h583v-216h-583v-382h693v-216h-937z" />
    <glyph glyph-name="F" unicode="F" horiz-adv-x="1116" 
d="M177 0v1365h863v-215h-613v-355h551v-216h-551v-579h-250z" />
    <glyph glyph-name="G" unicode="G" horiz-adv-x="1679" 
d="M890 551v195h701v-118q0 -142 -25 -239q-52 -205 -245 -314q-179 -100 -456 -100q-363 0 -570 182q-206 182 -206 522q0 326 192 512q206 199 565 199q387 0 629 -241l-164 -154q-170 177 -449 177q-259 0 -394 -144q-121 -129 -121 -352q0 -214 116 -339
q136 -146 413 -146q221 0 343.5 90.5t122.5 253.5v16h-452z" />
    <glyph glyph-name="H" unicode="H" horiz-adv-x="1610" 
d="M177 0v1365h250v-551h757v551h249v-1365h-249v598h-757v-598h-250z" />
    <glyph glyph-name="I" unicode="I" horiz-adv-x="604" 
d="M177 0v1365h250v-1365h-250z" />
    <glyph glyph-name="J" unicode="J" horiz-adv-x="1004" 
d="M576 1365h250v-856q0 -175 -27 -269q-39 -136 -157 -201q-115 -64 -277 -64q-106 0 -188.5 27t-177.5 92l100 196q76 -56 130.5 -77t123.5 -21q139 0 190 85q20 33 26.5 75.5t6.5 145.5v867z" />
    <glyph glyph-name="K" unicode="K" horiz-adv-x="1345" 
d="M177 0v1365h250v-631l613 631h301l-583 -574l657 -791h-314l-502 633l-172 -168v-465h-250z" />
    <glyph glyph-name="L" unicode="L" horiz-adv-x="1057" 
d="M177 0v1365h250v-1149h616v-216h-866z" />
    <glyph glyph-name="M" unicode="M" horiz-adv-x="1918" 
d="M177 0v1365h186l596 -805l595 805h187v-1365h-242v939l-472 -647h-137l-471 647v-939h-242z" />
    <glyph glyph-name="N" unicode="N" horiz-adv-x="1660" 
d="M177 0v1368h173l891 -958v955h241v-1381h-156l-908 995v-979h-241z" />
    <glyph glyph-name="O" unicode="O" horiz-adv-x="1755" 
d="M878 1390q383 0 600 -217q188 -189 188 -490q0 -302 -188 -491q-120 -121 -297 -174q-146 -43 -301 -43q-388 0 -603 217q-188 190 -188 500q0 182 79 333q107 205 340 299q165 66 370 66zM878 1173q-261 0 -408 -151q-123 -126 -123 -333q0 -220 123 -346
q146 -151 410 -151q259 0 405 151q123 126 123 340q0 213 -123 339q-146 151 -407 151z" />
    <glyph glyph-name="P" unicode="P" horiz-adv-x="1216" 
d="M422 478v-478h-245v1365h378q295 0 443 -99q171 -114 171 -345q0 -138 -67 -243q-129 -200 -515 -200h-165zM422 689h145q182 0 260 51q91 61 91 180q0 136 -111 195q-72 39 -240 39h-145v-465z" />
    <glyph glyph-name="Q" unicode="Q" horiz-adv-x="1755" 
d="M1278 55q-174 -80 -404 -80q-243 0 -429 95q-213 109 -302 326q-54 130 -54 287q0 300 188 490q216 217 600 217q386 0 601 -217q188 -189 188 -491q0 -314 -203 -505l129 -115l-157 -148zM1088 223l-188 168l162 143l219 -195q127 126 127 344q0 213 -123 339
q-146 151 -408 151q-261 0 -407 -151q-123 -126 -123 -339q0 -214 123 -340q146 -151 406 -151q119 0 212 31z" />
    <glyph glyph-name="R" unicode="R" horiz-adv-x="1269" 
d="M423 507v-507h-246v1365h404q287 0 430 -90q165 -105 165 -339q0 -148 -69.5 -242.5t-213.5 -144.5l375 -549h-296l-324 513q-85 -6 -138 -6h-87zM422 712h171q165 0 243 44q89 49 89 179q0 117 -77 168t-255 51h-171v-442z" />
    <glyph glyph-name="S" unicode="S" horiz-adv-x="1256" 
d="M65 302l218 104q29 -72 60 -111q44 -54 111.5 -78.5t174.5 -24.5q157 0 230 57q62 47 62 130q0 94 -99 143q-52 26 -251 88q-196 61 -299 143q-130 101 -130 265q0 166 128 267q133 105 355 105q320 0 483 -230l-195 -124q-92 142 -294 142q-109 0 -171 -41t-62 -113
q0 -82 76 -127q35 -21 64 -31.5t167 -54.5q216 -68 325 -138q151 -97 151 -285q0 -116 -57 -214q-117 -199 -486 -199q-311 0 -460 148q-64 63 -101 179z" />
    <glyph glyph-name="T" unicode="T" horiz-adv-x="1067" 
d="M408 0v1149h-411v216h1072v-216h-411v-1149h-250z" />
    <glyph glyph-name="U" unicode="U" horiz-adv-x="1567" 
d="M177 1365h250v-769q0 -133 11.5 -193.5t45.5 -103.5q85 -107 299 -107q234 0 313 127q25 40 34 97.5t9 179.5v769h250v-758q0 -183 -19 -277q-37 -175 -199 -270q-145 -85 -388 -85q-386 0 -531 216q-41 61 -58 154t-17 262v758z" />
    <glyph glyph-name="V" unicode="V" horiz-adv-x="1407" 
d="M618 -8l-594 1373h264l416 -1017l415 1017h264l-593 -1373h-172z" />
    <glyph glyph-name="W" unicode="W" horiz-adv-x="2243" 
d="M523 -8l-468 1373h264l303 -1017l426 1017h146l426 -1017l303 1017h264l-468 -1373h-183l-415 992l-415 -992h-183z" />
    <glyph glyph-name="X" unicode="X" horiz-adv-x="1361" 
d="M550 704l-519 661h299l382 -484l377 484h266l-519 -643l566 -722h-299l-427 541l-433 -541h-269z" />
    <glyph glyph-name="Y" unicode="Y" horiz-adv-x="1321" 
d="M536 0v539l-563 826h283l405 -585l405 585h282l-562 -826v-539h-250z" />
    <glyph glyph-name="Z" unicode="Z" horiz-adv-x="1256" 
d="M23 0v108l783 1041h-685v216h1055v-108l-774 -1040h812v-217h-1191z" />
    <glyph glyph-name="bracketleft" unicode="[" horiz-adv-x="862" 
d="M480 -174h233v-193h-470v1864h471v-193h-234v-1478z" />
    <glyph glyph-name="backslash" unicode="\" horiz-adv-x="1132" 
d="M844 -32l-753 1319l197 111l752 -1319z" />
    <glyph glyph-name="bracketright" unicode="]" horiz-adv-x="862" 
d="M382 -174v1478h-234v193h471v-1864h-471v193h234z" />
    <glyph glyph-name="asciicircum" unicode="^" 
d="M637 1185l-282 -367h-249l444 567h175l444 -567h-249z" />
    <glyph glyph-name="underscore" unicode="_" horiz-adv-x="1238" 
d="M-55 -359v205h1347v-205h-1347z" />
    <glyph glyph-name="grave" unicode="`" horiz-adv-x="1024" 
d="M207 1313l218 107l249 -316l-154 -80z" />
    <glyph glyph-name="a" unicode="a" horiz-adv-x="1290" 
d="M962 0l-16 105q-137 -129 -380 -129q-236 0 -363 124q-130 127 -130 354t130 354q127 124 361 124q230 0 362 -114l12 90h211v-908h-187zM614 730q-150 0 -229 -80q-71 -71 -71 -196q0 -124 71 -196q78 -80 230 -80q151 0 229 80q71 72 71 192q0 129 -71 200
q-79 80 -230 80z" />
    <glyph glyph-name="b" unicode="b" horiz-adv-x="1290" 
d="M142 0v1365h234v-541q43 47 139.5 77.5t206.5 30.5q240 0 365 -124q130 -129 130 -354q0 -226 -130 -355q-125 -124 -365 -124q-161 0 -293 69q-49 25 -71 53l-17 -97h-199zM676 730q-151 0 -229 -80q-71 -72 -71 -193q0 -128 71 -200q78 -80 230 -80q150 0 228 80
q71 72 71 196q0 125 -71 197q-78 80 -229 80z" />
    <glyph glyph-name="c" unicode="c" horiz-adv-x="1056" 
d="M904 281l145 -168q-60 -53 -121 -81q-123 -56 -302 -56q-258 0 -405 122q-148 124 -148 353q0 232 151 359q145 121 391 121q275 0 432 -137l-135 -162q-114 98 -282 98q-157 0 -238 -76q-78 -74 -78 -204q0 -125 75 -197q78 -75 229 -75q90 0 156 23.5t130 79.5z" />
    <glyph glyph-name="d" unicode="d" horiz-adv-x="1290" 
d="M962 0l-16 105q-63 -62 -161 -95.5t-218 -33.5q-238 0 -363 124q-130 129 -130 354t130 354q125 124 363 124q155 0 279 -60q45 -22 69 -48v541h235v-1365h-188zM614 730q-150 0 -228 -80q-71 -72 -71 -196t71 -196q78 -80 229 -80t229 80q71 72 71 192q0 128 -71 200
q-78 80 -230 80z" />
    <glyph glyph-name="e" unicode="e" horiz-adv-x="1190" 
d="M1128 387h-825q7 -83 55 -133q84 -90 256 -90q104 0 169.5 26.5t99.5 82.5l224 -40q-32 -88 -97 -142q-140 -115 -387 -115q-259 0 -404 124q-146 125 -146 355q0 229 144 355q138 121 394 121q266 0 396 -128q124 -120 124 -330q0 -26 -3 -86zM904 549q-10 78 -44 117
q-73 85 -253 85q-185 0 -258 -96q-34 -44 -41 -106h596z" />
    <glyph glyph-name="f" unicode="f" horiz-adv-x="644" 
d="M181 703h-122v205h122v94q0 108 13 166.5t46 106.5q77 106 261 106q66 0 148 -15v-188q-54 10 -95 10q-83 0 -111 -36t-28 -142v-102h213v-205h-213v-703h-234v703z" />
    <glyph glyph-name="g" unicode="g" horiz-adv-x="1290" 
d="M926 116q-44 -56 -144.5 -91t-216.5 -35q-236 0 -363 122q-130 126 -130 349q0 224 130 349q127 122 361 122q230 0 361 -113l12 89h212v-827q0 -153 -21 -246.5t-68 -153.5q-74 -93 -209 -140q-118 -40 -266 -40q-315 0 -468 214l187 109q71 -127 281 -127
q221 0 302 123q41 62 41 194zM613 730q-149 0 -229 -78q-71 -69 -71 -191t71 -191q80 -78 230 -78q151 0 229 78q71 70 71 187q0 125 -71 195q-79 78 -230 78z" />
    <glyph glyph-name="h" unicode="h" horiz-adv-x="1265" 
d="M142 0v1365h234v-532q75 54 151.5 76.5t183.5 22.5q262 0 363 -154q31 -48 44 -115t13 -183v-480h-234v455q0 128 -38 185q-59 89 -212 89q-162 0 -226 -87q-45 -60 -45 -203v-439h-234z" />
    <glyph glyph-name="i" unicode="i" horiz-adv-x="517" 
d="M142 0v908h234v-908h-234zM259 1335q65 0 104 -37t39 -99q0 -63 -39 -100t-104 -37q-67 0 -105.5 37t-38.5 102q0 60 39.5 97t104.5 37z" />
    <glyph glyph-name="j" unicode="j" horiz-adv-x="527" 
d="M152 908h234v-925q0 -238 -40 -326q-32 -71 -106.5 -112.5t-170.5 -41.5q-61 0 -133 22v191q51 -20 90 -20q84 0 110 83q16 50 16 183v946zM269 1335q66 0 105 -37t39 -99q0 -63 -39 -100t-104 -37q-67 0 -106 37t-39 102q0 60 39.5 97t104.5 37z" />
    <glyph glyph-name="k" unicode="k" horiz-adv-x="1092" 
d="M142 0v1365h234v-806l395 349h308l-421 -344l458 -564h-280l-344 441l-116 -104v-337h-234z" />
    <glyph glyph-name="l" unicode="l" horiz-adv-x="522" 
d="M144 0v1365h234v-1365h-234z" />
    <glyph glyph-name="m" unicode="m" horiz-adv-x="1934" 
d="M142 0v908h211l12 -81q118 105 329 105q227 0 322 -137q64 55 120 80q123 57 268 57q249 0 344 -154q30 -48 42 -115t12 -183v-480h-234v456q0 126 -35 184q-53 89 -192 89q-151 0 -210 -87q-42 -60 -42 -209v-433h-234v446q0 136 -35 194q-53 89 -192 89
q-150 0 -210 -87q-42 -60 -42 -215v-427h-234z" />
    <glyph glyph-name="n" unicode="n" horiz-adv-x="1258" 
d="M142 0v908h211l12 -81q128 105 346 105q258 0 358 -154q31 -47 44 -115t13 -183v-480h-234v455q0 128 -38 185q-58 89 -209 89q-161 0 -225 -87q-44 -60 -44 -215v-427h-234z" />
    <glyph glyph-name="o" unicode="o" horiz-adv-x="1249" 
d="M625 931q253 0 403 -124q149 -124 149 -353t-149 -354q-149 -124 -401 -124q-256 0 -404 124q-150 125 -150 361q0 222 150 346q149 124 402 124zM626 729q-152 0 -236 -79q-76 -71 -76 -193q0 -129 76 -200q84 -79 237 -79q152 0 234 79q76 73 76 196q0 126 -76 197
q-84 79 -235 79z" />
    <glyph glyph-name="p" unicode="p" horiz-adv-x="1290" 
d="M376 87v-565h-234v1386h211l12 -90q132 114 362 114q234 0 361 -124q130 -127 130 -354t-130 -354q-127 -124 -362 -124q-116 0 -213 31t-137 80zM676 730q-150 0 -229 -80q-71 -72 -71 -192q0 -128 71 -200q78 -80 230 -80q151 0 229 80q71 72 71 196q0 125 -71 196
q-79 80 -230 80z" />
    <glyph glyph-name="q" unicode="q" horiz-adv-x="1290" 
d="M915 87q-42 -50 -138 -80.5t-212 -30.5q-235 0 -362 124q-130 127 -130 354t130 354q127 124 361 124q230 0 362 -114l12 90h211v-1386h-234v565zM613 730q-149 0 -228 -80q-71 -71 -71 -196q0 -124 71 -196q78 -80 229 -80q152 0 230 80q71 72 71 192q0 128 -71 200
q-79 80 -231 80z" />
    <glyph glyph-name="r" unicode="r" horiz-adv-x="781" 
d="M142 0v908h211l12 -86q70 52 136 73.5t154 21.5q47 0 106 -9v-219q-71 14 -129 14q-148 0 -212 -85q-44 -58 -44 -213v-405h-234z" />
    <glyph glyph-name="s" unicode="s" horiz-adv-x="932" 
d="M26 206l200 82q40 -71 92 -100.5t138 -29.5q192 0 192 106q0 49 -47 70q-36 16 -214 58q-144 34 -214 89q-83 65 -83 181q0 124 99 196.5t270 72.5q131 0 218.5 -40.5t153.5 -131.5l-169 -96q-58 92 -197 92q-71 0 -112.5 -24.5t-41.5 -66.5q0 -36 28.5 -55t110.5 -38
q217 -51 280 -82q77 -38 110.5 -89.5t33.5 -130.5q0 -140 -98 -212q-112 -81 -310 -81q-166 0 -278.5 59t-161.5 171z" />
    <glyph glyph-name="t" unicode="t" horiz-adv-x="648" 
d="M171 703h-126v205h133l15 267l208 31v-298h213v-205h-213v-327q0 -108 20 -139q24 -37 97 -37q39 0 90 6v-208q-95 -16 -163 -16q-164 0 -226 94q-28 42 -38 104.5t-10 194.5v328z" />
    <glyph glyph-name="u" unicode="u" horiz-adv-x="1223" 
d="M132 908h234v-465q0 -126 32 -180q49 -84 197 -84q151 0 211 87q41 60 41 215v427h234v-908h-211l-12 83q-86 -63 -155 -85t-178 -22q-246 0 -340 150q-29 46 -41 112t-12 180v490z" />
    <glyph glyph-name="v" unicode="v" horiz-adv-x="1046" 
d="M442 -7l-452 915h262l271 -596l272 596h261l-452 -915h-162z" />
    <glyph glyph-name="w" unicode="w" horiz-adv-x="1646" 
d="M374 -7l-370 915h262l208 -579l296 579h105l296 -579l208 579h262l-370 -915h-156l-293 583l-292 -583h-156z" />
    <glyph glyph-name="x" unicode="x" horiz-adv-x="1048" 
d="M376 476l-369 432h286l242 -277l246 277h250l-381 -417l413 -491h-286l-285 333l-290 -333h-252z" />
    <glyph glyph-name="y" unicode="y" horiz-adv-x="1047" 
d="M404 8l-414 900h262l266 -611l277 611h257l-663 -1386h-247z" />
    <glyph glyph-name="z" unicode="z" horiz-adv-x="1038" 
d="M49 0v101l523 596h-464v211h844v-102l-524 -595h558v-211h-937z" />
    <glyph glyph-name="braceleft" unicode="{" horiz-adv-x="862" 
d="M381 580q12 -8 19 -13q64 -42 80 -76.5t16 -129.5v-366q0 -125 27.5 -160.5t124.5 -35.5h46v-166h-81q-216 0 -294 82q-37 38 -50 97t-13 190v375q0 48 -8 70.5t-29 35.5q-35 21 -114 27v139q94 8 122.5 33.5t28.5 100.5v344q0 138 14 194q30 123 171 158q72 18 172 18
h81v-166h-46q-97 0 -124.5 -35.5t-27.5 -161.5v-335q0 -98 -21 -137.5t-94 -81.5z" />
    <glyph glyph-name="bar" unicode="|" 
d="M521 -367v1864h232v-1864h-232z" />
    <glyph glyph-name="braceright" unicode="}" horiz-adv-x="862" 
d="M481 580q-73 42 -94 81.5t-21 137.5v335q0 126 -27.5 161.5t-124.5 35.5h-46v166h81q215 0 293 -81q38 -38 51 -97.5t13 -191.5v-344q0 -48 8 -70.5t29 -35.5q35 -21 114 -28v-139q-93 -7 -122 -32.5t-29 -100.5v-375q0 -138 -15 -195q-23 -91 -104.5 -132.5
t-237.5 -41.5h-81v166h46q97 0 124.5 35.5t27.5 160.5v366q0 100 17.5 132.5t97.5 86.5z" />
    <glyph glyph-name="asciitilde" unicode="~" 
d="M225 473l-135 61q64 160 136.5 229t176.5 69q62 0 109.5 -14.5t271.5 -102.5q64 -25 101 -25q50 0 96.5 38.5t72.5 100.5l134 -61q-113 -295 -327 -295q-63 0 -124.5 19.5t-243.5 96.5q-62 26 -108 26q-89 0 -160 -142z" />
    <glyph glyph-name="nonbreakingspace" unicode="&#xa0;" horiz-adv-x="479" 
 />
    <glyph glyph-name="exclamdown" unicode="&#xa1;" horiz-adv-x="705" 
d="M246 615h221l23 -991h-267zM357 1015q60 0 102.5 -41t42.5 -100t-42.5 -100t-103.5 -41t-103 41t-42 102q0 57 42.5 98t103.5 41z" />
    <glyph glyph-name="cent" unicode="&#xa2;" horiz-adv-x="1057" 
d="M493 0v227q-151 24 -233 80q-187 130 -187 384q0 269 199 395q82 52 221 75v204h239v-202q203 -25 317 -128l-136 -163q-114 99 -282 99q-158 0 -238 -77q-78 -73 -78 -203q0 -125 74 -198q78 -75 230 -75q91 0 156.5 23.5t130.5 79.5l144 -168q-69 -61 -137.5 -89
t-180.5 -41v-223h-239z" />
    <glyph glyph-name="sterling" unicode="&#xa3;" horiz-adv-x="1202" 
d="M79 0v149q105 61 144 103q65 70 65 159q0 53 -34 175h-187v188h151q-34 111 -34 199q0 109 47 202q107 215 431 215q220 0 359 -110q57 -46 109 -122l-199 -118q-32 55 -66 81q-76 58 -200 58q-236 0 -236 -205q0 -85 34 -200h447v-188h-404q36 -102 36 -164
q0 -111 -121 -211h719v-211h-1061z" />
    <glyph glyph-name="currency" unicode="&#xa4;" 
d="M216 422q-93 120 -93 241t93 242l-171 145l119 114l166 -141q123 69 307 69t307 -69l167 141l118 -114l-170 -145q92 -124 92 -242t-92 -241l170 -145l-118 -114l-167 140q-126 -69 -307 -69t-307 69l-166 -140l-119 114zM637 910q-142 0 -225.5 -65.5t-83.5 -177.5
q0 -124 90 -189q86 -62 220 -62q144 0 226 66t82 181q0 119 -87 183t-222 64z" />
    <glyph glyph-name="yen" unicode="&#xa5;" 
d="M512 0v275h-368v153h368v122h-368v153h285l-454 662h293l369 -583l370 583h292l-454 -662h285v-153h-368v-122h368v-153h-368v-275h-250z" />
    <glyph glyph-name="brokenbar" unicode="&#xa6;" 
d="M521 426h232v-793h-232v793zM521 708v789h232v-789h-232z" />
    <glyph glyph-name="section" unicode="&#xa7;" 
d="M352 783q-58 35 -82 54q-80 65 -80 196q0 167 127 263q124 94 331 94q159 0 267.5 -55t200.5 -183l-190 -117q-52 80 -117.5 114.5t-166.5 34.5q-99 0 -155 -35q-62 -40 -62 -110q0 -73 72 -115q32 -19 59.5 -29t161.5 -52q199 -63 314 -129q141 -82 141 -239
q0 -136 -97 -220q-32 -27 -92 -65q153 -99 153 -254q0 -107 -56 -198q-112 -184 -470 -184q-210 0 -351 67q-77 37 -121.5 91t-82.5 156l228 99q38 -96 63 -126q67 -82 269 -82q151 0 226 53q57 40 57 111q0 87 -101 135q-53 26 -243 84q-218 66 -315 150.5t-97 207.5
q0 136 98 210q19 14 111 73zM521 675q-77 -36 -109.5 -71t-32.5 -82q0 -59 57 -94.5t241 -90.5l147 -44q112 65 112 155q0 42 -23 70.5t-77 52.5q-52 23 -199 66z" />
    <glyph glyph-name="dieresis" unicode="&#xa8;" horiz-adv-x="1024" 
d="M299 1330q56 0 95.5 -38t39.5 -93t-39.5 -93.5t-95.5 -38.5q-58 0 -97 38.5t-39 94.5q0 54 39.5 92t96.5 38zM727 1330q56 0 95.5 -38t39.5 -94q0 -55 -39.5 -93t-95.5 -38q-58 0 -97 38t-39 95q0 54 39.5 92t96.5 38z" />
    <glyph glyph-name="copyright" unicode="&#xa9;" horiz-adv-x="1771" 
d="M1178 514l126 -99q-60 -55 -110 -82q-117 -63 -284 -63q-210 0 -340 114q-126 111 -126 300q0 187 119 295q129 117 335 117q119 0 211 -34.5t184 -115.5l-121 -100q-59 60 -115.5 84t-136.5 24q-142 0 -220 -81q-68 -71 -68 -191q0 -116 67 -188q79 -83 226 -83
q150 0 253 103zM884 1449q346 0 572 -231q210 -215 210 -535t-210 -536q-225 -231 -570 -231q-349 0 -574 231q-210 216 -210 546q0 211 104 388q104 175 291 276q172 92 387 92zM884 1321q-280 0 -463 -186q-176 -179 -176 -444q0 -281 176 -461q182 -186 465 -186
q279 0 461 186q176 180 176 453q0 277 -176 452q-187 186 -463 186z" />
    <glyph glyph-name="ordfeminine" unicode="&#xaa;" horiz-adv-x="888" 
d="M624 800l-9 62q-34 -30 -50 -40q-64 -37 -184 -37q-149 0 -237 78t-88 222q0 141 88 220q88 78 232 78q86 0 135 -16t97 -60l6 61h168v-568h-158zM416 1247q-83 0 -130 -43.5t-47 -119.5t47.5 -119.5t129.5 -43.5q85 0 135 43.5t50 117.5q0 77 -49 121t-136 44z" />
    <glyph glyph-name="guillemotleft" unicode="&#xab;" horiz-adv-x="1162" 
d="M806 459l288 -335l-125 -95l-408 404v52l408 404l125 -94zM349 459l289 -335l-126 -95l-407 404v52l407 404l126 -94z" />
    <glyph glyph-name="logicalnot" unicode="&#xac;" 
d="M124 539v202h952v-546h-218v344h-734z" />
    <glyph glyph-name="uni00AD" unicode="&#xad;" horiz-adv-x="814" 
d="M106 507v208h603v-208h-603z" />
    <glyph glyph-name="registered" unicode="&#xae;" horiz-adv-x="1771" 
d="M774 582v-311h-169v800h261q191 0 274 -51q105 -66 105 -192q0 -113 -84 -178q-35 -26 -122 -48l237 -331h-183l-207 311h-112zM774 706h101q201 0 201 121t-201 121h-101v-242zM884 1449q346 0 572 -231q210 -215 210 -535t-210 -536q-225 -231 -570 -231
q-349 0 -574 231q-210 216 -210 546q0 211 104 388q104 175 291 276q172 92 387 92zM884 1321q-280 0 -463 -186q-176 -179 -176 -444q0 -281 176 -461q182 -186 465 -186q279 0 461 186q176 180 176 453q0 277 -176 452q-187 186 -463 186z" />
    <glyph glyph-name="macron" unicode="&#xaf;" horiz-adv-x="1024" 
d="M147 1112v183h729v-183h-729z" />
    <glyph glyph-name="degree" unicode="&#xb0;" horiz-adv-x="742" 
d="M371 1519q145 0 235 -78q92 -81 92 -212q0 -130 -92 -211q-90 -78 -234 -78q-146 0 -236 78q-92 81 -92 216q0 128 92 207q92 78 235 78zM371 1390q-74 0 -120.5 -44t-46.5 -115q0 -73 46 -117.5t122 -44.5q74 0 120 44.5t46 116.5q0 71 -46 115.5t-121 44.5z" />
    <glyph glyph-name="plusminus" unicode="&#xb1;" 
d="M142 0v199h994v-199h-994zM143 605v203h387v306h219v-306h387v-203h-387v-291h-219v291h-387z" />
    <glyph glyph-name="twosuperior" unicode="&#xb2;" horiz-adv-x="881" 
d="M89 822v89l323 284q81 71 118.5 124t37.5 96t-43 72t-106 29q-59 0 -101 -33.5t-59 -93.5l-169 41q34 118 115 172.5t223 54.5q159 0 244 -68q83 -65 83 -176q0 -77 -44.5 -143t-165.5 -170l-157 -135h401v-143h-700z" />
    <glyph glyph-name="threesuperior" unicode="&#xb3;" horiz-adv-x="881" 
d="M306 1181v140h92q173 0 173 97q0 45 -41.5 72t-111.5 27q-68 0 -109.5 -23.5t-67.5 -78.5l-158 60q47 98 126 140.5t218 42.5q149 0 233 -54q96 -61 96 -182q0 -57 -22 -94t-76 -70q14 -11 20 -16q58 -42 80 -81.5t22 -98.5q0 -105 -76 -175q-86 -80 -279 -80
q-208 0 -292 82q-57 55 -76 138l177 41q32 -120 189 -120q80 0 124 32t44 91q0 58 -44 84t-142 26h-99z" />
    <glyph glyph-name="acute" unicode="&#xb4;" horiz-adv-x="1024" 
d="M830 1313l-313 -289l-154 80l249 316z" />
    <glyph glyph-name="mu" unicode="&#xb5;" 
d="M157 908h235v-467q0 -123 33 -178q52 -84 195 -84q150 0 210 87q41 60 41 215v427h235v-908h-212l-12 83q-71 -62 -133 -84.5t-157 -22.5q-108 0 -200 53v-506h-235v1385z" />
    <glyph glyph-name="paragraph" unicode="&#xb6;" horiz-adv-x="1574" 
d="M651 428q-223 29 -332 89q-114 63 -163 160q-45 89 -45 217q0 264 199 395q67 44 160.5 60t285.5 16h741v-185h-155v-1644h-210v1644h-272v-1644h-209v892z" />
    <glyph glyph-name="glyph195" unicode="&#xb7;" horiz-adv-x="592" 
d="M297 753q61 0 103 -41t42 -100t-42 -100t-103 -41q-62 0 -104 41t-42 102q0 58 42.5 98.5t103.5 40.5z" />
    <glyph glyph-name="cedilla" unicode="&#xb8;" horiz-adv-x="1024" 
d="M404 -87l218 -62l-178 -318l-171 50z" />
    <glyph glyph-name="onesuperior" unicode="&#xb9;" horiz-adv-x="881" 
d="M385 822v623l-156 -59l-49 145l290 116h103v-825h-188z" />
    <glyph glyph-name="ordmasculine" unicode="&#xba;" horiz-adv-x="888" 
d="M444 1381q179 0 284 -77q104 -76 104 -220t-104 -220q-104 -77 -282 -77q-182 0 -286 77t-104 225q0 139 104 215q105 77 284 77zM444 1246q-98 0 -152 -46q-52 -44 -52 -114q0 -77 54.5 -120.5t150.5 -43.5q98 0 152 46q52 45 52 116q0 74 -55.5 118t-149.5 44z" />
    <glyph glyph-name="guillemotright" unicode="&#xbb;" horiz-adv-x="1162" 
d="M357 459l-289 336l126 94l407 -404v-52l-407 -404l-126 95zM813 459l-289 336l126 94l407 -404v-52l-407 -404l-126 95z" />
    <glyph glyph-name="onequarter" unicode="&#xbc;" horiz-adv-x="2016" 
d="M379 544v622l-156 -58l-49 145l290 116h103v-825h-188zM379 59l942 1339l139 -92l-942 -1338zM1577 0v167h-484v121l418 561l145 -88l-346 -453h267v184h164v-184h106v-141h-106v-167h-164z" />
    <glyph glyph-name="onehalf" unicode="&#xbd;" horiz-adv-x="2016" 
d="M358 544v622l-156 -58l-49 145l290 116h103v-825h-188zM344 59l943 1339l139 -92l-943 -1338zM1148 0v89l323 284q81 71 118.5 124t37.5 96t-43 72t-106 29q-59 0 -101.5 -33.5t-58.5 -94.5l-169 42q34 118 115 172.5t223 54.5q159 0 244 -68q83 -65 83 -176
q0 -76 -44.5 -143t-165.5 -170l-157 -135h401v-143h-700z" />
    <glyph glyph-name="threequarters" unicode="&#xbe;" horiz-adv-x="2016" 
d="M306 903v140h92q173 0 173 97q0 45 -41.5 71.5t-112.5 26.5q-126 0 -176 -101l-158 59q47 99 126 141t218 42q149 0 233 -54q96 -61 96 -182q0 -56 -22 -93t-76 -70q13 -11 20 -16q58 -43 80 -81.5t22 -98.5q0 -106 -76 -176q-86 -79 -280 -79q-207 0 -291 82
q-57 55 -76 138l177 41q32 -120 188 -120q81 0 125 32t44 91q0 57 -44.5 83.5t-141.5 26.5h-99zM467 59l942 1339l139 -92l-942 -1338zM1616 0v167h-484v121l418 561l145 -88l-346 -453h267v184h164v-184h106v-141h-106v-167h-164z" />
    <glyph glyph-name="questiondown" unicode="&#xbf;" horiz-adv-x="1101" 
d="M458 615h243v-93q0 -129 -46 -194q-34 -48 -155 -126q-78 -50 -100 -67.5t-45 -45.5q-44 -54 -44 -123q0 -78 58 -122q66 -49 171 -49q93 0 161 34t149 121l169 -124q-97 -120 -213.5 -176t-270.5 -56q-229 0 -359 110q-113 96 -113 274q0 118 53 191.5t210 170.5
q86 53 109 85t23 97v93zM572 1016q61 0 103 -41t42 -100t-42.5 -100t-103.5 -41t-103 41t-42 102q0 57 42.5 98t103.5 41z" />
    <glyph glyph-name="Agrave" unicode="&#xc0;" horiz-adv-x="1544" 
d="M1143 294h-743l-139 -294h-264l684 1382h182l683 -1382h-264zM1057 483l-285 607l-286 -607h571zM462 1758l218 107l249 -316l-154 -80z" />
    <glyph glyph-name="Aacute" unicode="&#xc1;" horiz-adv-x="1544" 
d="M1143 294h-743l-139 -294h-264l684 1382h182l683 -1382h-264zM1057 483l-285 607l-286 -607h571zM1099 1758l-313 -289l-154 80l249 316z" />
    <glyph glyph-name="Acircumflex" unicode="&#xc2;" horiz-adv-x="1544" 
d="M1143 294h-743l-139 -294h-264l684 1382h182l683 -1382h-264zM1057 483l-285 607l-286 -607h571zM772 1630l-182 -161l-174 79l281 284h150l280 -284l-174 -79z" />
    <glyph glyph-name="Atilde" unicode="&#xc3;" horiz-adv-x="1544" 
d="M1143 294h-743l-139 -294h-264l684 1382h182l683 -1382h-264zM1057 483l-285 607l-286 -607h571zM524 1527h-134q18 121 42 163q26 45 70 72t91 27q64 0 187 -54q93 -41 138 -41q77 0 101 92h135q-8 -99 -35 -151q-57 -111 -166 -111q-71 0 -201 57q-86 38 -128 38
q-75 0 -100 -92z" />
    <glyph glyph-name="Adieresis" unicode="&#xc4;" horiz-adv-x="1544" 
d="M1143 294h-743l-139 -294h-264l684 1382h182l683 -1382h-264zM1057 483l-285 607l-286 -607h571zM529 1787q57 0 96 -38t39 -94q0 -55 -39.5 -93t-95.5 -38q-58 0 -97 38.5t-39 94.5q0 54 40 92t96 38zM1016 1787q57 0 96 -38t39 -93q0 -56 -39.5 -94t-95.5 -38
q-58 0 -97 38.5t-39 94.5q0 54 39.5 92t96.5 38z" />
    <glyph glyph-name="Aring" unicode="&#xc5;" horiz-adv-x="1544" 
d="M1143 294h-743l-139 -294h-264l684 1382h182l683 -1382h-264zM1057 483l-285 607l-286 -607h571zM772 1888q98 0 161 -60q65 -62 65 -156q0 -95 -65 -157q-63 -60 -160 -60q-99 0 -162 60q-65 62 -65 159q0 94 65 154t161 60zM772 1776q-44 0 -72.5 -28.5t-28.5 -74.5
q0 -47 28 -76.5t73 -29.5t73 29.5t28 75.5t-28 75t-73 29z" />
    <glyph glyph-name="AE" unicode="&#xc6;" horiz-adv-x="2116" 
d="M1073 303h-617l-208 -303h-301l964 1365h1071v-216h-665v-343h584v-216h-584v-374h693v-216h-937v303zM1073 508v641h-54l-437 -641h491z" />
    <glyph glyph-name="Ccedilla" unicode="&#xc7;" horiz-adv-x="1464" 
d="M1295 364l175 -150q-92 -90 -166 -134q-179 -105 -452 -105q-359 0 -563 181q-200 175 -200 520q0 333 188 517q201 197 560 197q197 0 344 -58t269 -183l-164 -154q-86 94 -188.5 136t-243.5 42q-255 0 -388 -143q-119 -128 -119 -357q0 -218 111 -337
q135 -145 409 -145q278 0 428 173zM704 -87l218 -62l-178 -318l-171 50z" />
    <glyph glyph-name="Egrave" unicode="&#xc8;" horiz-adv-x="1220" 
d="M177 0v1365h908v-216h-664v-335h583v-216h-583v-382h693v-216h-937zM373 1758l218 107l249 -316l-154 -80z" />
    <glyph glyph-name="Eacute" unicode="&#xc9;" horiz-adv-x="1220" 
d="M177 0v1365h908v-216h-664v-335h583v-216h-583v-382h693v-216h-937zM978 1758l-313 -289l-154 80l249 316z" />
    <glyph glyph-name="Ecircumflex" unicode="&#xca;" horiz-adv-x="1220" 
d="M177 0v1365h908v-216h-664v-335h583v-216h-583v-382h693v-216h-937zM644 1630l-182 -161l-174 79l281 284h149l281 -284l-174 -79z" />
    <glyph glyph-name="Edieresis" unicode="&#xcb;" horiz-adv-x="1220" 
d="M177 0v1365h908v-216h-664v-335h583v-216h-583v-382h693v-216h-937zM398 1787q57 0 96 -38t39 -94q0 -55 -39.5 -93t-95.5 -38q-58 0 -97 38.5t-39 94.5q0 54 39.5 92t96.5 38zM885 1787q57 0 96 -38t39 -93q0 -56 -39.5 -94t-95.5 -38q-58 0 -97 38.5t-39 94.5
q0 54 40 92t96 38z" />
    <glyph glyph-name="Igrave" unicode="&#xcc;" horiz-adv-x="604" 
d="M177 0v1365h250v-1365h-250zM-3 1758l218 107l249 -316l-154 -80z" />
    <glyph glyph-name="Iacute" unicode="&#xcd;" horiz-adv-x="604" 
d="M177 0v1365h250v-1365h-250zM620 1758l-313 -289l-154 80l249 316z" />
    <glyph glyph-name="Icircumflex" unicode="&#xce;" horiz-adv-x="604" 
d="M177 0v1365h250v-1365h-250zM302 1630l-182 -161l-174 79l281 284h150l280 -284l-174 -79z" />
    <glyph glyph-name="Idieresis" unicode="&#xcf;" horiz-adv-x="604" 
d="M177 0v1365h250v-1365h-250zM59 1787q57 0 96 -38t39 -94q0 -54 -39.5 -92.5t-95.5 -38.5q-58 0 -97 38.5t-39 94.5q0 54 39.5 92t96.5 38zM546 1787q57 0 96 -38t39 -93t-39.5 -93.5t-95.5 -38.5q-58 0 -97 38.5t-39 94.5q0 54 39.5 92t96.5 38z" />
    <glyph glyph-name="Eth" unicode="&#xd0;" horiz-adv-x="1587" 
d="M177 606h-151v200h151v559h475q385 0 588 -145q140 -101 207 -263q51 -124 51 -274q0 -224 -110 -388q-102 -151 -278.5 -223t-447.5 -72h-485v606zM426 606v-390h259q270 0 401 102q154 120 154 364q0 247 -157 366q-134 101 -400 101h-257v-343h379v-200h-379z" />
    <glyph glyph-name="Ntilde" unicode="&#xd1;" horiz-adv-x="1660" 
d="M177 0v1368h173l891 -958v955h241v-1381h-156l-908 995v-979h-241zM582 1527h-135q19 120 43 163q26 45 70 72t91 27q64 0 187 -54q93 -41 137 -41q79 0 102 92h135q-8 -99 -35 -151q-57 -111 -166 -111q-70 0 -201 57q-86 38 -128 38q-76 0 -100 -92z" />
    <glyph glyph-name="Ograve" unicode="&#xd2;" horiz-adv-x="1755" 
d="M878 1390q383 0 600 -217q188 -189 188 -490q0 -302 -188 -491q-120 -121 -297 -174q-146 -43 -301 -43q-388 0 -603 217q-188 190 -188 500q0 182 79 333q107 205 340 299q165 66 370 66zM878 1173q-261 0 -408 -151q-123 -126 -123 -333q0 -220 123 -346
q146 -151 410 -151q259 0 405 151q123 126 123 340q0 213 -123 339q-146 151 -407 151zM573 1758l218 107l249 -316l-154 -80z" />
    <glyph glyph-name="Oacute" unicode="&#xd3;" horiz-adv-x="1755" 
d="M878 1390q383 0 600 -217q188 -189 188 -490q0 -302 -188 -491q-120 -121 -297 -174q-146 -43 -301 -43q-388 0 -603 217q-188 190 -188 500q0 182 79 333q107 205 340 299q165 66 370 66zM878 1173q-261 0 -408 -151q-123 -126 -123 -333q0 -220 123 -346
q146 -151 410 -151q259 0 405 151q123 126 123 340q0 213 -123 339q-146 151 -407 151zM1196 1758l-313 -289l-154 80l250 316z" />
    <glyph glyph-name="Ocircumflex" unicode="&#xd4;" horiz-adv-x="1755" 
d="M878 1390q383 0 600 -217q188 -189 188 -490q0 -302 -188 -491q-120 -121 -297 -174q-146 -43 -301 -43q-388 0 -603 217q-188 190 -188 500q0 182 79 333q107 205 340 299q165 66 370 66zM878 1173q-261 0 -408 -151q-123 -126 -123 -333q0 -220 123 -346
q146 -151 410 -151q259 0 405 151q123 126 123 340q0 213 -123 339q-146 151 -407 151zM878 1630l-182 -161l-174 79l281 284h150l280 -284l-174 -79z" />
    <glyph glyph-name="Otilde" unicode="&#xd5;" horiz-adv-x="1755" 
d="M878 1390q383 0 600 -217q188 -189 188 -490q0 -302 -188 -491q-120 -121 -297 -174q-146 -43 -301 -43q-388 0 -603 217q-188 190 -188 500q0 182 79 333q107 205 340 299q165 66 370 66zM878 1173q-261 0 -408 -151q-123 -126 -123 -333q0 -220 123 -346
q146 -151 410 -151q259 0 405 151q123 126 123 340q0 213 -123 339q-146 151 -407 151zM630 1527h-134q18 120 43 163q25 45 69 72t91 27q64 0 187 -54q93 -41 138 -41q78 0 102 92h134q-8 -99 -35 -151q-57 -111 -165 -111q-71 0 -201 57q-87 38 -129 38q-75 0 -100 -92z
" />
    <glyph glyph-name="Odieresis" unicode="&#xd6;" horiz-adv-x="1755" 
d="M878 1390q383 0 600 -217q188 -189 188 -490q0 -302 -188 -491q-120 -121 -297 -174q-146 -43 -301 -43q-388 0 -603 217q-188 190 -188 500q0 182 79 333q107 205 340 299q165 66 370 66zM878 1173q-261 0 -408 -151q-123 -126 -123 -333q0 -220 123 -346
q146 -151 410 -151q259 0 405 151q123 126 123 340q0 213 -123 339q-146 151 -407 151zM635 1787q57 0 96 -38t39 -94q0 -55 -39.5 -93t-95.5 -38q-58 0 -97 38.5t-39 94.5q0 54 39.5 92t96.5 38zM1122 1787q57 0 96 -38t39 -93q0 -56 -39.5 -94t-95.5 -38q-58 0 -97 38.5
t-39 94.5q0 54 39.5 92t96.5 38z" />
    <glyph glyph-name="multiply" unicode="&#xd7;" 
d="M459 640l-295 252l142 154l312 -266l315 270l142 -154l-298 -256l295 -251l-142 -154l-312 266l-315 -270l-142 154z" />
    <glyph glyph-name="Oslash" unicode="&#xd8;" horiz-adv-x="1755" 
d="M1526 1117q140 -179 140 -435q0 -300 -188 -490q-216 -217 -606 -217q-152 0 -262.5 32t-239.5 113l-196 -168l-121 144l176 152q-140 186 -140 434q0 302 188 491q216 217 606 217q150 0 265.5 -33.5t237.5 -111.5l196 169l120 -145zM1334 952l-777 -670l98 -55
q61 -35 223 -35q264 0 407 151q123 128 123 337q0 78 -10 124t-38 99zM421 413l777 670q-13 8 -19 12q-59 35 -79 43q-82 35 -223 35q-263 0 -407 -151q-123 -128 -123 -337q0 -78 10 -124t38 -99z" />
    <glyph glyph-name="Ugrave" unicode="&#xd9;" horiz-adv-x="1567" 
d="M177 1365h250v-769q0 -133 11.5 -193.5t45.5 -103.5q85 -107 299 -107q234 0 313 127q25 40 34 97.5t9 179.5v769h250v-758q0 -183 -19 -277q-37 -175 -199 -270q-145 -85 -388 -85q-386 0 -531 216q-41 61 -58 154t-17 262v758zM487 1758l218 107l249 -316l-154 -80z
" />
    <glyph glyph-name="Uacute" unicode="&#xda;" horiz-adv-x="1567" 
d="M177 1365h250v-769q0 -133 11.5 -193.5t45.5 -103.5q85 -107 299 -107q234 0 313 127q25 40 34 97.5t9 179.5v769h250v-758q0 -183 -19 -277q-37 -175 -199 -270q-145 -85 -388 -85q-386 0 -531 216q-41 61 -58 154t-17 262v758zM1113 1758l-313 -289l-155 80l250 316z
" />
    <glyph glyph-name="Ucircumflex" unicode="&#xdb;" horiz-adv-x="1567" 
d="M177 1365h250v-769q0 -133 11.5 -193.5t45.5 -103.5q85 -107 299 -107q234 0 313 127q25 40 34 97.5t9 179.5v769h250v-758q0 -183 -19 -277q-37 -175 -199 -270q-145 -85 -388 -85q-386 0 -531 216q-41 61 -58 154t-17 262v758zM783 1630l-182 -161l-174 79l281 284h150
l281 -284l-174 -79z" />
    <glyph glyph-name="Udieresis" unicode="&#xdc;" horiz-adv-x="1567" 
d="M177 1365h250v-769q0 -133 11.5 -193.5t45.5 -103.5q85 -107 299 -107q234 0 313 127q25 40 34 97.5t9 179.5v769h250v-758q0 -183 -19 -277q-37 -175 -199 -270q-145 -85 -388 -85q-386 0 -531 216q-41 61 -58 154t-17 262v758zM540 1787q57 0 96 -38t39 -94
q0 -54 -39.5 -92.5t-95.5 -38.5q-58 0 -97 38.5t-39 94.5q0 54 39.5 92t96.5 38zM1027 1787q57 0 96 -38t39 -93q0 -56 -39.5 -94t-95.5 -38q-58 0 -97 38.5t-39 94.5q0 54 40 92t96 38z" />
    <glyph glyph-name="Yacute" unicode="&#xdd;" horiz-adv-x="1321" 
d="M536 0v539l-563 826h283l405 -585l405 585h282l-562 -826v-539h-250zM978 1758l-313 -289l-154 80l250 316z" />
    <glyph glyph-name="Thorn" unicode="&#xde;" horiz-adv-x="1251" 
d="M427 282v-282h-250v1365h250v-171h156q280 0 433 -101q92 -61 138 -164q39 -87 39 -189q0 -138 -69 -247q-132 -211 -541 -211h-156zM427 490h123q192 0 271 50q101 64 101 200q0 141 -119 204q-78 42 -253 42h-123v-496z" />
    <glyph glyph-name="germandbls" unicode="&#xdf;" horiz-adv-x="1289" 
d="M142 0v978q0 192 90 291q107 118 363 118q216 0 346 -89q134 -92 134 -256q0 -108 -65 -190q-26 -32 -93 -74q111 -30 176 -86q122 -103 122 -310q0 -247 -200 -336q-104 -46 -351 -46h-141v214h135q176 0 243 42q79 51 79 160q0 136 -121 196q-71 36 -212 36h-32v189h36
q90 0 141.5 45.5t51.5 125.5q0 95 -61 144q-61 50 -171 50q-124 0 -180 -59.5t-56 -192.5v-950h-234z" />
    <glyph glyph-name="agrave" unicode="&#xe0;" horiz-adv-x="1290" 
d="M962 0l-16 105q-137 -129 -380 -129q-236 0 -363 124q-130 127 -130 354t130 354q127 124 361 124q230 0 362 -114l12 90h211v-908h-187zM614 730q-150 0 -229 -80q-71 -71 -71 -196q0 -124 71 -196q78 -80 230 -80q151 0 229 80q71 72 71 192q0 129 -71 200
q-79 80 -230 80zM340 1313l218 107l250 -316l-154 -80z" />
    <glyph glyph-name="aacute" unicode="&#xe1;" horiz-adv-x="1290" 
d="M962 0l-16 105q-137 -129 -380 -129q-236 0 -363 124q-130 127 -130 354t130 354q127 124 361 124q230 0 362 -114l12 90h211v-908h-187zM614 730q-150 0 -229 -80q-71 -71 -71 -196q0 -124 71 -196q78 -80 230 -80q151 0 229 80q71 72 71 192q0 129 -71 200
q-79 80 -230 80zM964 1313l-313 -289l-154 80l249 316z" />
    <glyph glyph-name="acircumflex" unicode="&#xe2;" horiz-adv-x="1290" 
d="M962 0l-16 105q-137 -129 -380 -129q-236 0 -363 124q-130 127 -130 354t130 354q127 124 361 124q230 0 362 -114l12 90h211v-908h-187zM614 730q-150 0 -229 -80q-71 -71 -71 -196q0 -124 71 -196q78 -80 230 -80q151 0 229 80q71 72 71 192q0 129 -71 200
q-79 80 -230 80zM642 1194l-182 -169l-172 79l280 283h149l279 -283l-172 -79z" />
    <glyph glyph-name="atilde" unicode="&#xe3;" horiz-adv-x="1290" 
d="M962 0l-16 105q-137 -129 -380 -129q-236 0 -363 124q-130 127 -130 354t130 354q127 124 361 124q230 0 362 -114l12 90h211v-908h-187zM614 730q-150 0 -229 -80q-71 -71 -71 -196q0 -124 71 -196q78 -80 230 -80q151 0 229 80q71 72 71 192q0 129 -71 200
q-79 80 -230 80zM388 1078h-135q19 121 43 163q25 45 69 72t91 27q65 0 188 -54q92 -41 137 -41q79 0 102 92h135q-8 -99 -35 -151q-57 -111 -166 -111q-72 0 -201 57q-86 38 -128 38q-76 0 -100 -92z" />
    <glyph glyph-name="adieresis" unicode="&#xe4;" horiz-adv-x="1290" 
d="M962 0l-16 105q-137 -129 -380 -129q-236 0 -363 124q-130 127 -130 354t130 354q127 124 361 124q230 0 362 -114l12 90h211v-908h-187zM614 730q-150 0 -229 -80q-71 -71 -71 -196q0 -124 71 -196q78 -80 230 -80q151 0 229 80q71 72 71 192q0 129 -71 200
q-79 80 -230 80zM432 1330q56 0 95.5 -38t39.5 -94q0 -55 -39.5 -93t-95.5 -38q-58 0 -97 38.5t-39 94.5q0 54 39.5 92t96.5 38zM860 1330q57 0 96 -38t39 -94q0 -55 -39 -93t-96 -38q-58 0 -97 38.5t-39 94.5q0 54 39.5 92t96.5 38z" />
    <glyph glyph-name="aring" unicode="&#xe5;" horiz-adv-x="1290" 
d="M962 0l-16 105q-137 -129 -380 -129q-236 0 -363 124q-130 127 -130 354t130 354q127 124 361 124q230 0 362 -114l12 90h211v-908h-187zM614 730q-150 0 -229 -80q-71 -71 -71 -196q0 -124 71 -196q78 -80 230 -80q151 0 229 80q71 72 71 192q0 129 -71 200
q-79 80 -230 80zM632 1435q97 0 161 -60q65 -61 65 -156q0 -94 -65 -156q-63 -60 -160 -60q-98 0 -162 60q-65 62 -65 159q0 93 65 153q66 60 161 60zM632 1323q-44 0 -72.5 -28.5t-28.5 -73.5q0 -48 28 -77t73 -29t73 29t28 76q0 46 -28 74.5t-73 28.5z" />
    <glyph glyph-name="ae" unicode="&#xe6;" horiz-adv-x="2047" 
d="M899 549q-2 52 -18 88q-54 114 -302 114q-101 0 -168.5 -20.5t-150.5 -76.5l-113 145q65 48 121 73q132 59 317 59q213 0 338 -69q52 -29 115 -93q53 54 93 81q123 81 336 81q266 0 396 -128q124 -120 124 -330q0 -19 -3 -86h-825q6 -81 54 -133q85 -90 258 -90
q103 0 168 26.5t101 82.5l224 -40q-32 -88 -98 -142q-141 -115 -379 -115q-190 0 -318 66q-53 27 -124 97q-48 -74 -114 -106q-118 -57 -363 -57q-250 0 -370 65q-59 32 -92.5 90.5t-33.5 130.5q0 146 118 216.5t364 70.5h345zM899 387h-323q-144 0 -195 -15
q-88 -25 -88 -103q0 -66 63 -91.5t226 -25.5q211 0 275 56q25 21 33.5 49t8.5 86v44zM1164 549h597q-11 79 -44 117q-74 85 -253 85q-278 0 -300 -202z" />
    <glyph glyph-name="ccedilla" unicode="&#xe7;" horiz-adv-x="1056" 
d="M904 281l145 -168q-60 -53 -121 -81q-123 -56 -302 -56q-258 0 -405 122q-148 124 -148 353q0 232 151 359q145 121 391 121q275 0 432 -137l-135 -162q-114 98 -282 98q-157 0 -238 -76q-78 -74 -78 -204q0 -125 75 -197q78 -75 229 -75q90 0 156 23.5t130 79.5z
M494 -87l217 -62l-178 -318l-171 50z" />
    <glyph glyph-name="egrave" unicode="&#xe8;" horiz-adv-x="1190" 
d="M1128 387h-825q7 -83 55 -133q84 -90 256 -90q104 0 169.5 26.5t99.5 82.5l224 -40q-32 -88 -97 -142q-140 -115 -387 -115q-259 0 -404 124q-146 125 -146 355q0 229 144 355q138 121 394 121q266 0 396 -128q124 -120 124 -330q0 -26 -3 -86zM904 549q-10 78 -44 117
q-73 85 -253 85q-185 0 -258 -96q-34 -44 -41 -106h596zM311 1313l218 107l249 -316l-154 -80z" />
    <glyph glyph-name="eacute" unicode="&#xe9;" horiz-adv-x="1190" 
d="M1128 387h-825q7 -83 55 -133q84 -90 256 -90q104 0 169.5 26.5t99.5 82.5l224 -40q-32 -88 -97 -142q-140 -115 -387 -115q-259 0 -404 124q-146 125 -146 355q0 229 144 355q138 121 394 121q266 0 396 -128q124 -120 124 -330q0 -26 -3 -86zM904 549q-10 78 -44 117
q-73 85 -253 85q-185 0 -258 -96q-34 -44 -41 -106h596zM926 1313l-313 -289l-154 80l250 316z" />
    <glyph glyph-name="ecircumflex" unicode="&#xea;" horiz-adv-x="1190" 
d="M1128 387h-825q7 -83 55 -133q84 -90 256 -90q104 0 169.5 26.5t99.5 82.5l224 -40q-32 -88 -97 -142q-140 -115 -387 -115q-259 0 -404 124q-146 125 -146 355q0 229 144 355q138 121 394 121q266 0 396 -128q124 -120 124 -330q0 -26 -3 -86zM904 549q-10 78 -44 117
q-73 85 -253 85q-185 0 -258 -96q-34 -44 -41 -106h596zM610 1194l-181 -169l-173 79l280 283h149l280 -283l-173 -79z" />
    <glyph glyph-name="edieresis" unicode="&#xeb;" horiz-adv-x="1190" 
d="M1128 387h-825q7 -83 55 -133q84 -90 256 -90q104 0 169.5 26.5t99.5 82.5l224 -40q-32 -88 -97 -142q-140 -115 -387 -115q-259 0 -404 124q-146 125 -146 355q0 229 144 355q138 121 394 121q266 0 396 -128q124 -120 124 -330q0 -26 -3 -86zM904 549q-10 78 -44 117
q-73 85 -253 85q-185 0 -258 -96q-34 -44 -41 -106h596zM409 1330q56 0 95.5 -38t39.5 -94q0 -55 -39.5 -93t-95.5 -38q-58 0 -97 38t-39 95q0 54 39.5 92t96.5 38zM837 1330q56 0 95.5 -38t39.5 -93q0 -56 -39 -94t-96 -38q-58 0 -97 38.5t-39 94.5q0 54 39.5 92t96.5 38z
" />
    <glyph glyph-name="igrave" unicode="&#xec;" horiz-adv-x="518" 
d="M142 0v908h234v-908h-234zM-46 1313l218 107l249 -316l-154 -80z" />
    <glyph glyph-name="iacute" unicode="&#xed;" horiz-adv-x="518" 
d="M142 0v908h234v-908h-234zM577 1313l-313 -289l-154 80l249 316z" />
    <glyph glyph-name="icircumflex" unicode="&#xee;" horiz-adv-x="517" 
d="M141 0v908h234v-908h-234zM258 1194l-182 -169l-172 79l280 283h149l280 -283l-173 -79z" />
    <glyph glyph-name="idieresis" unicode="&#xef;" horiz-adv-x="517" 
d="M141 0v908h234v-908h-234zM45 1330q56 0 95.5 -38t39.5 -93t-39.5 -93.5t-95.5 -38.5q-58 0 -97 38.5t-39 94.5q0 54 39.5 92t96.5 38zM473 1330q56 0 95.5 -38t39.5 -94q0 -55 -39.5 -93t-95.5 -38q-58 0 -97 38t-39 95q0 54 39.5 92t96.5 38z" />
    <glyph glyph-name="eth" unicode="&#xf0;" horiz-adv-x="1249" 
d="M842 861q-49 145 -187 233l-203 -115l-72 104l151 85q-54 26 -84 34q-96 28 -117 35l62 165q188 -38 340 -120l191 107l70 -104l-143 -81q117 -88 196 -220q63 -106 98.5 -240.5t35.5 -268.5q0 -247 -153 -375q-148 -124 -402 -124t-402 124q-150 125 -150 355
q0 225 143 349q138 120 359 120q81 0 134 -12.5t133 -50.5zM624 729q-151 0 -234 -79q-76 -71 -76 -197q0 -124 76 -196q83 -79 235 -79q153 0 235 79q76 73 76 193q0 130 -76 200q-84 79 -236 79z" />
    <glyph glyph-name="ntilde" unicode="&#xf1;" horiz-adv-x="1258" 
d="M142 0v908h211l12 -81q128 105 346 105q258 0 358 -154q31 -47 44 -115t13 -183v-480h-234v455q0 128 -38 185q-58 89 -209 89q-161 0 -225 -87q-44 -60 -44 -215v-427h-234zM382 1078h-135q19 121 43 163q25 45 69 72t91 27q65 0 188 -54q92 -41 137 -41q79 0 102 92
h135q-8 -99 -35 -151q-57 -111 -166 -111q-72 0 -201 57q-86 38 -128 38q-76 0 -100 -92z" />
    <glyph glyph-name="ograve" unicode="&#xf2;" horiz-adv-x="1249" 
d="M625 931q253 0 403 -124q149 -124 149 -353t-149 -354q-149 -124 -401 -124q-256 0 -404 124q-150 125 -150 361q0 222 150 346q149 124 402 124zM626 729q-152 0 -236 -79q-76 -71 -76 -193q0 -129 76 -200q84 -79 237 -79q152 0 234 79q76 73 76 196q0 126 -76 197
q-84 79 -235 79zM320 1313l218 107l249 -316l-154 -80z" />
    <glyph glyph-name="oacute" unicode="&#xf3;" horiz-adv-x="1249" 
d="M625 931q253 0 403 -124q149 -124 149 -353t-149 -354q-149 -124 -401 -124q-256 0 -404 124q-150 125 -150 361q0 222 150 346q149 124 402 124zM626 729q-152 0 -236 -79q-76 -71 -76 -193q0 -129 76 -200q84 -79 237 -79q152 0 234 79q76 73 76 196q0 126 -76 197
q-84 79 -235 79zM943 1313l-313 -289l-154 80l249 316z" />
    <glyph glyph-name="ocircumflex" unicode="&#xf4;" horiz-adv-x="1249" 
d="M625 931q253 0 403 -124q149 -124 149 -353t-149 -354q-149 -124 -401 -124q-256 0 -404 124q-150 125 -150 361q0 222 150 346q149 124 402 124zM626 729q-152 0 -236 -79q-76 -71 -76 -193q0 -129 76 -200q84 -79 237 -79q152 0 234 79q76 73 76 196q0 126 -76 197
q-84 79 -235 79zM625 1194l-182 -169l-172 79l279 283h149l280 -283l-172 -79z" />
    <glyph glyph-name="otilde" unicode="&#xf5;" horiz-adv-x="1249" 
d="M625 931q253 0 403 -124q149 -124 149 -353t-149 -354q-149 -124 -401 -124q-256 0 -404 124q-150 125 -150 361q0 222 150 346q149 124 402 124zM626 729q-152 0 -236 -79q-76 -71 -76 -193q0 -129 76 -200q84 -79 237 -79q152 0 234 79q76 73 76 196q0 126 -76 197
q-84 79 -235 79zM377 1078h-134q18 120 43 163q25 45 69 72t91 27q64 0 187 -54q93 -41 138 -41q78 0 102 92h134q-8 -99 -35 -151q-56 -111 -165 -111q-73 0 -201 57q-86 38 -129 38q-75 0 -100 -92z" />
    <glyph glyph-name="odieresis" unicode="&#xf6;" horiz-adv-x="1249" 
d="M625 931q253 0 403 -124q149 -124 149 -353t-149 -354q-149 -124 -401 -124q-256 0 -404 124q-150 125 -150 361q0 222 150 346q149 124 402 124zM626 729q-152 0 -236 -79q-76 -71 -76 -193q0 -129 76 -200q84 -79 237 -79q152 0 234 79q76 73 76 196q0 126 -76 197
q-84 79 -235 79zM411 1330q57 0 96 -38t39 -94q0 -55 -39.5 -93t-95.5 -38q-58 0 -97 38.5t-39 94.5q0 54 39.5 92t96.5 38zM840 1330q56 0 95.5 -38t39.5 -94q0 -55 -39.5 -93t-95.5 -38q-58 0 -97 38t-39 95q0 54 39.5 92t96.5 38z" />
    <glyph glyph-name="divide" unicode="&#xf7;" 
d="M639 1087q61 0 97 -33.5t36 -91.5t-36 -91.5t-96 -33.5q-63 0 -98.5 34t-35.5 93q0 56 36.5 89.5t96.5 33.5zM639 444q61 0 97 -34t36 -91t-36 -91t-96 -34q-63 0 -98.5 34t-35.5 93q0 56 36.5 89.5t96.5 33.5zM142 535v208h994v-208h-994z" />
    <glyph glyph-name="oslash" unicode="&#xf8;" horiz-adv-x="1249" 
d="M1096 732q80 -110 80 -281q0 -226 -149 -351q-149 -124 -402 -124q-210 0 -351 86l-143 -117l-101 129l123 100q-80 111 -80 281q0 227 150 352q148 124 401 124q212 0 351 -86l144 117l100 -129zM916 585l-465 -379q75 -35 175 -35q155 0 239 80q78 76 78 201
q0 76 -27 133zM334 322l464 379q-73 35 -175 35q-152 0 -238 -80q-78 -74 -78 -202q0 -72 27 -132z" />
    <glyph glyph-name="ugrave" unicode="&#xf9;" horiz-adv-x="1223" 
d="M132 908h234v-465q0 -126 32 -180q49 -84 197 -84q151 0 211 87q41 60 41 215v427h234v-908h-211l-12 83q-86 -63 -155 -85t-178 -22q-246 0 -340 150q-29 46 -41 112t-12 180v490zM320 1313l218 107l250 -316l-155 -80z" />
    <glyph glyph-name="uacute" unicode="&#xfa;" horiz-adv-x="1223" 
d="M132 908h234v-465q0 -126 32 -180q49 -84 197 -84q151 0 211 87q41 60 41 215v427h234v-908h-211l-12 83q-86 -63 -155 -85t-178 -22q-246 0 -340 150q-29 46 -41 112t-12 180v490zM930 1313l-313 -289l-154 80l249 316z" />
    <glyph glyph-name="ucircumflex" unicode="&#xfb;" horiz-adv-x="1223" 
d="M132 908h234v-465q0 -126 32 -180q49 -84 197 -84q151 0 211 87q41 60 41 215v427h234v-908h-211l-12 83q-86 -63 -155 -85t-178 -22q-246 0 -340 150q-29 46 -41 112t-12 180v490zM612 1194l-182 -169l-173 79l280 283h149l280 -283l-173 -79z" />
    <glyph glyph-name="udieresis" unicode="&#xfc;" horiz-adv-x="1223" 
d="M132 908h234v-465q0 -126 32 -180q49 -84 197 -84q151 0 211 87q41 60 41 215v427h234v-908h-211l-12 83q-86 -63 -155 -85t-178 -22q-246 0 -340 150q-29 46 -41 112t-12 180v490zM398 1330q57 0 96 -38t39 -94q0 -55 -39.5 -93t-95.5 -38q-58 0 -97 38.5t-39 94.5
q0 54 39.5 92t96.5 38zM826 1330q57 0 96 -38t39 -94q0 -55 -39.5 -93t-95.5 -38q-58 0 -97 38.5t-39 94.5q0 54 39.5 92t96.5 38z" />
    <glyph glyph-name="yacute" unicode="&#xfd;" horiz-adv-x="1047" 
d="M404 8l-414 900h262l266 -611l277 611h257l-663 -1386h-247zM853 1313l-313 -289l-154 80l249 316z" />
    <glyph glyph-name="thorn" unicode="&#xfe;" horiz-adv-x="1292" 
d="M377 87v-564h-234v1842h234v-540q57 50 149.5 78.5t197.5 28.5q240 0 365 -124q130 -129 130 -354q0 -226 -130 -355q-125 -124 -365 -124q-221 0 -347 112zM677 730q-151 0 -229 -80q-71 -72 -71 -193q0 -128 71 -200q78 -80 230 -80q150 0 229 80q71 72 71 196
q0 125 -71 197q-79 80 -230 80z" />
    <glyph glyph-name="ydieresis" unicode="&#xff;" horiz-adv-x="1047" 
d="M404 8l-414 900h262l266 -611l277 611h257l-663 -1386h-247zM310 1330q56 0 95.5 -38.5t39.5 -93.5q0 -54 -39.5 -92.5t-95.5 -38.5q-58 0 -97 38.5t-39 94.5q0 54 40 92t96 38zM738 1330q57 0 96 -38t39 -94q0 -55 -39.5 -93t-95.5 -38q-58 0 -97 38.5t-39 94.5
q0 54 39.5 92t96.5 38z" />
    <glyph glyph-name="Amacron" unicode="&#x100;" horiz-adv-x="1544" 
d="M1143 294h-743l-139 -294h-264l684 1382h182l683 -1382h-264zM1057 483l-285 607l-286 -607h571zM407 1563v183h729v-183h-729z" />
    <glyph glyph-name="amacron" unicode="&#x101;" horiz-adv-x="1290" 
d="M962 0l-16 105q-137 -129 -380 -129q-236 0 -363 124q-130 127 -130 354t130 354q127 124 361 124q230 0 362 -114l12 90h211v-908h-187zM614 730q-150 0 -229 -80q-71 -71 -71 -196q0 -124 71 -196q78 -80 230 -80q151 0 229 80q71 72 71 192q0 129 -71 200
q-79 80 -230 80zM281 1112v183h729v-183h-729z" />
    <glyph glyph-name="Abreve" unicode="&#x102;" horiz-adv-x="1544" 
d="M1143 294h-743l-139 -294h-264l684 1382h182l683 -1382h-264zM1057 483l-285 607l-286 -607h571zM420 1798h163q7 -81 29 -105q41 -44 160 -44q128 0 165 52q18 25 24 97h163q-2 -121 -48 -187q-84 -121 -304 -121q-238 0 -318 141q-33 60 -34 167z" />
    <glyph glyph-name="abreve" unicode="&#x103;" horiz-adv-x="1290" 
d="M962 0l-16 105q-137 -129 -380 -129q-236 0 -363 124q-130 127 -130 354t130 354q127 124 361 124q230 0 362 -114l12 90h211v-908h-187zM614 730q-150 0 -229 -80q-71 -71 -71 -196q0 -124 71 -196q78 -80 230 -80q151 0 229 80q71 72 71 192q0 129 -71 200
q-79 80 -230 80zM280 1342h163q7 -81 30 -105q40 -44 159 -44q129 0 166 52q17 25 23 97h163q-1 -121 -47 -187q-85 -121 -305 -121q-238 0 -317 141q-33 59 -35 167z" />
    <glyph glyph-name="Aogonek" unicode="&#x104;" horiz-adv-x="1544" 
d="M1143 294h-743l-139 -294h-264l684 1382h182l683 -1382q-142 -86 -181.5 -123t-39.5 -84q0 -66 80 -66q42 0 109 26l53 -138q-105 -43 -188 -43q-113 0 -180.5 52t-67.5 139q0 114 121 185q23 13 124 52h-94zM1057 483l-285 607l-286 -607h571z" />
    <glyph glyph-name="aogonek" unicode="&#x105;" horiz-adv-x="1290" 
d="M962 0l-16 105q-137 -129 -380 -129q-236 0 -363 124q-130 127 -130 354t130 354q127 124 361 124q230 0 362 -114l12 90h211v-908q-134 -80 -177.5 -120.5t-43.5 -86.5q0 -66 80 -66q42 0 109 26l53 -138q-106 -43 -188 -43q-113 0 -180.5 52t-67.5 139q0 83 55 136.5
t190 100.5h-17zM614 730q-150 0 -229 -80q-71 -71 -71 -196q0 -124 71 -196q78 -80 230 -80q151 0 229 80q71 72 71 192q0 129 -71 200q-79 80 -230 80z" />
    <glyph glyph-name="Cacute" unicode="&#x106;" horiz-adv-x="1464" 
d="M1295 364l175 -150q-92 -90 -166 -134q-179 -105 -452 -105q-359 0 -563 181q-200 175 -200 520q0 333 188 517q201 197 560 197q197 0 344 -58t269 -183l-164 -154q-86 94 -188.5 136t-243.5 42q-255 0 -388 -143q-119 -128 -119 -357q0 -218 111 -337
q135 -145 409 -145q278 0 428 173zM1107 1758l-313 -289l-154 80l249 316z" />
    <glyph glyph-name="cacute" unicode="&#x107;" horiz-adv-x="1056" 
d="M904 281l145 -168q-60 -53 -121 -81q-123 -56 -302 -56q-258 0 -405 122q-148 124 -148 353q0 232 151 359q145 121 391 121q275 0 432 -137l-135 -162q-114 98 -282 98q-157 0 -238 -76q-78 -74 -78 -204q0 -125 75 -197q78 -75 229 -75q90 0 156 23.5t130 79.5z
M915 1313l-313 -289l-155 80l250 316z" />
    <glyph glyph-name="Ccircumflex" unicode="&#x108;" horiz-adv-x="1464" 
d="M1295 364l175 -150q-92 -90 -166 -134q-179 -105 -452 -105q-359 0 -563 181q-200 175 -200 520q0 333 188 517q201 197 560 197q197 0 344 -58t269 -183l-164 -154q-86 94 -188.5 136t-243.5 42q-255 0 -388 -143q-119 -128 -119 -357q0 -218 111 -337
q135 -145 409 -145q278 0 428 173zM816 1630l-182 -161l-174 79l281 284h150l281 -284l-174 -79z" />
    <glyph glyph-name="ccircumflex" unicode="&#x109;" horiz-adv-x="1056" 
d="M904 281l145 -168q-60 -53 -121 -81q-123 -56 -302 -56q-258 0 -405 122q-148 124 -148 353q0 232 151 359q145 121 391 121q275 0 432 -137l-135 -162q-114 98 -282 98q-157 0 -238 -76q-78 -74 -78 -204q0 -125 75 -197q78 -75 229 -75q90 0 156 23.5t130 79.5z
M588 1194l-181 -169l-173 79l280 283h149l280 -283l-173 -79z" />
    <glyph glyph-name="Cdotaccent" unicode="&#x10a;" horiz-adv-x="1464" 
d="M1295 364l175 -150q-92 -90 -166 -134q-179 -105 -452 -105q-359 0 -563 181q-200 175 -200 520q0 333 188 517q201 197 560 197q197 0 344 -58t269 -183l-164 -154q-86 94 -188.5 136t-243.5 42q-255 0 -388 -143q-119 -128 -119 -357q0 -218 111 -337
q135 -145 409 -145q278 0 428 173zM827 1791q66 0 105 -37t39 -99t-39 -99t-104 -37q-67 0 -106 37t-39 101q0 61 39.5 97.5t104.5 36.5z" />
    <glyph glyph-name="cdotaccent" unicode="&#x10b;" horiz-adv-x="1056" 
d="M904 281l145 -168q-60 -53 -121 -81q-123 -56 -302 -56q-258 0 -405 122q-148 124 -148 353q0 232 151 359q145 121 391 121q275 0 432 -137l-135 -162q-114 98 -282 98q-157 0 -238 -76q-78 -74 -78 -204q0 -125 75 -197q78 -75 229 -75q90 0 156 23.5t130 79.5z
M617 1334q65 0 104 -37t39 -99t-39 -99t-104 -37q-67 0 -105.5 37t-38.5 101q0 61 39.5 97.5t104.5 36.5z" />
    <glyph glyph-name="Ccaron" unicode="&#x10c;" horiz-adv-x="1464" 
d="M1295 364l175 -150q-92 -90 -166 -134q-179 -105 -452 -105q-359 0 -563 181q-200 175 -200 520q0 333 188 517q201 197 560 197q197 0 344 -58t269 -183l-164 -154q-86 94 -188.5 136t-243.5 42q-255 0 -388 -143q-119 -128 -119 -357q0 -218 111 -337
q135 -145 409 -145q278 0 428 173zM830 1684l181 160l174 -78l-280 -284h-150l-281 284l174 78z" />
    <glyph glyph-name="ccaron" unicode="&#x10d;" horiz-adv-x="1056" 
d="M904 281l145 -168q-60 -53 -121 -81q-123 -56 -302 -56q-258 0 -405 122q-148 124 -148 353q0 232 151 359q145 121 391 121q275 0 432 -137l-135 -162q-114 98 -282 98q-157 0 -238 -76q-78 -74 -78 -204q0 -125 75 -197q78 -75 229 -75q90 0 156 23.5t130 79.5z
M617 1237l182 169l172 -78l-280 -283h-149l-280 283l173 78z" />
    <glyph glyph-name="Dcaron" unicode="&#x10e;" horiz-adv-x="1588" 
d="M177 0v1365h476q385 0 588 -145q140 -100 207 -264q51 -123 51 -274q0 -223 -110 -387q-103 -152 -279.5 -223.5t-447.5 -71.5h-485zM426 216h258q272 0 403 102q154 119 154 364q0 246 -157 365q-134 102 -401 102h-257v-933zM700 1684l182 160l174 -78l-280 -284h-150
l-281 284l174 78z" />
    <glyph glyph-name="dcaron" unicode="&#x10f;" horiz-adv-x="1502" 
d="M962 0l-16 105q-63 -62 -161 -95.5t-218 -33.5q-238 0 -363 124q-130 129 -130 354t130 354q125 124 363 124q155 0 279 -60q45 -22 69 -48v541h235v-1365h-188zM614 730q-150 0 -228 -80q-71 -72 -71 -196t71 -196q78 -80 229 -80t229 80q71 72 71 192q0 128 -71 200
q-78 80 -230 80zM1364 1454l200 -38l-146 -545l-164 43z" />
    <glyph glyph-name="Dcroat" unicode="&#x110;" horiz-adv-x="1587" 
d="M177 606h-151v200h151v559h475q385 0 588 -145q140 -101 207 -263q51 -124 51 -274q0 -224 -110 -388q-102 -151 -278.5 -223t-447.5 -72h-485v606zM426 606v-390h259q270 0 401 102q154 120 154 364q0 247 -157 366q-134 101 -400 101h-257v-343h379v-200h-379z" />
    <glyph glyph-name="dcroat" unicode="&#x111;" horiz-adv-x="1290" 
d="M962 0l-16 105q-63 -62 -161.5 -95.5t-218.5 -33.5q-236 0 -363 124q-130 127 -130 354t130 354q127 124 364 124q109 0 207.5 -30.5t140.5 -77.5v215h-302v168h302v158h235v-158h126v-168h-126v-1039h-188zM613 730q-149 0 -228 -80q-71 -71 -71 -196q0 -124 71 -196
q78 -80 229 -80q152 0 230 80q71 72 71 192q0 128 -71 200q-79 80 -231 80z" />
    <glyph glyph-name="Emacron" unicode="&#x112;" horiz-adv-x="1220" 
d="M177 0v1365h908v-216h-664v-335h583v-216h-583v-382h693v-216h-937zM258 1563v183h729v-183h-729z" />
    <glyph glyph-name="emacron" unicode="&#x113;" horiz-adv-x="1190" 
d="M1128 387h-825q7 -83 55 -133q84 -90 256 -90q104 0 169.5 26.5t99.5 82.5l224 -40q-32 -88 -97 -142q-140 -115 -387 -115q-259 0 -404 124q-146 125 -146 355q0 229 144 355q138 121 394 121q266 0 396 -128q124 -120 124 -330q0 -26 -3 -86zM904 549q-10 78 -44 117
q-73 85 -253 85q-185 0 -258 -96q-34 -44 -41 -106h596zM231 1112v183h729v-183h-729z" />
    <glyph glyph-name="Ebreve" unicode="&#x114;" horiz-adv-x="1220" 
d="M177 0v1365h908v-216h-664v-335h583v-216h-583v-382h693v-216h-937zM282 1798h164q7 -81 29 -105q40 -44 159 -44q129 0 166 52q18 25 23 97h164q-2 -120 -48 -187q-84 -121 -305 -121q-238 0 -317 141q-33 60 -35 167z" />
    <glyph glyph-name="ebreve" unicode="&#x115;" horiz-adv-x="1190" 
d="M1128 387h-825q7 -83 55 -133q84 -90 256 -90q104 0 169.5 26.5t99.5 82.5l224 -40q-32 -88 -97 -142q-140 -115 -387 -115q-259 0 -404 124q-146 125 -146 355q0 229 144 355q138 121 394 121q266 0 396 -128q124 -120 124 -330q0 -26 -3 -86zM904 549q-10 78 -44 117
q-73 85 -253 85q-185 0 -258 -96q-34 -44 -41 -106h596zM256 1342h163q7 -81 30 -105q40 -44 159 -44q129 0 166 52q17 25 23 97h163q-1 -121 -47 -187q-85 -121 -305 -121q-238 0 -317 141q-34 60 -35 167z" />
    <glyph glyph-name="Edotaccent" unicode="&#x116;" horiz-adv-x="1220" 
d="M177 0v1365h908v-216h-664v-335h583v-216h-583v-382h693v-216h-937zM660 1791q65 0 104 -37t39 -99t-39 -99t-104 -37q-67 0 -105.5 37t-38.5 101q0 61 39.5 97.5t104.5 36.5z" />
    <glyph glyph-name="edotaccent" unicode="&#x117;" horiz-adv-x="1190" 
d="M1128 387h-825q7 -83 55 -133q84 -90 256 -90q104 0 169.5 26.5t99.5 82.5l224 -40q-32 -88 -97 -142q-140 -115 -387 -115q-259 0 -404 124q-146 125 -146 355q0 229 144 355q138 121 394 121q266 0 396 -128q124 -120 124 -330q0 -26 -3 -86zM904 549q-10 78 -44 117
q-73 85 -253 85q-185 0 -258 -96q-34 -44 -41 -106h596zM606 1334q65 0 104 -37t39 -99t-39 -99t-104 -37q-67 0 -105.5 37t-38.5 101q0 60 39.5 97t104.5 37z" />
    <glyph glyph-name="Eogonek" unicode="&#x118;" horiz-adv-x="1220" 
d="M177 0v1365h908v-216h-664v-335h583v-216h-583v-382h693v-216q-131 -77 -176 -119t-45 -88q0 -66 80 -66q42 0 108 26l54 -138q-107 -43 -189 -43q-113 0 -180 52t-67 139q0 114 120 185q24 14 124 52h-766z" />
    <glyph glyph-name="eogonek" unicode="&#x119;" horiz-adv-x="1190" 
d="M1128 387h-825q7 -83 55 -133q84 -91 256 -91q104 0 169.5 27t99.5 83l224 -40q-63 -173 -272 -232q-114 -72 -157 -117t-43 -90q0 -67 80 -67q42 0 109 26l53 -138q-106 -43 -188 -43q-114 0 -181 52t-67 140q0 139 154 213q-189 5 -311 76q-211 124 -211 402
q0 229 144 355q138 121 394 121q266 0 396 -128q124 -120 124 -330q0 -26 -3 -86zM904 549q-10 78 -44 117q-73 85 -253 85q-185 0 -258 -96q-34 -44 -41 -106h596z" />
    <glyph glyph-name="Ecaron" unicode="&#x11a;" horiz-adv-x="1220" 
d="M177 0v1365h908v-216h-664v-335h583v-216h-583v-382h693v-216h-937zM662 1684l181 160l174 -78l-280 -284h-150l-281 284l174 78z" />
    <glyph glyph-name="ecaron" unicode="&#x11b;" horiz-adv-x="1190" 
d="M1128 387h-825q7 -83 55 -133q84 -90 256 -90q104 0 169.5 26.5t99.5 82.5l224 -40q-32 -88 -97 -142q-140 -115 -387 -115q-259 0 -404 124q-146 125 -146 355q0 229 144 355q138 121 394 121q266 0 396 -128q124 -120 124 -330q0 -26 -3 -86zM904 549q-10 78 -44 117
q-73 85 -253 85q-185 0 -258 -96q-34 -44 -41 -106h596zM602 1237l182 169l173 -78l-280 -283h-149l-280 283l172 78z" />
    <glyph glyph-name="Gcircumflex" unicode="&#x11c;" horiz-adv-x="1679" 
d="M890 551v195h701v-118q0 -142 -25 -239q-52 -205 -245 -314q-179 -100 -456 -100q-363 0 -570 182q-206 182 -206 522q0 326 192 512q206 199 565 199q387 0 629 -241l-164 -154q-170 177 -449 177q-259 0 -394 -144q-121 -129 -121 -352q0 -214 116 -339
q136 -146 413 -146q221 0 343.5 90.5t122.5 253.5v16h-452zM840 1630l-182 -161l-174 79l281 284h150l280 -284l-173 -79z" />
    <glyph glyph-name="gcircumflex" unicode="&#x11d;" horiz-adv-x="1290" 
d="M926 116q-44 -56 -144.5 -91t-216.5 -35q-236 0 -363 122q-130 126 -130 349q0 224 130 349q127 122 361 122q230 0 361 -113l12 89h212v-827q0 -153 -21 -246.5t-68 -153.5q-74 -93 -209 -140q-118 -40 -266 -40q-315 0 -468 214l187 109q71 -127 281 -127
q221 0 302 123q41 62 41 194zM613 730q-149 0 -229 -78q-71 -69 -71 -191t71 -191q80 -78 230 -78q151 0 229 78q71 70 71 187q0 125 -71 195q-79 78 -230 78zM645 1194l-182 -169l-172 79l280 283h149l279 -283l-172 -79z" />
    <glyph glyph-name="Gbreve" unicode="&#x11e;" horiz-adv-x="1679" 
d="M890 551v195h701v-118q0 -142 -25 -239q-52 -205 -245 -314q-179 -100 -456 -100q-363 0 -570 182q-206 182 -206 522q0 326 192 512q206 199 565 199q387 0 629 -241l-164 -154q-170 177 -449 177q-259 0 -394 -144q-121 -129 -121 -352q0 -214 116 -339
q136 -146 413 -146q221 0 343.5 90.5t122.5 253.5v16h-452zM488 1798h163q7 -80 30 -105q40 -44 159 -44q128 0 165 52q18 25 24 97h163q-2 -121 -47 -187q-85 -121 -305 -121q-238 0 -317 141q-33 59 -35 167z" />
    <glyph glyph-name="gbreve" unicode="&#x11f;" horiz-adv-x="1290" 
d="M926 116q-44 -56 -144.5 -91t-216.5 -35q-236 0 -363 122q-130 126 -130 349q0 224 130 349q127 122 361 122q230 0 361 -113l12 89h212v-827q0 -153 -21 -246.5t-68 -153.5q-74 -93 -209 -140q-118 -40 -266 -40q-315 0 -468 214l187 109q71 -127 281 -127
q221 0 302 123q41 62 41 194zM613 730q-149 0 -229 -78q-71 -69 -71 -191t71 -191q80 -78 230 -78q151 0 229 78q71 70 71 187q0 125 -71 195q-79 78 -230 78zM293 1342h163q7 -81 30 -105q40 -44 159 -44q128 0 166 52q17 24 23 97h163q-1 -121 -47 -187
q-84 -121 -305 -121q-238 0 -317 141q-34 60 -35 167z" />
    <glyph glyph-name="Gdotaccent" unicode="&#x120;" horiz-adv-x="1679" 
d="M890 551v195h701v-118q0 -142 -25 -239q-52 -205 -245 -314q-179 -100 -456 -100q-363 0 -570 182q-206 182 -206 522q0 326 192 512q206 199 565 199q387 0 629 -241l-164 -154q-170 177 -449 177q-259 0 -394 -144q-121 -129 -121 -352q0 -214 116 -339
q136 -146 413 -146q221 0 343.5 90.5t122.5 253.5v16h-452zM840 1791q65 0 104 -37t39 -99t-39 -99t-104 -37q-67 0 -105.5 37t-38.5 101q0 61 39.5 97.5t104.5 36.5z" />
    <glyph glyph-name="gdotaccent" unicode="&#x121;" horiz-adv-x="1290" 
d="M926 116q-44 -56 -144.5 -91t-216.5 -35q-236 0 -363 122q-130 126 -130 349q0 224 130 349q127 122 361 122q230 0 361 -113l12 89h212v-827q0 -153 -21 -246.5t-68 -153.5q-74 -93 -209 -140q-118 -40 -266 -40q-315 0 -468 214l187 109q71 -127 281 -127
q221 0 302 123q41 62 41 194zM613 730q-149 0 -229 -78q-71 -69 -71 -191t71 -191q80 -78 230 -78q151 0 229 78q71 70 71 187q0 125 -71 195q-79 78 -230 78zM645 1334q66 0 105 -37t39 -99t-39 -99t-104 -37q-67 0 -106 37t-39 101q0 61 39.5 97.5t104.5 36.5z" />
    <glyph glyph-name="Gcommaaccent" unicode="&#x122;" horiz-adv-x="1679" 
d="M890 551v195h701v-118q0 -142 -25 -239q-52 -205 -245 -314q-179 -100 -456 -100q-363 0 -570 182q-206 182 -206 522q0 326 192 512q206 199 565 199q387 0 629 -241l-164 -154q-170 177 -449 177q-259 0 -394 -144q-121 -129 -121 -352q0 -214 116 -339
q136 -146 413 -146q221 0 343.5 90.5t122.5 253.5v16h-452zM728 -87l219 -60l-161 -332l-171 49z" />
    <glyph glyph-name="gcommaaccent" unicode="&#x123;" horiz-adv-x="1290" 
d="M926 116q-44 -56 -144.5 -91t-216.5 -35q-236 0 -363 122q-130 126 -130 349q0 224 130 349q127 122 361 122q230 0 361 -113l12 89h212v-827q0 -153 -21 -246.5t-68 -153.5q-74 -93 -209 -140q-118 -40 -266 -40q-315 0 -468 214l187 109q71 -127 281 -127
q221 0 302 123q41 62 41 194zM613 730q-149 0 -229 -78q-71 -69 -71 -191t71 -191q80 -78 230 -78q151 0 229 78q71 70 71 187q0 125 -71 195q-79 78 -230 78zM739 1005l-218 60l164 353l171 -49z" />
    <glyph glyph-name="Hcircumflex" unicode="&#x124;" horiz-adv-x="1610" 
d="M177 0v1365h250v-551h757v551h249v-1365h-249v598h-757v-598h-250zM805 1630l-182 -161l-174 79l281 284h150l281 -284l-174 -79z" />
    <glyph glyph-name="hcircumflex" unicode="&#x125;" horiz-adv-x="1265" 
d="M141 0v1365h234v-532q76 54 152 76.5t183 22.5q262 0 363 -154q31 -47 44 -114.5t13 -183.5v-480h-234v455q0 128 -38 185q-59 89 -212 89q-162 0 -226 -87q-45 -59 -45 -203v-439h-234zM383 1630l-182 -161l-174 79l281 284h150l280 -284l-174 -79z" />
    <glyph glyph-name="Hbar" unicode="&#x126;" horiz-adv-x="1595" 
d="M178 0v958h-120v179h120v228h250v-228h740v228h250v-228h119v-179h-119v-958h-250v598h-740v-598h-250zM428 798h740v160h-740v-160z" />
    <glyph glyph-name="hbar" unicode="&#x127;" horiz-adv-x="1267" 
d="M142 0v1039h-127v168h127v158h234v-158h303v-168h-303v-206q138 100 335 100q262 0 363 -154q31 -48 44 -115.5t13 -183.5v-480h-234v455q0 129 -38 186q-59 89 -212 89q-162 0 -226 -87q-45 -60 -45 -204v-439h-234z" />
    <glyph glyph-name="Itilde" unicode="&#x128;" horiz-adv-x="604" 
d="M177 0v1365h250v-1365h-250zM54 1527h-134q18 120 43 163q25 45 69 72t91 27q64 0 188 -54q93 -41 137 -41q78 0 102 92h134q-8 -99 -35 -151q-57 -111 -165 -111q-71 0 -201 57q-87 38 -129 38q-75 0 -100 -92z" />
    <glyph glyph-name="itilde" unicode="&#x129;" horiz-adv-x="517" 
d="M141 0v908h234v-908h-234zM10 1078h-134q18 120 43 163q25 45 69 72t91 27q65 0 188 -54q92 -41 137 -41q78 0 102 92h134q-7 -99 -34 -151q-57 -111 -166 -111q-72 0 -201 57q-86 38 -129 38q-75 0 -100 -92z" />
    <glyph glyph-name="Imacron" unicode="&#x12a;" horiz-adv-x="604" 
d="M177 0v1365h250v-1365h-250zM-63 1563v183h729v-183h-729z" />
    <glyph glyph-name="imacron" unicode="&#x12b;" horiz-adv-x="517" 
d="M142 0v908h234v-908h-234zM-106 1112v183h729v-183h-729z" />
    <glyph glyph-name="Ibreve" unicode="&#x12c;" horiz-adv-x="604" 
d="M177 0v1365h249v-1365h-249zM-50 1798h163q7 -81 30 -105q40 -44 159 -44q129 0 166 52q17 25 23 97h163q-1 -121 -47 -187q-84 -121 -305 -121q-238 0 -317 141q-34 60 -35 167z" />
    <glyph glyph-name="ibreve" unicode="&#x12d;" horiz-adv-x="518" 
d="M142 0v908h234v-908h-234zM-93 1342h163q7 -81 30 -105q40 -44 159 -44q129 0 166 52q17 25 23 97h163q-1 -121 -47 -187q-84 -121 -305 -121q-238 0 -317 141q-34 60 -35 167z" />
    <glyph glyph-name="Iogonek" unicode="&#x12e;" horiz-adv-x="604" 
d="M178 0v1365h249v-1365q-134 -80 -177.5 -120.5t-43.5 -86.5q0 -66 80 -66q42 0 109 26l53 -138q-105 -43 -188 -43q-113 0 -180.5 52t-67.5 139q0 114 121 185q23 13 125 52h-80z" />
    <glyph glyph-name="iogonek" unicode="&#x12f;" horiz-adv-x="517" 
d="M142 0v908h234v-908q-116 -62 -168.5 -111t-52.5 -96q0 -66 80 -66q42 0 109 26l53 -138q-105 -43 -188 -43q-113 0 -180.5 52t-67.5 139q0 83 55.5 137t191.5 100h-66zM259 1335q65 0 104 -37t39 -99q0 -63 -39 -100t-104 -37q-67 0 -105.5 37t-38.5 102q0 60 39.5 97
t104.5 37z" />
    <glyph glyph-name="Idotaccent" unicode="&#x130;" horiz-adv-x="604" 
d="M177 0v1365h250v-1365h-250zM302 1791q65 0 104 -37t39 -99t-39 -99t-104 -37q-66 0 -105 37t-39 101q0 61 39.5 97.5t104.5 36.5z" />
    <glyph glyph-name="dotlessi" unicode="&#x131;" horiz-adv-x="518" 
d="M142 0v908h234v-908h-234z" />
    <glyph glyph-name="IJ" unicode="&#x132;" horiz-adv-x="1587" 
d="M177 0v1365h250v-1365h-250zM1159 1365h250v-856q0 -175 -27 -269q-39 -136 -157 -201q-115 -64 -277 -64q-106 0 -188.5 27t-177.5 92l100 196q74 -55 129.5 -76.5t124.5 -21.5q138 0 190 85q20 33 26.5 75.5t6.5 145.5v867z" />
    <glyph glyph-name="ij" unicode="&#x133;" horiz-adv-x="1044" 
d="M142 0v908h234v-908h-234zM259 1335q65 0 104 -37t39 -99q0 -63 -39 -100t-104 -37q-67 0 -105.5 37t-38.5 102q0 60 39.5 97t104.5 37zM670 908h234v-925q0 -238 -40 -326q-32 -71 -106.5 -112.5t-170.5 -41.5q-61 0 -133 22v191q51 -20 90 -20q84 0 110 83
q16 50 16 183v946zM786 1335q66 0 105 -37t39 -99q0 -63 -39 -100t-104 -37q-67 0 -106 37.5t-39 101.5q0 60 39.5 97t104.5 37z" />
    <glyph glyph-name="Jcircumflex" unicode="&#x134;" horiz-adv-x="1004" 
d="M576 1365h250v-856q0 -175 -27 -269q-39 -136 -157 -201q-115 -64 -277 -64q-106 0 -188.5 27t-177.5 92l100 196q76 -56 130.5 -77t123.5 -21q139 0 190 85q20 33 26.5 75.5t6.5 145.5v867zM656 1630l-182 -161l-174 79l281 284h150l280 -284l-174 -79z" />
    <glyph glyph-name="jcircumflex" unicode="&#x135;" horiz-adv-x="527" 
d="M152 908h234v-925q0 -238 -40 -326q-32 -71 -106.5 -112.5t-170.5 -41.5q-61 0 -133 22v191q51 -20 90 -20q84 0 110 83q16 50 16 183v946zM263 1194l-182 -169l-172 79l280 283h149l280 -283l-173 -79z" />
    <glyph glyph-name="Kcommaaccent" unicode="&#x136;" horiz-adv-x="1345" 
d="M177 0v1365h250v-631l613 631h301l-583 -574l657 -791h-314l-502 633l-172 -168v-465h-250zM626 -87l219 -60l-160 -332l-171 49z" />
    <glyph glyph-name="kcommaaccent" unicode="&#x137;" horiz-adv-x="1092" 
d="M142 0v1365h234v-806l395 349h308l-421 -344l458 -564h-280l-344 441l-116 -104v-337h-234zM462 -87l219 -60l-161 -332l-171 49z" />
    <glyph glyph-name="kgreenlandic" unicode="&#x138;" horiz-adv-x="1092" 
d="M142 0v908h234v-374l395 374h308l-415 -352l452 -556h-280l-332 424l-128 -112v-312h-234z" />
    <glyph glyph-name="Lacute" unicode="&#x139;" horiz-adv-x="1057" 
d="M177 0v1365h250v-1149h616v-216h-866zM700 1758l-313 -289l-155 80l250 316z" />
    <glyph glyph-name="lacute" unicode="&#x13a;" horiz-adv-x="522" 
d="M144 0v1365h234v-1365h-234zM579 1758l-313 -289l-154 80l249 316z" />
    <glyph glyph-name="Lcommaaccent" unicode="&#x13b;" horiz-adv-x="1057" 
d="M177 0v1365h250v-1149h616v-216h-866zM510 -87l218 -60l-160 -332l-171 49z" />
    <glyph glyph-name="lcommaaccent" unicode="&#x13c;" horiz-adv-x="522" 
d="M144 0v1365h234v-1365h-234zM148 -87l218 -60l-160 -332l-171 49z" />
    <glyph glyph-name="Lcaron" unicode="&#x13d;" horiz-adv-x="1057" 
d="M177 0v1365h250v-1149h616v-216h-866zM704 1453l200 -42l-165 -537l-165 44z" />
    <glyph glyph-name="lcaron" unicode="&#x13e;" horiz-adv-x="734" 
d="M144 0v1365h234v-1365h-234zM595 1454l201 -38l-146 -545l-165 43z" />
    <glyph glyph-name="Ldot" unicode="&#x13f;" horiz-adv-x="1057" 
d="M177 0v1365h250v-1149h616v-216h-866zM812 780q61 0 103 -41t42 -100t-42 -100t-103 -41q-62 0 -104 41t-42 102q0 57 42.5 98t103.5 41z" />
    <glyph glyph-name="ldot" unicode="&#x140;" horiz-adv-x="750" 
d="M144 0v1365h234v-1365h-234zM633 753q61 0 103 -41t42 -100t-42 -100t-103 -41q-62 0 -104 41t-42 102q0 57 42.5 98t103.5 41z" />
    <glyph glyph-name="Lslash" unicode="&#x141;" horiz-adv-x="1069" 
d="M188 0v495l-167 -85v216l167 85v654h250v-531l292 149v-216l-292 -149v-402h616v-216h-866z" />
    <glyph glyph-name="lslash" unicode="&#x142;" horiz-adv-x="601" 
d="M183 0v518l-175 -100v214l175 101v632h234v-511l175 101v-214l-175 -101v-640h-234z" />
    <glyph glyph-name="Nacute" unicode="&#x143;" horiz-adv-x="1660" 
d="M177 0v1368h173l891 -958v955h241v-1381h-156l-908 995v-979h-241zM1125 1758l-313 -289l-154 80l249 316z" />
    <glyph glyph-name="nacute" unicode="&#x144;" horiz-adv-x="1258" 
d="M142 0v908h211l12 -81q128 105 346 105q258 0 358 -154q31 -47 44 -115t13 -183v-480h-234v455q0 128 -38 185q-58 89 -209 89q-161 0 -225 -87q-44 -60 -44 -215v-427h-234zM948 1313l-313 -289l-154 80l249 316z" />
    <glyph glyph-name="Ncommaaccent" unicode="&#x145;" horiz-adv-x="1660" 
d="M177 0v1368h173l891 -958v955h241v-1381h-156l-908 995v-979h-241zM759 -87l219 -60l-161 -332l-171 49z" />
    <glyph glyph-name="ncommaaccent" unicode="&#x146;" horiz-adv-x="1258" 
d="M142 0v908h211l12 -81q128 105 346 105q258 0 358 -154q31 -47 44 -115t13 -183v-480h-234v455q0 128 -38 185q-58 89 -209 89q-161 0 -225 -87q-44 -60 -44 -215v-427h-234zM557 -87l219 -60l-160 -332l-171 49z" />
    <glyph glyph-name="Ncaron" unicode="&#x147;" horiz-adv-x="1660" 
d="M177 0v1368h173l891 -958v955h241v-1381h-156l-908 995v-979h-241zM834 1684l182 160l174 -78l-281 -284h-150l-281 284l175 78z" />
    <glyph glyph-name="ncaron" unicode="&#x148;" horiz-adv-x="1258" 
d="M142 0v908h211l12 -81q128 105 346 105q258 0 358 -154q31 -47 44 -115t13 -183v-480h-234v455q0 128 -38 185q-58 89 -209 89q-161 0 -225 -87q-44 -60 -44 -215v-427h-234zM629 1237l182 169l173 -78l-280 -283h-149l-280 283l173 78z" />
    <glyph glyph-name="napostrophe" unicode="&#x149;" horiz-adv-x="1363" 
d="M247 0v908h211l11 -81q131 105 347 105q258 0 358 -154q31 -47 44 -115t13 -183v-480h-234v455q0 128 -38 185q-58 89 -209 89q-161 0 -225 -87q-44 -60 -44 -215v-427h-234zM73 1454l201 -38l-146 -545l-165 43z" />
    <glyph glyph-name="Eng" unicode="&#x14a;" horiz-adv-x="1660" 
d="M177 0v1368h173l891 -958v955h241v-1397q0 -149 -18.5 -223.5t-69.5 -125.5q-95 -96 -307 -100l-7 199q98 4 129.5 51.5t31.5 193.5v113l-823 903v-979h-241z" />
    <glyph glyph-name="eng" unicode="&#x14b;" horiz-adv-x="1258" 
d="M142 0v908h211l12 -81q128 105 346 105q258 0 358 -154q31 -47 44 -115t13 -183v-512q0 -150 -18.5 -223.5t-69.5 -125.5q-96 -96 -307 -100l-7 199q102 4 135 51.5t33 193.5v492q0 128 -38 185q-58 89 -209 89q-161 0 -225 -87q-44 -60 -44 -215v-427h-234z" />
    <glyph glyph-name="Omacron" unicode="&#x14c;" horiz-adv-x="1755" 
d="M878 1390q383 0 600 -217q188 -189 188 -490q0 -302 -188 -491q-120 -121 -297 -174q-146 -43 -301 -43q-388 0 -603 217q-188 190 -188 500q0 182 79 333q107 205 340 299q165 66 370 66zM878 1173q-261 0 -408 -151q-123 -126 -123 -333q0 -220 123 -346
q146 -151 410 -151q259 0 405 151q123 126 123 340q0 213 -123 339q-146 151 -407 151zM513 1563v183h729v-183h-729z" />
    <glyph glyph-name="omacron" unicode="&#x14d;" horiz-adv-x="1249" 
d="M625 931q253 0 403 -124q149 -124 149 -353t-149 -354q-149 -124 -401 -124q-256 0 -404 124q-150 125 -150 361q0 222 150 346q149 124 402 124zM626 729q-152 0 -236 -79q-76 -71 -76 -193q0 -129 76 -200q84 -79 237 -79q152 0 234 79q76 73 76 196q0 126 -76 197
q-84 79 -235 79zM260 1112v183h729v-183h-729z" />
    <glyph glyph-name="Obreve" unicode="&#x14e;" horiz-adv-x="1755" 
d="M878 1390q383 0 600 -217q188 -189 188 -490q0 -302 -188 -491q-120 -121 -297 -174q-146 -43 -301 -43q-388 0 -603 217q-188 190 -188 500q0 182 79 333q107 205 340 299q165 66 370 66zM878 1173q-261 0 -408 -151q-123 -126 -123 -333q0 -220 123 -346
q146 -151 410 -151q259 0 405 151q123 126 123 340q0 213 -123 339q-146 151 -407 151zM526 1798h163q7 -81 29 -105q41 -44 160 -44q128 0 165 52q18 25 24 97h163q-2 -121 -47 -187q-85 -121 -305 -121q-238 0 -318 141q-33 59 -34 167z" />
    <glyph glyph-name="obreve" unicode="&#x14f;" horiz-adv-x="1249" 
d="M625 931q253 0 403 -124q149 -124 149 -353t-149 -354q-149 -124 -401 -124q-256 0 -404 124q-150 125 -150 361q0 222 150 346q149 124 402 124zM626 729q-152 0 -236 -79q-76 -71 -76 -193q0 -129 76 -200q84 -79 237 -79q152 0 234 79q76 73 76 196q0 126 -76 197
q-84 79 -235 79zM273 1342h163q8 -81 30 -105q40 -44 159 -44q128 0 166 52q17 25 23 97h163q-2 -121 -47 -187q-85 -121 -305 -121q-238 0 -317 141q-33 59 -35 167z" />
    <glyph glyph-name="Ohungarumlaut" unicode="&#x150;" horiz-adv-x="1755" 
d="M878 1390q383 0 600 -217q188 -189 188 -490q0 -302 -188 -491q-120 -121 -297 -174q-146 -43 -301 -43q-388 0 -603 217q-188 190 -188 500q0 182 79 333q107 205 340 299q165 66 370 66zM878 1173q-261 0 -408 -151q-123 -126 -123 -333q0 -220 123 -346
q146 -151 410 -151q259 0 405 151q123 126 123 340q0 213 -123 339q-146 151 -407 151zM1013 1765l-244 -296l-134 71l171 318zM1339 1765l-244 -296l-134 71l171 318z" />
    <glyph glyph-name="ohungarumlaut" unicode="&#x151;" horiz-adv-x="1249" 
d="M625 931q253 0 403 -124q149 -124 149 -353t-149 -354q-149 -124 -401 -124q-256 0 -404 124q-150 125 -150 361q0 222 150 346q149 124 402 124zM626 729q-152 0 -236 -79q-76 -71 -76 -193q0 -129 76 -200q84 -79 237 -79q152 0 234 79q76 73 76 196q0 126 -76 197
q-84 79 -235 79zM760 1321l-244 -295l-134 70l171 319zM1086 1321l-243 -295l-135 70l171 319z" />
    <glyph glyph-name="OE" unicode="&#x152;" horiz-adv-x="2451" 
d="M1408 0v188q-64 -70 -125 -109q-160 -104 -421 -104q-381 0 -590 217q-183 190 -183 491q0 300 183 490q209 217 591 217q368 0 545 -209v184h909v-216h-664v-343h583v-216h-583v-374h692v-216h-937zM876 1173q-260 0 -406 -150q-123 -126 -123 -340q0 -213 123 -340
q146 -151 407 -151q262 0 408 151q123 126 123 333q0 221 -123 347q-146 150 -409 150z" />
    <glyph glyph-name="oe" unicode="&#x153;" horiz-adv-x="2054" 
d="M1057 157q-144 -181 -444 -181q-249 0 -394 124q-146 125 -146 354t146 353q145 124 390 124q154 0 260 -43t182 -137q77 95 178.5 137.5t252.5 42.5q264 0 391 -128q121 -120 121 -330q0 -19 -3 -86h-825q6 -82 55 -133q84 -90 257 -90q103 0 168.5 26.5t100.5 82.5
l224 -40q-30 -88 -95 -142q-137 -115 -374 -115q-224 0 -346 85q-44 30 -99 96zM624 729q-150 0 -234 -79q-76 -71 -76 -197q0 -125 76 -196q83 -79 235 -79q153 0 235 79q76 72 76 192q0 130 -76 201q-84 79 -236 79zM1172 549h596q-10 78 -44 117q-73 85 -253 85
q-276 0 -299 -202z" />
    <glyph glyph-name="Racute" unicode="&#x154;" horiz-adv-x="1269" 
d="M423 507v-507h-246v1365h404q287 0 430 -90q165 -105 165 -339q0 -148 -69.5 -242.5t-213.5 -144.5l375 -549h-296l-324 513q-85 -6 -138 -6h-87zM422 712h171q165 0 243 44q89 49 89 179q0 117 -77 168t-255 51h-171v-442zM936 1758l-313 -289l-154 80l249 316z" />
    <glyph glyph-name="racute" unicode="&#x155;" horiz-adv-x="781" 
d="M142 0v908h211l12 -86q70 52 136 73.5t154 21.5q47 0 106 -9v-219q-71 14 -129 14q-148 0 -212 -85q-44 -58 -44 -213v-405h-234zM758 1313l-313 -289l-154 80l249 316z" />
    <glyph glyph-name="Rcommaaccent" unicode="&#x156;" horiz-adv-x="1269" 
d="M423 507v-507h-246v1365h404q287 0 430 -90q165 -105 165 -339q0 -148 -69.5 -242.5t-213.5 -144.5l375 -549h-296l-324 513q-85 -6 -138 -6h-87zM422 712h171q165 0 243 44q89 49 89 179q0 117 -77 168t-255 51h-171v-442zM546 -87l219 -60l-160 -332l-171 49z" />
    <glyph glyph-name="rcommaaccent" unicode="&#x157;" horiz-adv-x="782" 
d="M142 0v908h211l11 -86q72 53 137 74t153 21q47 0 106 -9v-219q-70 14 -129 14q-147 0 -211 -85q-44 -58 -44 -213v-405h-234zM166 -87l218 -60l-160 -332l-171 49z" />
    <glyph glyph-name="Rcaron" unicode="&#x158;" horiz-adv-x="1269" 
d="M423 507v-507h-246v1365h404q287 0 430 -90q165 -105 165 -339q0 -148 -69.5 -242.5t-213.5 -144.5l375 -549h-296l-324 513q-85 -6 -138 -6h-87zM422 712h171q165 0 243 44q89 49 89 179q0 117 -77 168t-255 51h-171v-442zM634 1684l182 160l174 -78l-281 -284h-149
l-281 284l174 78z" />
    <glyph glyph-name="rcaron" unicode="&#x159;" horiz-adv-x="782" 
d="M142 0v908h211l12 -86q70 52 135.5 73.5t153.5 21.5q48 0 106 -9v-219q-70 14 -128 14q-148 0 -212 -85q-44 -58 -44 -213v-405h-234zM428 1237l182 169l173 -78l-280 -283h-149l-280 283l172 78z" />
    <glyph glyph-name="Sacute" unicode="&#x15a;" horiz-adv-x="1256" 
d="M65 302l216 109q32 -78 62 -116q44 -55 111.5 -79.5t174.5 -24.5q157 0 230 57q62 48 62 131q0 94 -99 143q-52 25 -251 87q-196 62 -299 143q-130 103 -130 265q0 167 128 268q133 105 355 105q164 0 279 -56.5t202 -180.5l-194 -118q-50 76 -119 110.5t-173 34.5
q-101 0 -162 -36q-72 -41 -72 -119q0 -83 76 -128q35 -21 64 -31.5t167 -54.5q216 -68 325 -138q151 -98 151 -285q0 -116 -57 -214q-117 -199 -486 -199q-311 0 -460 148q-63 61 -101 179zM946 1758l-313 -289l-154 80l249 316z" />
    <glyph glyph-name="sacute" unicode="&#x15b;" horiz-adv-x="932" 
d="M26 206l200 82q40 -71 92 -100.5t138 -29.5q192 0 192 106q0 49 -47 70q-36 16 -214 58q-144 34 -214 89q-83 65 -83 181q0 124 99 196.5t270 72.5q131 0 218.5 -40.5t153.5 -131.5l-169 -96q-58 92 -197 92q-71 0 -112.5 -24.5t-41.5 -66.5q0 -36 28.5 -55t110.5 -38
q217 -51 280 -82q77 -38 110.5 -89.5t33.5 -130.5q0 -140 -98 -212q-112 -81 -310 -81q-166 0 -278.5 59t-161.5 171zM785 1313l-313 -289l-155 80l250 316z" />
    <glyph glyph-name="Scircumflex" unicode="&#x15c;" horiz-adv-x="1256" 
d="M65 302l216 109q32 -78 62 -116q44 -55 111.5 -79.5t174.5 -24.5q157 0 230 57q62 48 62 131q0 94 -99 143q-52 25 -251 87q-196 62 -299 143q-130 103 -130 265q0 167 128 268q133 105 355 105q164 0 279 -56.5t202 -180.5l-194 -118q-50 76 -119 110.5t-173 34.5
q-101 0 -162 -36q-72 -41 -72 -119q0 -83 76 -128q35 -21 64 -31.5t167 -54.5q216 -68 325 -138q151 -98 151 -285q0 -116 -57 -214q-117 -199 -486 -199q-311 0 -460 148q-63 61 -101 179zM628 1630l-182 -161l-174 79l281 284h149l281 -284l-174 -79z" />
    <glyph glyph-name="scircumflex" unicode="&#x15d;" horiz-adv-x="932" 
d="M26 206l200 82q40 -71 92 -100.5t138 -29.5q192 0 192 106q0 49 -47 70q-36 16 -214 58q-144 34 -214 89q-83 65 -83 181q0 124 99 196.5t270 72.5q131 0 218.5 -40.5t153.5 -131.5l-169 -96q-58 92 -197 92q-71 0 -112.5 -24.5t-41.5 -66.5q0 -36 28.5 -55t110.5 -38
q217 -51 280 -82q77 -38 110.5 -89.5t33.5 -130.5q0 -140 -98 -212q-112 -81 -310 -81q-166 0 -278.5 59t-161.5 171zM466 1194l-182 -169l-172 79l280 283h149l279 -283l-172 -79z" />
    <glyph glyph-name="Scedilla" unicode="&#x15e;" horiz-adv-x="1256" 
d="M65 302l216 109q32 -78 62 -116q44 -55 111.5 -79.5t174.5 -24.5q157 0 230 57q62 48 62 131q0 94 -99 143q-52 25 -251 87q-196 62 -299 143q-130 103 -130 265q0 167 128 268q133 105 355 105q164 0 279 -56.5t202 -180.5l-194 -118q-50 76 -119 110.5t-173 34.5
q-101 0 -162 -36q-72 -41 -72 -119q0 -83 76 -128q35 -21 64 -31.5t167 -54.5q216 -68 325 -138q151 -98 151 -285q0 -116 -57 -214q-117 -199 -486 -199q-311 0 -460 148q-63 61 -101 179zM520 -87l218 -62l-178 -318l-171 50z" />
    <glyph glyph-name="scedilla" unicode="&#x15f;" horiz-adv-x="932" 
d="M26 206l200 82q39 -71 91.5 -100.5t138.5 -29.5q192 0 192 106q0 49 -47 70q-36 16 -214 58q-144 34 -214 89q-83 65 -83 181q0 124 99 196.5t270 72.5q131 0 218.5 -40.5t153.5 -131.5l-169 -96q-58 92 -197 92q-71 0 -112.5 -24.5t-41.5 -66.5q0 -36 28.5 -55
t110.5 -38q217 -51 280 -82q77 -38 110.5 -89.5t33.5 -130.5q0 -140 -98 -212q-112 -81 -310 -81q-166 0 -278.5 59t-161.5 171zM359 -87l218 -62l-178 -318l-171 50z" />
    <glyph glyph-name="Scaron" unicode="&#x160;" horiz-adv-x="1256" 
d="M65 302l216 109q32 -78 62 -116q44 -55 111.5 -79.5t174.5 -24.5q157 0 230 57q62 48 62 131q0 94 -99 143q-52 25 -251 87q-196 62 -299 143q-130 103 -130 265q0 167 128 268q133 105 355 105q164 0 279 -56.5t202 -180.5l-194 -118q-50 76 -119 110.5t-173 34.5
q-101 0 -162 -36q-72 -41 -72 -119q0 -83 76 -128q35 -21 64 -31.5t167 -54.5q216 -68 325 -138q151 -98 151 -285q0 -116 -57 -214q-117 -199 -486 -199q-311 0 -460 148q-63 61 -101 179zM628 1684l181 160l174 -78l-281 -284h-149l-281 284l174 78z" />
    <glyph glyph-name="scaron" unicode="&#x161;" horiz-adv-x="932" 
d="M26 206l200 82q40 -71 92 -100.5t138 -29.5q192 0 192 106q0 49 -47 70q-36 16 -214 58q-144 34 -214 89q-83 65 -83 181q0 124 99 196.5t270 72.5q131 0 218.5 -40.5t153.5 -131.5l-169 -96q-58 92 -197 92q-71 0 -112.5 -24.5t-41.5 -66.5q0 -36 28.5 -55t110.5 -38
q217 -51 280 -82q77 -38 110.5 -89.5t33.5 -130.5q0 -140 -98 -212q-112 -81 -310 -81q-166 0 -278.5 59t-161.5 171zM466 1237l182 169l172 -78l-279 -283h-149l-280 283l172 78z" />
    <glyph glyph-name="Tcommaaccent" unicode="&#x162;" horiz-adv-x="1067" 
d="M408 0v1149h-411v216h1072v-216h-411v-1149h-250zM430 -87l219 -60l-160 -332l-171 49z" />
    <glyph glyph-name="tcommaaccent" unicode="&#x163;" horiz-adv-x="648" 
d="M171 703h-126v205h133l15 267l208 31v-298h213v-205h-213v-327q0 -108 20 -139q24 -37 97 -37q39 0 90 6v-208q-95 -16 -163 -16q-164 0 -226 94q-28 42 -38 104.5t-10 194.5v328zM212 -87l219 -60l-160 -332l-171 49z" />
    <glyph glyph-name="Tcaron" unicode="&#x164;" horiz-adv-x="1067" 
d="M408 0v1149h-411v216h1072v-216h-411v-1149h-250zM533 1684l182 160l174 -78l-281 -284h-150l-281 284l174 78z" />
    <glyph glyph-name="tcaron" unicode="&#x165;" horiz-adv-x="860" 
d="M171 703h-126v205h133l15 267l208 31v-298h213v-205h-213v-327q0 -108 20 -139q24 -37 97 -37q39 0 90 6v-208q-95 -16 -163 -16q-164 0 -226 94q-28 42 -38 104.5t-10 194.5v328zM722 1454l200 -38l-130 -497l-165 43z" />
    <glyph glyph-name="Tbar" unicode="&#x166;" horiz-adv-x="1067" 
d="M408 0v601h-234v210h234v338h-411v216h1072v-216h-411v-338h234v-210h-234v-601h-250z" />
    <glyph glyph-name="tbar" unicode="&#x167;" horiz-adv-x="648" 
d="M171 714h-126v194h133l15 267l208 31v-298h213v-194h-213v-118h213v-154h-213v-127q0 -66 24.5 -90.5t91.5 -24.5q40 0 91 6v-208q-95 -16 -163 -16q-149 0 -211.5 73.5t-62.5 248.5v138h-126v154h126v118z" />
    <glyph glyph-name="Utilde" unicode="&#x168;" horiz-adv-x="1567" 
d="M177 1365h250v-769q0 -133 11.5 -193.5t45.5 -103.5q85 -107 299 -107q234 0 313 127q25 40 34 97.5t9 179.5v769h250v-758q0 -183 -19 -277q-37 -175 -199 -270q-145 -85 -388 -85q-386 0 -531 216q-41 61 -58 154t-17 262v758zM535 1527h-134q17 119 43 163
q25 45 69 72t91 27q64 0 188 -54q92 -41 137 -41q79 0 102 92h134q-8 -99 -35 -151q-57 -111 -165 -111q-71 0 -201 57q-87 38 -129 38q-75 0 -100 -92z" />
    <glyph glyph-name="utilde" unicode="&#x169;" horiz-adv-x="1223" 
d="M132 908h234v-465q0 -126 32 -180q49 -84 197 -84q151 0 211 87q41 60 41 215v427h234v-908h-211l-12 83q-86 -63 -155 -85t-178 -22q-246 0 -340 150q-29 46 -41 112t-12 180v490zM364 1078h-135q19 120 43 163q26 45 70 72t90 27q65 0 188 -54q93 -41 137 -41
q78 0 102 92h135q-8 -99 -35 -151q-57 -111 -166 -111q-72 0 -201 57q-86 38 -128 38q-75 0 -100 -92z" />
    <glyph glyph-name="Umacron" unicode="&#x16a;" horiz-adv-x="1567" 
d="M177 1365h250v-769q0 -133 11.5 -193.5t45.5 -103.5q85 -107 299 -107q234 0 313 127q25 40 34 97.5t9 179.5v769h250v-758q0 -183 -19 -277q-37 -175 -199 -270q-145 -85 -388 -85q-386 0 -531 216q-41 61 -58 154t-17 262v758zM418 1563v183h729v-183h-729z" />
    <glyph glyph-name="umacron" unicode="&#x16b;" horiz-adv-x="1223" 
d="M132 908h234v-465q0 -126 32 -180q49 -84 197 -84q151 0 211 87q41 60 41 215v427h234v-908h-211l-12 83q-86 -63 -155 -85t-178 -22q-246 0 -340 150q-29 46 -41 112t-12 180v490zM247 1112v183h729v-183h-729z" />
    <glyph glyph-name="Ubreve" unicode="&#x16c;" horiz-adv-x="1567" 
d="M177 1365h250v-769q0 -133 11.5 -193.5t45.5 -103.5q85 -107 299 -107q234 0 313 127q25 40 34 97.5t9 179.5v769h250v-758q0 -183 -19 -277q-37 -175 -199 -270q-145 -85 -388 -85q-386 0 -531 216q-41 61 -58 154t-17 262v758zM431 1798h163q7 -81 30 -105
q40 -44 159 -44q128 0 166 52q17 24 23 97h163q-1 -121 -47 -187q-85 -121 -305 -121q-238 0 -317 141q-34 60 -35 167z" />
    <glyph glyph-name="ubreve" unicode="&#x16d;" horiz-adv-x="1223" 
d="M132 908h234v-465q0 -126 32 -180q49 -84 197 -84q151 0 211 87q41 60 41 215v427h234v-908h-211l-12 83q-86 -63 -155 -85t-178 -22q-246 0 -340 150q-29 46 -41 112t-12 180v490zM260 1342h163q7 -81 29 -105q41 -44 159 -44q129 0 166 52q18 25 23 97h164
q-2 -121 -48 -187q-84 -121 -304 -121q-239 0 -318 141q-33 60 -34 167z" />
    <glyph glyph-name="Uring" unicode="&#x16e;" horiz-adv-x="1567" 
d="M177 1365h250v-769q0 -133 11.5 -193.5t45.5 -103.5q85 -107 299 -107q234 0 313 127q25 40 34 97.5t9 179.5v769h250v-758q0 -183 -19 -277q-37 -175 -199 -270q-145 -85 -388 -85q-386 0 -531 216q-41 61 -58 154t-17 262v758zM783 1888q99 0 162 -60q65 -62 65 -156
q0 -95 -65 -157q-63 -60 -161 -60t-162 60q-65 62 -65 159q0 94 65 154t161 60zM784 1776q-45 0 -73.5 -28.5t-28.5 -74.5q0 -47 28 -76.5t74 -29.5q45 0 73 29.5t28 75.5t-28 75t-73 29z" />
    <glyph glyph-name="uring" unicode="&#x16f;" horiz-adv-x="1223" 
d="M132 908h234v-465q0 -126 32 -180q49 -84 197 -84q151 0 211 87q41 60 41 215v427h234v-908h-211l-12 83q-86 -63 -155 -85t-178 -22q-246 0 -340 150q-29 46 -41 112t-12 180v490zM612 1435q97 0 161 -60q65 -61 65 -156q0 -94 -65 -156q-63 -60 -160 -60q-98 0 -162 60
q-65 62 -65 159q0 93 65 153t161 60zM612 1323q-44 0 -72.5 -28.5t-28.5 -73.5q0 -48 28 -77t73 -29t73 29t28 76q0 46 -28 74.5t-73 28.5z" />
    <glyph glyph-name="Uhungarumlaut" unicode="&#x170;" horiz-adv-x="1567" 
d="M177 1365h250v-769q0 -133 11.5 -193.5t45.5 -103.5q85 -107 299 -107q234 0 313 127q25 40 34 97.5t9 179.5v769h250v-758q0 -183 -19 -277q-37 -175 -199 -270q-145 -85 -388 -85q-386 0 -531 216q-41 61 -58 154t-17 262v758zM900 1765l-244 -296l-134 71l171 318z
M1226 1765l-244 -296l-134 71l171 318z" />
    <glyph glyph-name="uhungarumlaut" unicode="&#x171;" horiz-adv-x="1223" 
d="M132 908h234v-465q0 -126 32 -180q49 -84 197 -84q151 0 211 87q41 60 41 215v427h234v-908h-211l-12 83q-86 -63 -155 -85t-178 -22q-246 0 -340 150q-29 46 -41 112t-12 180v490zM747 1321l-244 -295l-135 70l172 319zM1073 1321l-244 -295l-134 70l171 319z" />
    <glyph glyph-name="Uogonek" unicode="&#x172;" horiz-adv-x="1567" 
d="M177 1365h250v-769q0 -133 11.5 -193.5t45.5 -103.5q85 -107 299 -107q234 0 313 127q25 40 34 97.5t9 179.5v769h250v-758q0 -230 -35 -336q-33 -99 -122.5 -169t-222.5 -102q-118 -74 -160.5 -117.5t-42.5 -90.5q0 -66 80 -66q42 0 109 27l53 -139q-105 -43 -188 -43
q-114 0 -181 52t-67 141q0 136 157 212q-284 5 -438 129q-90 72 -122 176.5t-32 325.5v758z" />
    <glyph glyph-name="uogonek" unicode="&#x173;" horiz-adv-x="1223" 
d="M132 908h234v-465q0 -126 32 -180q49 -84 197 -84q151 0 211 87q41 60 41 215v427h234v-908q-117 -63 -169.5 -112t-52.5 -95q0 -66 80 -66q43 0 110 26l53 -138q-105 -43 -188 -43q-113 0 -180.5 52t-67.5 139q0 83 57 138t190 99h-43l-12 83q-86 -63 -155 -85t-178 -22
q-246 0 -340 150q-29 46 -41 112t-12 180v490z" />
    <glyph glyph-name="Wcircumflex" unicode="&#x174;" horiz-adv-x="2243" 
d="M523 -8l-468 1373h264l303 -1017l426 1017h146l426 -1017l303 1017h264l-468 -1373h-183l-415 992l-415 -992h-183zM1121 1630l-181 -161l-174 79l281 284h149l281 -284l-174 -79z" />
    <glyph glyph-name="wcircumflex" unicode="&#x175;" horiz-adv-x="1646" 
d="M374 -7l-370 915h262l208 -579l296 579h105l296 -579l208 579h262l-370 -915h-156l-293 583l-292 -583h-156zM805 1194l-181 -169l-173 79l280 283h149l280 -283l-173 -79z" />
    <glyph glyph-name="Ycircumflex" unicode="&#x176;" horiz-adv-x="1321" 
d="M536 0v539l-563 826h283l405 -585l405 585h282l-562 -826v-539h-250zM660 1630l-182 -161l-174 79l281 284h150l281 -284l-174 -79z" />
    <glyph glyph-name="ycircumflex" unicode="&#x177;" horiz-adv-x="1047" 
d="M404 8l-414 900h262l266 -611l277 611h257l-663 -1386h-247zM530 1194l-182 -169l-172 79l280 283h148l280 -283l-172 -79z" />
    <glyph glyph-name="Ydieresis" unicode="&#x178;" horiz-adv-x="1321" 
d="M536 0v539l-563 826h283l405 -585l405 585h282l-562 -826v-539h-250zM417 1787q56 0 95 -38t39 -94q0 -55 -39 -93t-96 -38t-96.5 38.5t-39.5 94.5q0 54 40 92t97 38zM905 1787q56 0 95 -38t39 -93q0 -56 -39 -94t-96 -38q-58 0 -97 38.5t-39 94.5q0 54 40 92t97 38z" />
    <glyph glyph-name="Zacute" unicode="&#x179;" horiz-adv-x="1256" 
d="M23 0v108l783 1041h-685v216h1055v-108l-774 -1040h812v-217h-1191zM976 1758l-313 -289l-155 80l250 316z" />
    <glyph glyph-name="zacute" unicode="&#x17a;" horiz-adv-x="1038" 
d="M49 0v101l523 596h-464v211h844v-102l-524 -595h558v-211h-937zM861 1313l-313 -289l-154 80l249 316z" />
    <glyph glyph-name="Zdotaccent" unicode="&#x17b;" horiz-adv-x="1256" 
d="M23 0v108l783 1041h-685v216h1055v-108l-774 -1040h812v-217h-1191zM678 1791q65 0 104 -37t39 -99t-39 -99t-104 -37q-67 0 -105.5 37t-38.5 101q0 61 39.5 97.5t104.5 36.5z" />
    <glyph glyph-name="zdotaccent" unicode="&#x17c;" horiz-adv-x="1038" 
d="M49 0v101l523 596h-464v211h844v-102l-524 -595h558v-211h-937zM564 1334q66 0 105 -37t39 -99t-39 -99t-104 -37q-67 0 -106 37t-39 101q0 60 39.5 97t104.5 37z" />
    <glyph glyph-name="Zcaron" unicode="&#x17d;" horiz-adv-x="1256" 
d="M23 0v108l783 1041h-685v216h1055v-108l-774 -1040h812v-217h-1191zM684 1684l182 160l174 -78l-281 -284h-149l-282 284l175 78z" />
    <glyph glyph-name="zcaron" unicode="&#x17e;" horiz-adv-x="1038" 
d="M49 0v101l523 596h-464v211h844v-102l-524 -595h558v-211h-937zM545 1237l181 169l173 -78l-280 -283h-149l-280 283l173 78z" />
    <glyph glyph-name="longs" unicode="&#x17f;" horiz-adv-x="644" 
d="M181 703h-122v205h122v94q0 108 13 166t46 106q77 107 263 107q65 0 149 -15l-19 -190q-48 12 -87 12q-77 0 -104 -36t-27 -137v-1015h-234v703z" />
    <glyph glyph-name="uni018F" unicode="&#x18f;" horiz-adv-x="1755" 
d="M89 777h1310q-23 136 -89 216q-147 180 -434 180q-165 0 -283 -57.5t-228 -190.5l-162 150q91 113 177 173q201 142 497 142q386 0 602 -217q188 -190 188 -490q0 -301 -188 -491q-216 -217 -601 -217q-291 0 -492 130q-238 154 -284 441q-13 79 -13 187v44zM357 600
q16 -91 36 -140.5t60 -95.5q149 -172 424 -172q308 0 446 200q59 84 78 208h-1044z" />
    <glyph glyph-name="florin" unicode="&#x192;" horiz-adv-x="970" 
d="M339 708h-132l42 200h132l29 134q22 106 44.5 159.5t61.5 92.5q93 92 266 92q66 0 141 -21l-42 -201q-53 16 -83 16q-63 0 -96.5 -34t-51.5 -116l-26 -122h202l-42 -200h-202l-152 -715q-30 -139 -49 -185q-88 -217 -313 -217q-60 0 -148 25l42 199q37 -16 64 -16
q66 0 100.5 36t53.5 122z" />
    <glyph glyph-name="Ohorn" unicode="&#x1a0;" horiz-adv-x="1780" 
d="M1590 1014q76 -139 76 -331q0 -302 -188 -491q-216 -217 -601 -217t-600 217q-188 190 -188 491q0 300 188 490q119 120 297 174q143 43 298 43q360 0 597 -212q72 44 93.5 69t21.5 64q0 74 -111 159l155 107q67 -46 94 -79q68 -82 68 -192q0 -87 -44.5 -152t-155.5 -140
zM878 1173q-261 0 -408 -151q-123 -126 -123 -333q0 -220 123 -346q146 -151 410 -151q259 0 405 151q123 126 123 340q0 213 -123 339q-146 151 -407 151z" />
    <glyph glyph-name="ohorn" unicode="&#x1a1;" horiz-adv-x="1336" 
d="M1166 550q11 -55 11 -98q0 -227 -149 -352q-149 -124 -403 -124t-402 124q-150 125 -150 354q0 228 150 353q148 124 405 124q153 0 274.5 -50.5t183.5 -139.5q43 28 58.5 50t15.5 56q0 41 -24.5 76t-86.5 83l155 106q67 -46 94 -79q68 -81 68 -192q0 -87 -44 -151
t-156 -140zM626 729q-152 0 -236 -79q-76 -71 -76 -193q0 -129 76 -200q84 -79 237 -79q152 0 234 79q76 73 76 196q0 126 -76 197q-84 79 -235 79z" />
    <glyph glyph-name="Uhorn" unicode="&#x1af;" horiz-adv-x="1669" 
d="M177 1365h250v-769q0 -133 11.5 -193.5t45.5 -103.5q85 -107 299 -107q234 0 313 127q25 40 34 97.5t9 179.5v769h250v-200q103 62 103 144q0 43 -24 78t-87 83l156 107q60 -43 90 -79q71 -86 71 -194q0 -126 -118 -229q-45 -39 -191 -133v-335q0 -183 -19 -277
q-37 -175 -199 -270q-145 -85 -388 -85q-386 0 -531 216q-41 61 -58 154t-17 262v758z" />
    <glyph glyph-name="uhorn" unicode="&#x1b0;" horiz-adv-x="1361" 
d="M132 908h234v-465q0 -126 32 -180q49 -84 197 -84q151 0 211 87q41 60 41 215v427h234v-192q103 62 103 138q0 43 -24.5 78t-86.5 83l156 106q61 -44 90 -79q71 -84 71 -193q0 -129 -127 -236q-44 -37 -182 -126v-487h-211l-12 95q-60 -47 -90 -65q-94 -54 -245 -54
q-244 0 -338 150q-29 46 -41 112t-12 180v490z" />
    <glyph glyph-name="uni01C4" unicode="&#x1c4;" horiz-adv-x="2843" 
d="M177 0v1365h476q385 0 588 -145q140 -100 207 -264q51 -123 51 -274q0 -223 -110 -387q-103 -152 -279.5 -223.5t-447.5 -71.5h-485zM426 216h258q272 0 403 102q154 119 154 364q0 246 -157 365q-134 102 -401 102h-257v-933zM1610 0v108l783 1041h-685v216h1055v-108
l-774 -1040h812v-217h-1191zM2272 1684l181 160l174 -78l-280 -284h-150l-281 284l174 78z" />
    <glyph glyph-name="uni01C5" unicode="&#x1c5;" horiz-adv-x="2626" 
d="M177 0v1365h476q385 0 588 -145q140 -100 207 -264q51 -123 51 -274q0 -223 -110 -387q-103 -152 -279.5 -223.5t-447.5 -71.5h-485zM426 216h258q272 0 403 102q154 119 154 364q0 246 -157 365q-134 102 -401 102h-257v-933zM1636 0v101l523 596h-464v211h844v-102
l-524 -595h558v-211h-937zM2131 1237l182 169l173 -78l-280 -283h-149l-280 283l173 78z" />
    <glyph glyph-name="uni01C6" unicode="&#x1c6;" horiz-adv-x="2329" 
d="M961 0l-16 105q-63 -62 -161 -95.5t-218 -33.5q-238 0 -363 124q-130 129 -130 354t130 354q125 124 363 124q155 0 279 -60q45 -22 69 -48v541h235v-1365h-188zM613 730q-150 0 -228 -80q-71 -72 -71 -196t71 -196q78 -80 229 -80t229 80q71 72 71 192q0 128 -71 200
q-78 80 -230 80zM1339 0v101l523 596h-464v211h844v-102l-524 -595h558v-211h-937zM1835 1237l182 169l172 -78l-280 -283h-149l-280 283l173 78z" />
    <glyph glyph-name="uni01C7" unicode="&#x1c7;" horiz-adv-x="2061" 
d="M177 0v1365h250v-1149h616v-216h-866zM1633 1365h250v-856q0 -175 -27 -269q-39 -136 -157 -201q-115 -64 -277 -64q-106 0 -188 27t-178 92l100 196q75 -55 130 -76.5t124 -21.5q138 0 190 85q20 33 26.5 76t6.5 145v867z" />
    <glyph glyph-name="uni01C8" unicode="&#x1c8;" horiz-adv-x="1585" 
d="M177 0v1365h250v-1149h616v-216h-866zM1210 908h234v-925q0 -238 -40 -326q-32 -71 -106.5 -112.5t-170.5 -41.5q-61 0 -133 22v191q51 -20 90 -20q84 0 110 83q16 50 16 183v946zM1326 1335q66 0 105 -37t39 -99q0 -63 -39 -100t-104 -37q-67 0 -106 37t-39 102
q0 60 39.5 97t104.5 37z" />
    <glyph glyph-name="uni01C9" unicode="&#x1c9;" horiz-adv-x="1049" 
d="M144 0v1365h234v-1365h-234zM675 908h234v-925q0 -238 -40 -326q-32 -71 -106.5 -112.5t-170.5 -41.5q-61 0 -133 22v191q51 -20 90 -20q84 0 110 83q16 50 16 183v946zM791 1335q66 0 105 -37t39 -99q0 -63 -39 -100t-104 -37q-67 0 -106 37.5t-39 101.5q0 60 39.5 97
t104.5 37z" />
    <glyph glyph-name="uni01CA" unicode="&#x1ca;" horiz-adv-x="2663" 
d="M177 0v1368h173l891 -958v955h241v-1381h-156l-908 995v-979h-241zM2236 1365h250v-856q0 -174 -27 -269q-40 -136 -157 -201q-115 -64 -277 -64q-106 0 -189 27t-177 92l100 196q75 -55 130 -76.5t124 -21.5q138 0 190 85q20 33 26.5 75.5t6.5 145.5v867z" />
    <glyph glyph-name="uni01CB" unicode="&#x1cb;" horiz-adv-x="2187" 
d="M177 0v1368h173l891 -958v955h241v-1381h-156l-908 995v-979h-241zM1812 908h234v-925q0 -238 -40 -326q-32 -71 -107 -112.5t-170 -41.5q-61 0 -133 22l-1 191q52 -20 91 -20q84 0 110 83q16 50 16 183v946zM1929 1335q65 0 104 -37t39 -99q0 -63 -39 -100t-104 -37
q-67 0 -105.5 37t-38.5 102q0 60 39.5 97t104.5 37z" />
    <glyph glyph-name="uni01CC" unicode="&#x1cc;" horiz-adv-x="1785" 
d="M142 0v908h211l12 -81q128 105 346 105q258 0 358 -154q31 -47 44 -115t13 -183v-480h-234v455q0 128 -38 185q-58 89 -209 89q-161 0 -225 -87q-44 -60 -44 -215v-427h-234zM1411 908h234v-925q0 -238 -40 -326q-32 -71 -107 -112.5t-170 -41.5q-61 0 -133 22l-1 191
q52 -20 91 -20q84 0 110 83q16 50 16 183v946zM1527 1335q66 0 105 -37t39 -99t-39 -99.5t-104 -37.5q-67 0 -106 37.5t-39 101.5q0 60 39.5 97t104.5 37z" />
    <glyph glyph-name="uni01CD" unicode="&#x1cd;" horiz-adv-x="1544" 
d="M1143 294h-743l-139 -294h-264l684 1382h182l683 -1382h-264zM1057 483l-285 607l-286 -607h571zM772 1684l181 160l174 -78l-280 -284h-150l-281 284l174 78z" />
    <glyph glyph-name="uni01CE" unicode="&#x1ce;" horiz-adv-x="1290" 
d="M962 0l-16 105q-137 -129 -380 -129q-236 0 -363 124q-130 127 -130 354t130 354q127 124 361 124q230 0 362 -114l12 90h211v-908h-187zM614 730q-150 0 -229 -80q-71 -71 -71 -196q0 -124 71 -196q78 -80 230 -80q151 0 229 80q71 72 71 192q0 129 -71 200
q-79 80 -230 80zM632 1237l182 169l172 -78l-279 -283h-149l-280 283l172 78z" />
    <glyph glyph-name="uni01CF" unicode="&#x1cf;" horiz-adv-x="604" 
d="M177 0v1365h249v-1365h-249zM302 1684l181 160l175 -78l-281 -284h-150l-281 284l174 78z" />
    <glyph glyph-name="uni01D0" unicode="&#x1d0;" horiz-adv-x="517" 
d="M141 0v908h234v-908h-234zM258 1237l182 169l173 -78l-280 -283h-149l-280 283l172 78z" />
    <glyph glyph-name="uni01D1" unicode="&#x1d1;" horiz-adv-x="1755" 
d="M878 1390q383 0 600 -217q188 -189 188 -490q0 -302 -188 -491q-120 -121 -297 -174q-146 -43 -301 -43q-388 0 -603 217q-188 190 -188 500q0 182 79 333q107 205 340 299q165 66 370 66zM878 1173q-261 0 -408 -151q-123 -126 -123 -333q0 -220 123 -346
q146 -151 410 -151q259 0 405 151q123 126 123 340q0 213 -123 339q-146 151 -407 151zM878 1684l181 160l174 -78l-280 -284h-150l-281 284l174 78z" />
    <glyph glyph-name="uni01D2" unicode="&#x1d2;" horiz-adv-x="1249" 
d="M625 931q253 0 403 -124q149 -124 149 -353t-149 -354q-149 -124 -401 -124q-256 0 -404 124q-150 125 -150 361q0 222 150 346q149 124 402 124zM626 729q-152 0 -236 -79q-76 -71 -76 -193q0 -129 76 -200q84 -79 237 -79q152 0 234 79q76 73 76 196q0 126 -76 197
q-84 79 -235 79zM625 1237l182 169l172 -78l-280 -283h-149l-279 283l172 78z" />
    <glyph glyph-name="uni01D3" unicode="&#x1d3;" horiz-adv-x="1567" 
d="M177 1365h250v-769q0 -133 11.5 -193.5t45.5 -103.5q85 -107 299 -107q234 0 313 127q25 40 34 97.5t9 179.5v769h250v-758q0 -183 -19 -277q-37 -175 -199 -270q-145 -85 -388 -85q-386 0 -531 216q-41 61 -58 154t-17 262v758zM783 1684l182 160l174 -78l-281 -284
h-150l-281 284l174 78z" />
    <glyph glyph-name="uni01D4" unicode="&#x1d4;" horiz-adv-x="1223" 
d="M132 908h234v-465q0 -126 32 -180q49 -84 197 -84q151 0 211 87q41 60 41 215v427h234v-908h-211l-12 83q-86 -63 -155 -85t-178 -22q-246 0 -340 150q-29 46 -41 112t-12 180v490zM612 1237l181 169l173 -78l-280 -283h-149l-280 283l173 78z" />
    <glyph glyph-name="uni01DD" unicode="&#x1dd;" horiz-adv-x="1249" 
d="M72 548h850q-11 70 -49 112q-81 88 -249 88q-93 0 -154.5 -19.5t-144.5 -74.5l-134 147q75 63 188 96.5t247 33.5q252 0 401 -124t149 -353t-149 -354q-149 -124 -403 -124q-253 0 -402 124q-114 95 -139 251q-11 64 -11 197zM321 402q5 -95 43 -144q77 -99 261 -99
q145 0 224.5 63.5t79.5 179.5h-608z" />
    <glyph glyph-name="Gcaron" unicode="&#x1e6;" horiz-adv-x="1679" 
d="M890 551v195h701v-118q0 -142 -25 -239q-52 -205 -245 -314q-179 -100 -456 -100q-363 0 -570 182q-206 182 -206 522q0 326 192 512q206 199 565 199q387 0 629 -241l-164 -154q-170 177 -449 177q-259 0 -394 -144q-121 -129 -121 -352q0 -214 116 -339
q136 -146 413 -146q221 0 343.5 90.5t122.5 253.5v16h-452zM846 1684l182 160l174 -78l-280 -284h-150l-281 284l174 78z" />
    <glyph glyph-name="gcaron" unicode="&#x1e7;" horiz-adv-x="1290" 
d="M926 116q-44 -56 -144.5 -91t-216.5 -35q-236 0 -363 122q-130 126 -130 349q0 224 130 349q127 122 361 122q230 0 361 -113l12 89h212v-827q0 -153 -21 -246.5t-68 -153.5q-74 -93 -209 -140q-118 -40 -266 -40q-315 0 -468 214l187 109q71 -127 281 -127
q221 0 302 123q41 62 41 194zM613 730q-149 0 -229 -78q-71 -69 -71 -191t71 -191q80 -78 230 -78q151 0 229 78q71 70 71 187q0 125 -71 195q-79 78 -230 78zM645 1237l182 169l172 -78l-279 -283h-149l-280 283l172 78z" />
    <glyph glyph-name="uni01F4" unicode="&#x1f4;" horiz-adv-x="1679" 
d="M890 551v195h701v-118q0 -142 -25 -239q-52 -205 -245 -314q-179 -100 -456 -100q-363 0 -570 182q-206 182 -206 522q0 326 192 512q206 199 565 199q387 0 629 -241l-164 -154q-170 177 -449 177q-259 0 -394 -144q-121 -129 -121 -352q0 -214 116 -339
q136 -146 413 -146q221 0 343.5 90.5t122.5 253.5v16h-452zM1158 1758l-313 -289l-154 80l249 316z" />
    <glyph glyph-name="uni01F5" unicode="&#x1f5;" horiz-adv-x="1290" 
d="M926 116q-44 -56 -144.5 -91t-216.5 -35q-236 0 -363 122q-130 126 -130 349q0 224 130 349q127 122 361 122q230 0 361 -113l12 89h212v-827q0 -153 -21 -246.5t-68 -153.5q-74 -93 -209 -140q-118 -40 -266 -40q-315 0 -468 214l187 109q71 -127 281 -127
q221 0 302 123q41 62 41 194zM613 730q-149 0 -229 -78q-71 -69 -71 -191t71 -191q80 -78 230 -78q151 0 229 78q71 70 71 187q0 125 -71 195q-79 78 -230 78zM953 1313l-313 -289l-154 80l250 316z" />
    <glyph glyph-name="Aringacute" unicode="&#x1fa;" horiz-adv-x="1544" 
d="M1143 294h-743l-139 -294h-264l619 1250q-10 8 -41 47q-29 38 -29 97q0 93 65 155q63 60 161 60t161 -60q65 -62 65 -156q0 -80 -70 -144l618 -1249h-264zM1057 483l-285 607l-286 -607h571zM772 1497q-44 0 -72.5 -28.5t-28.5 -73.5q0 -48 28 -77.5t73 -29.5t73 29.5
t28 75.5t-28 75t-73 29zM1021 1883l-252 -260l-117 62l167 299z" />
    <glyph glyph-name="aringacute" unicode="&#x1fb;" horiz-adv-x="1290" 
d="M962 0l-16 105q-137 -129 -380 -129q-236 0 -363 124q-130 127 -130 354t130 354q127 124 361 124q230 0 362 -114l12 90h211v-908h-187zM614 730q-150 0 -229 -80q-71 -71 -71 -196q0 -124 71 -196q78 -80 230 -80q151 0 229 80q71 72 71 192q0 129 -71 200
q-79 80 -230 80zM646 1426q98 0 161 -60q65 -61 65 -156t-65 -156q-63 -60 -160 -60q-98 0 -162 60q-65 62 -65 159q0 93 65 153t161 60zM646 1314q-44 0 -72.5 -28.5t-28.5 -73.5q0 -48 28 -77t73 -29t73 29t28 76q0 46 -28 74.5t-73 28.5zM895 1732l-252 -259l-117 62
l166 299z" />
    <glyph glyph-name="AEacute" unicode="&#x1fc;" horiz-adv-x="2116" 
d="M1073 303h-617l-208 -303h-301l964 1365h1071v-216h-665v-343h584v-216h-584v-374h693v-216h-937v303zM1073 508v641h-54l-437 -641h491zM1746 1758l-313 -289l-154 80l249 316z" />
    <glyph glyph-name="aeacute" unicode="&#x1fd;" horiz-adv-x="2047" 
d="M899 549q-2 52 -18 88q-54 114 -302 114q-101 0 -168.5 -20.5t-150.5 -76.5l-113 145q65 48 121 73q132 59 317 59q213 0 338 -69q52 -29 115 -93q53 54 93 81q123 81 336 81q266 0 396 -128q124 -120 124 -330q0 -19 -3 -86h-825q6 -81 54 -133q85 -90 258 -90
q103 0 168 26.5t101 82.5l224 -40q-32 -88 -98 -142q-141 -115 -379 -115q-190 0 -318 66q-53 27 -124 97q-48 -74 -114 -106q-118 -57 -363 -57q-250 0 -370 65q-59 32 -92.5 90.5t-33.5 130.5q0 146 118 216.5t364 70.5h345zM899 387h-323q-144 0 -195 -15
q-88 -25 -88 -103q0 -66 63 -91.5t226 -25.5q211 0 275 56q25 21 33.5 49t8.5 86v44zM1164 549h597q-11 79 -44 117q-74 85 -253 85q-278 0 -300 -202zM1347 1313l-313 -289l-154 80l249 316z" />
    <glyph glyph-name="Oslashacute" unicode="&#x1fe;" horiz-adv-x="1755" 
d="M1526 1117q140 -179 140 -435q0 -300 -188 -490q-216 -217 -606 -217q-152 0 -262.5 32t-239.5 113l-196 -168l-121 144l176 152q-140 186 -140 434q0 302 188 491q216 217 606 217q150 0 265.5 -33.5t237.5 -111.5l196 169l120 -145zM1334 952l-777 -670l98 -55
q61 -35 223 -35q264 0 407 151q123 128 123 337q0 78 -10 124t-38 99zM421 413l777 670q-13 8 -19 12q-59 35 -79 43q-82 35 -223 35q-263 0 -407 -151q-123 -128 -123 -337q0 -78 10 -124t38 -99zM1196 1758l-313 -289l-154 80l250 316z" />
    <glyph glyph-name="oslashacute" unicode="&#x1ff;" horiz-adv-x="1249" 
d="M1096 732q80 -110 80 -281q0 -226 -149 -351q-149 -124 -402 -124q-210 0 -351 86l-143 -117l-101 129l123 100q-80 111 -80 281q0 227 150 352q148 124 401 124q212 0 351 -86l144 117l100 -129zM916 585l-465 -379q75 -35 175 -35q155 0 239 80q78 76 78 201
q0 76 -27 133zM334 322l464 379q-73 35 -175 35q-152 0 -238 -80q-78 -74 -78 -202q0 -72 27 -132zM943 1313l-313 -289l-154 80l249 316z" />
    <glyph glyph-name="uni0200" unicode="&#x200;" horiz-adv-x="1544" 
d="M1143 294h-743l-139 -294h-264l684 1382h182l683 -1382h-264zM1057 483l-285 607l-286 -607h571zM707 1765l207 93l171 -318l-134 -71zM381 1765l207 93l171 -318l-134 -71z" />
    <glyph glyph-name="uni0201" unicode="&#x201;" horiz-adv-x="1290" 
d="M962 0l-16 105q-137 -129 -380 -129q-236 0 -363 124q-130 127 -130 354t130 354q127 124 361 124q230 0 362 -114l12 90h211v-908h-187zM614 730q-150 0 -229 -80q-71 -71 -71 -196q0 -124 71 -196q78 -80 230 -80q151 0 229 80q71 72 71 192q0 129 -71 200
q-79 80 -230 80zM597 1321l207 94l171 -319l-135 -70zM271 1321l207 94l171 -319l-135 -70z" />
    <glyph glyph-name="Scommaaccent" unicode="&#x218;" horiz-adv-x="1256" 
d="M65 302l218 104q29 -72 60 -111q44 -54 111.5 -78.5t174.5 -24.5q157 0 230 57q62 47 62 130q0 94 -99 143q-52 26 -251 88q-196 61 -299 143q-130 101 -130 265q0 166 128 267q133 105 355 105q320 0 483 -230l-195 -124q-92 142 -294 142q-109 0 -171 -41t-62 -113
q0 -82 76 -127q35 -21 64 -31.5t167 -54.5q216 -68 325 -138q151 -97 151 -285q0 -116 -57 -214q-117 -199 -486 -199q-311 0 -460 148q-64 63 -101 179zM516 -87l219 -60l-161 -332l-171 49z" />
    <glyph glyph-name="scommaaccent" unicode="&#x219;" horiz-adv-x="932" 
d="M26 206l200 82q40 -71 92 -100.5t138 -29.5q192 0 192 106q0 49 -47 70q-36 16 -214 58q-144 34 -214 89q-83 65 -83 181q0 124 99 196.5t270 72.5q131 0 218.5 -40.5t153.5 -131.5l-169 -96q-58 92 -197 92q-71 0 -112.5 -24.5t-41.5 -66.5q0 -36 28.5 -55t110.5 -38
q217 -51 280 -82q77 -38 110.5 -89.5t33.5 -130.5q0 -140 -98 -212q-112 -81 -310 -81q-166 0 -278.5 59t-161.5 171zM349 -87l219 -60l-161 -332l-171 49z" />
    <glyph glyph-name="uni021A" unicode="&#x21a;" horiz-adv-x="1067" 
d="M408 0v1149h-411v216h1072v-216h-411v-1149h-250zM430 -87l219 -60l-160 -332l-171 49z" />
    <glyph glyph-name="uni021B" unicode="&#x21b;" horiz-adv-x="648" 
d="M171 703h-126v205h133l15 267l208 31v-298h213v-205h-213v-327q0 -108 20 -139q24 -37 97 -37q39 0 90 6v-208q-95 -16 -163 -16q-164 0 -226 94q-28 42 -38 104.5t-10 194.5v328zM212 -87l219 -60l-160 -332l-171 49z" />
    <glyph glyph-name="uni0226" unicode="&#x226;" horiz-adv-x="1544" 
d="M1143 294h-743l-139 -294h-264l684 1382h182l683 -1382h-264zM1057 483l-285 607l-286 -607h571zM772 1791q65 0 104 -37t39 -99t-39 -99t-104 -37q-67 0 -105.5 37t-38.5 101q0 61 39.5 97.5t104.5 36.5z" />
    <glyph glyph-name="uni0227" unicode="&#x227;" horiz-adv-x="1290" 
d="M962 0l-16 105q-137 -129 -380 -129q-236 0 -363 124q-130 127 -130 354t130 354q127 124 361 124q230 0 362 -114l12 90h211v-908h-187zM614 730q-150 0 -229 -80q-71 -71 -71 -196q0 -124 71 -196q78 -80 230 -80q151 0 229 80q71 72 71 192q0 129 -71 200
q-79 80 -230 80zM646 1334q65 0 104 -37t39 -99t-39 -99t-104 -37q-67 0 -105.5 37t-38.5 101q0 61 39.5 97.5t104.5 36.5z" />
    <glyph glyph-name="uni0237" unicode="&#x237;" horiz-adv-x="527" 
d="M152 908h234v-925q0 -238 -40 -326q-32 -71 -106.5 -112.5t-170.5 -41.5q-61 0 -133 22v191q51 -20 90 -20q84 0 110 83q16 50 16 183v946z" />
    <glyph glyph-name="uni0259" unicode="&#x259;" horiz-adv-x="1249" 
d="M72 548h850q-11 70 -49 112q-81 88 -249 88q-93 0 -154.5 -19.5t-144.5 -74.5l-134 147q75 63 188 96.5t247 33.5q252 0 401 -124t149 -353t-149 -354q-149 -124 -403 -124q-253 0 -402 124q-114 95 -139 251q-11 64 -11 197zM321 402q5 -95 43 -144q77 -99 261 -99
q145 0 224.5 63.5t79.5 179.5h-608z" />
    <glyph glyph-name="uni02BB" unicode="&#x2bb;" horiz-adv-x="529" 
d="M284 928l-208 69l237 492l166 -60z" />
    <glyph glyph-name="afii57929" unicode="&#x2bc;" horiz-adv-x="490" 
d="M236 1495l216 -79l-240 -545l-175 69z" />
    <glyph glyph-name="circumflex" unicode="&#x2c6;" horiz-adv-x="1024" 
d="M512 1194l-182 -169l-172 79l280 283h149l280 -283l-173 -79z" />
    <glyph glyph-name="caron" unicode="&#x2c7;" horiz-adv-x="1024" 
d="M512 1237l182 169l173 -78l-280 -283h-149l-280 283l172 78z" />
    <glyph glyph-name="uni02C9" unicode="&#x2c9;" horiz-adv-x="1024" 
d="M147 1112v183h729v-183h-729z" />
    <glyph glyph-name="breve" unicode="&#x2d8;" horiz-adv-x="1024" 
d="M160 1342h163q7 -81 30 -105q40 -44 159 -44q129 0 166 52q17 25 23 97h163q-1 -121 -47 -187q-84 -121 -305 -121q-238 0 -317 141q-34 60 -35 167z" />
    <glyph glyph-name="dotaccent" unicode="&#x2d9;" horiz-adv-x="1024" 
d="M512 1334q65 0 104 -37t39 -99t-39 -99t-104 -37q-67 0 -105.5 37t-38.5 101q0 60 39.5 97t104.5 37z" />
    <glyph glyph-name="ring" unicode="&#x2da;" horiz-adv-x="1024" 
d="M512 1435q97 0 161 -60q65 -61 65 -156t-65 -156q-64 -60 -160 -60q-98 0 -162 60q-65 62 -65 159q0 93 65 153t161 60zM512 1323q-44 0 -72.5 -28.5t-28.5 -73.5q0 -48 28 -77t73 -29t73 29t28 76q0 45 -28 74t-73 29z" />
    <glyph glyph-name="ogonek" unicode="&#x2db;" horiz-adv-x="1024" 
d="M900 0h170q-141 -85 -181 -122.5t-40 -84.5q0 -66 80 -66q42 0 109 26l53 -138q-105 -43 -188 -43q-113 0 -180.5 52t-67.5 139q0 114 121 185q25 14 124 52z" />
    <glyph glyph-name="tilde" unicode="&#x2dc;" horiz-adv-x="1024" 
d="M264 1078h-134q18 120 43 163q25 45 69 72t91 27q65 0 188 -54q92 -41 137 -41q78 0 102 92h134q-7 -99 -34 -151q-57 -111 -166 -111q-72 0 -201 57q-86 38 -129 38q-75 0 -100 -92z" />
    <glyph glyph-name="hungarumlaut" unicode="&#x2dd;" horiz-adv-x="1024" 
d="M648 1321l-244 -295l-135 70l171 319zM974 1321l-244 -295l-135 70l172 319z" />
    <glyph glyph-name="hookabovecomb" unicode="&#x309;" horiz-adv-x="1024" 
d="M462 1470v171h50q57 0 75 12.5t18 51.5q0 63 -63 63q-51 0 -118 -39l-53 134q68 35 102.5 45.5t84.5 10.5q101 0 157 -52.5t56 -147.5q0 -171 -171 -199v-50h-138z" />
    <glyph glyph-name="uni0312" unicode="&#x312;" horiz-adv-x="1024" 
d="M606 1005l-219 60l165 353l171 -49z" />
    <glyph glyph-name="uni0313" unicode="&#x313;" horiz-adv-x="212" 
d="M73 1454l201 -38l-146 -545l-165 43z" />
    <glyph glyph-name="uni031B" unicode="&#x31b;" horiz-adv-x="212" 
d="M73 1454l201 -38l-146 -545l-165 43z" />
    <glyph glyph-name="uni0323" unicode="&#x323;" horiz-adv-x="1024" 
d="M513 -93q60 0 101.5 -40.5t41.5 -98.5q0 -59 -41.5 -99.5t-102.5 -40.5t-102.5 41t-41.5 100q0 57 42.5 97.5t102.5 40.5z" />
    <glyph glyph-name="commaaccent" unicode="&#x326;" horiz-adv-x="1024" 
d="M401 -87l218 -60l-160 -332l-171 49z" />
    <glyph glyph-name="uni0374" unicode="&#x374;" horiz-adv-x="513" 
d="M60 901l163 552h239l-220 -552h-182z" />
    <glyph glyph-name="uni0375" unicode="&#x375;" horiz-adv-x="513" 
d="M44 -243l163 552h239l-220 -552h-182z" />
    <glyph glyph-name="uni037A" unicode="&#x37a;" horiz-adv-x="1147" 
d="M495 0h197v-85q0 -55 4 -74t19 -32q25 -23 80 -23q44 0 100 8l14 -139q-84 -19 -185 -19q-146 0 -197 61q-19 22 -25.5 54.5t-6.5 107.5v141z" />
    <glyph glyph-name="uni037E" unicode="&#x37e;" horiz-adv-x="591" 
d="M260 252l217 -79l-235 -546l-175 70zM339 888q61 0 103 -41t42 -100t-42.5 -100t-102.5 -41q-62 0 -104 41t-42 102q0 58 42.5 98.5t103.5 40.5z" />
    <glyph glyph-name="tonos" unicode="&#x384;" horiz-adv-x="1206" 
d="M521 1058l-32 405h232l-32 -405h-168z" />
    <glyph glyph-name="dieresistonos" unicode="&#x385;" horiz-adv-x="997" 
d="M424 1058l-31 405h231l-31 -405h-169zM207 1324q54 0 90 -36.5t36 -89.5t-36.5 -89.5t-88.5 -36.5q-54 0 -90 37t-36 91q0 51 36.5 87.5t88.5 36.5zM810 1324q52 0 88.5 -36.5t36.5 -89.5t-36.5 -89.5t-88.5 -36.5q-54 0 -90 37t-36 91q0 51 36.5 87.5t89.5 36.5z" />
    <glyph glyph-name="Alphatonos" unicode="&#x386;" horiz-adv-x="1544" 
d="M1143 294h-743l-139 -294h-264l684 1382h182l683 -1382h-264zM1057 483l-285 607l-286 -607h571zM159 1019l-33 454h237l-32 -454h-172z" />
    <glyph glyph-name="uni0387" unicode="&#x387;" horiz-adv-x="592" 
d="M297 753q61 0 103 -41t42 -100t-42 -100t-103 -41q-62 0 -104 41t-42 102q0 58 42.5 98.5t103.5 40.5z" />
    <glyph glyph-name="Epsilontonos" unicode="&#x388;" horiz-adv-x="1538" 
d="M68 1019l-33 454h237l-32 -454h-172zM496 0v1365h908v-216h-664v-335h583v-216h-583v-382h693v-216h-937z" />
    <glyph glyph-name="Etatonos" unicode="&#x389;" horiz-adv-x="1929" 
d="M68 1019l-33 454h237l-32 -454h-172zM496 0v1365h250v-551h756v551h250v-1365h-250v598h-756v-598h-250z" />
    <glyph glyph-name="Iotatonos" unicode="&#x38a;" horiz-adv-x="923" 
d="M68 1019l-33 454h237l-32 -454h-172zM496 0v1365h250v-1365h-250z" />
    <glyph glyph-name="Omicrontonos" unicode="&#x38c;" horiz-adv-x="2028" 
d="M68 1019l-33 454h237l-32 -454h-172zM1150 1390q384 0 601 -217q188 -189 188 -490t-188 -491q-120 -121 -298 -174q-145 -43 -300 -43q-388 0 -604 217q-188 190 -188 500q0 182 79 333q107 205 341 299q164 66 369 66zM1150 1173q-261 0 -408 -151q-123 -126 -123 -333
q0 -220 123 -346q146 -151 410 -151q260 0 406 151q123 126 123 340q0 213 -123 339q-146 151 -408 151z" />
    <glyph glyph-name="Upsilontonos" unicode="&#x38e;" horiz-adv-x="1654" 
d="M68 1019l-33 454h237l-32 -454h-172zM869 0v539l-563 826h284l404 -585l404 585h283l-563 -826v-539h-249z" />
    <glyph glyph-name="Omegatonos" unicode="&#x38f;" horiz-adv-x="2115" 
d="M68 1019l-33 454h237l-32 -454h-172zM378 0v216h397v36q-106 37 -165.5 73.5t-109.5 93.5q-119 138 -119 340q0 190 108 338q211 289 704 289q358 0 577 -160q127 -94 188 -234q48 -108 48 -233q0 -202 -119 -340q-49 -57 -109 -93.5t-166 -73.5v-36h397v-216h-645v320
q183 39 284.5 145t101.5 257q0 196 -147 313q-149 119 -410 119q-260 0 -409 -119q-147 -117 -147 -313q0 -187 158 -304q95 -70 228 -98v-320h-645z" />
    <glyph glyph-name="iotadieresistonos" unicode="&#x390;" horiz-adv-x="619" 
d="M142 908h240v-576q0 -86 18 -115t73 -29q34 0 94 13l11 -193q-94 -25 -168 -25q-165 0 -229 116q-39 69 -39 243v566zM177 1058l-31 405h231l-31 -405h-169zM-40 1324q54 0 90 -36.5t36 -89.5t-36.5 -89.5t-88.5 -36.5q-54 0 -90 37t-36 91q0 51 36.5 87.5t88.5 36.5z
M563 1324q52 0 88.5 -36.5t36.5 -89.5t-36.5 -89.5t-88.5 -36.5q-54 0 -90 37t-36 91q0 51 36.5 87.5t89.5 36.5z" />
    <glyph glyph-name="Alpha" unicode="&#x391;" horiz-adv-x="1544" 
d="M1143 294h-743l-139 -294h-264l684 1382h182l683 -1382h-264zM1057 483l-285 607l-286 -607h571z" />
    <glyph glyph-name="Beta" unicode="&#x392;" horiz-adv-x="1304" 
d="M177 0v1365h430q174 0 284 -29t178 -92q101 -96 101 -242q0 -181 -194 -273q117 -47 162 -92q104 -101 104 -256q0 -214 -180 -312q-126 -69 -393 -69h-492zM411 797h206q161 0 230 35q89 44 89 150q0 107 -101 155q-64 31 -218 31h-206v-371zM411 206h230q184 0 260 39
q94 49 94 161q0 126 -127 178q-71 29 -239 29h-218v-407z" />
    <glyph glyph-name="Gamma" unicode="&#x393;" horiz-adv-x="1181" 
d="M177 0v1365h938v-216h-688v-1149h-250z" />
    <glyph glyph-name="uni0394" unicode="&#x394;" horiz-adv-x="1580" 
d="M1510 0h-1440v170l592 1197h257l591 -1197v-170zM1236 216l-446 891l-446 -891h892z" />
    <glyph glyph-name="Epsilon" unicode="&#x395;" horiz-adv-x="1220" 
d="M177 0v1365h908v-216h-664v-335h583v-216h-583v-382h693v-216h-937z" />
    <glyph glyph-name="Zeta" unicode="&#x396;" horiz-adv-x="1256" 
d="M23 0v108l783 1041h-685v216h1055v-108l-774 -1040h812v-217h-1191z" />
    <glyph glyph-name="Eta" unicode="&#x397;" horiz-adv-x="1610" 
d="M177 0v1365h250v-551h757v551h249v-1365h-249v598h-757v-598h-250z" />
    <glyph glyph-name="Theta" unicode="&#x398;" horiz-adv-x="1755" 
d="M521 588v207h713v-207h-713zM878 1390q383 0 600 -217q188 -189 188 -490t-188 -491q-120 -121 -297 -174q-146 -43 -301 -43q-388 0 -603 217q-188 190 -188 500q0 182 79 333q107 205 340 299q165 66 370 66zM878 1173q-261 0 -408 -151q-123 -125 -123 -333
q0 -220 123 -346q146 -151 410 -151q259 0 405 151q123 126 123 340q0 213 -123 339q-146 151 -407 151z" />
    <glyph glyph-name="Iota" unicode="&#x399;" horiz-adv-x="604" 
d="M177 0v1365h250v-1365h-250z" />
    <glyph glyph-name="Kappa" unicode="&#x39a;" horiz-adv-x="1345" 
d="M177 0v1365h250v-639l619 639h295l-583 -574l657 -791h-314l-502 633l-172 -168v-465h-250z" />
    <glyph glyph-name="Lambda" unicode="&#x39b;" horiz-adv-x="1462" 
d="M31 0l579 1367h248l573 -1367h-266l-432 1085l-439 -1085h-263z" />
    <glyph glyph-name="Mu" unicode="&#x39c;" horiz-adv-x="1918" 
d="M177 0v1365h187l595 -805l595 805h187v-1365h-242v939l-471 -647h-138l-471 647v-939h-242z" />
    <glyph glyph-name="Nu" unicode="&#x39d;" horiz-adv-x="1660" 
d="M177 0v1368h173l891 -958v955h241v-1381h-156l-908 995v-979h-241z" />
    <glyph glyph-name="Xi" unicode="&#x39e;" horiz-adv-x="1428" 
d="M120 1149v216h1188v-216h-1188zM195 588v207h1038v-207h-1038zM120 0v216h1188v-216h-1188z" />
    <glyph glyph-name="Omicron" unicode="&#x39f;" horiz-adv-x="1755" 
d="M878 1390q383 0 600 -217q188 -189 188 -490t-188 -491q-120 -121 -297 -174q-146 -43 -301 -43q-388 0 -603 217q-188 190 -188 500q0 182 79 333q107 205 340 299q165 66 370 66zM878 1173q-261 0 -408 -151q-123 -125 -123 -333q0 -220 123 -346q146 -151 410 -151
q259 0 405 151q123 126 123 340q0 213 -123 339q-146 151 -407 151z" />
    <glyph glyph-name="Pi" unicode="&#x3a0;" horiz-adv-x="1626" 
d="M177 0v1365h1271v-1365h-250v1149h-772v-1149h-249z" />
    <glyph glyph-name="Rho" unicode="&#x3a1;" horiz-adv-x="1216" 
d="M421 478v-478h-244v1365h378q296 0 443 -99q171 -114 171 -345q0 -138 -67 -243q-129 -200 -514 -200h-167zM421 687h149q182 0 260 52q91 60 91 181q0 137 -111 197q-72 39 -240 39h-149v-469z" />
    <glyph glyph-name="Sigma" unicode="&#x3a3;" horiz-adv-x="1290" 
d="M118 0v121l465 596l-427 523v125h1007v-216h-684l345 -396v-55l-388 -482h751v-216h-1069z" />
    <glyph glyph-name="Tau" unicode="&#x3a4;" horiz-adv-x="1067" 
d="M408 0v1149h-411v216h1072v-216h-411v-1149h-250z" />
    <glyph glyph-name="Upsilon" unicode="&#x3a5;" horiz-adv-x="1321" 
d="M536 0v539l-563 826h283l405 -585l405 585h282l-562 -826v-539h-250z" />
    <glyph glyph-name="Phi" unicode="&#x3a6;" horiz-adv-x="2111" 
d="M942 77q-320 16 -493 90q-179 76 -266 210q-88 133 -88 305q0 235 157 389q101 101 267 152.5t423 63.5v188h227v-188q317 -15 493 -90q179 -76 266 -210q88 -133 88 -305q0 -235 -157 -389q-102 -101 -265.5 -152t-424.5 -64v-188h-227v188zM942 280v804
q-218 -11 -331 -51q-259 -91 -259 -351q0 -279 298 -364q102 -28 292 -38zM1169 280q218 11 331 51q259 91 259 351q0 279 -298 364q-102 28 -292 38v-804z" />
    <glyph glyph-name="Chi" unicode="&#x3a7;" horiz-adv-x="1361" 
d="M550 704l-518 661h298l382 -484l377 484h265l-518 -643l566 -722h-299l-427 541l-433 -541h-269z" />
    <glyph glyph-name="Psi" unicode="&#x3a8;" horiz-adv-x="1934" 
d="M846 0v305q-208 12 -317 36t-201 77q-198 116 -198 413v534h250v-498q0 -137 41 -200q45 -69 138 -98.5t287 -36.5v833h243v-833q227 6 333 55q72 35 102.5 99t30.5 181v498h250v-534q0 -297 -199 -413q-91 -53 -200 -77t-317 -36v-305h-243z" />
    <glyph glyph-name="uni03A9" unicode="&#x3a9;" horiz-adv-x="1843" 
d="M101 0v216h397v36q-106 37 -166 73.5t-109 93.5q-119 138 -119 340q0 190 108 338q211 289 704 289q358 0 576 -160q127 -94 189 -234q48 -108 48 -233q0 -202 -119 -340q-50 -57 -109.5 -93.5t-165.5 -73.5v-36h397v-216h-645v320q183 39 284.5 145t101.5 257
q0 196 -147 313q-149 119 -410 119q-260 0 -409 -119q-147 -117 -147 -313q0 -187 158 -304q95 -70 228 -98v-320h-645z" />
    <glyph glyph-name="Iotadieresis" unicode="&#x3aa;" horiz-adv-x="604" 
d="M177 0v1365h250v-1365h-250zM59 1787q57 0 96 -38t39 -94q0 -54 -39.5 -92.5t-95.5 -38.5q-58 0 -97 38.5t-39 94.5q0 54 40 92t96 38zM546 1787q56 0 95.5 -38.5t39.5 -93.5t-39.5 -93t-95.5 -38q-58 0 -97 38.5t-39 94.5q0 54 39.5 92t96.5 38z" />
    <glyph glyph-name="Upsilondieresis" unicode="&#x3ab;" horiz-adv-x="1321" 
d="M536 0v539l-563 826h283l405 -585l405 585h282l-562 -826v-539h-250zM417 1787q56 0 95 -38.5t39 -93.5q0 -54 -39 -92.5t-96 -38.5t-96.5 38.5t-39.5 94.5q0 54 40 92t97 38zM905 1787q56 0 95 -38.5t39 -93.5t-39 -93t-96 -38q-58 0 -97 38.5t-39 94.5q0 54 40 92
t97 38z" />
    <glyph glyph-name="alphatonos" unicode="&#x3ac;" horiz-adv-x="1290" 
d="M962 0l-16 118q-136 -142 -383 -142q-233 0 -360 124q-130 127 -130 354t130 354q127 124 357 124q234 0 366 -129l12 105h211v-908h-187zM614 730q-150 0 -229 -80q-71 -71 -71 -196q0 -124 71 -196q78 -80 230 -80q151 0 229 80q71 72 71 192q0 128 -71 200
q-78 80 -230 80zM563 1058l-32 405h232l-31 -405h-169z" />
    <glyph glyph-name="epsilontonos" unicode="&#x3ad;" horiz-adv-x="1142" 
d="M859 536v-152h-230q-137 0 -201 -26.5t-64 -84.5q0 -117 277 -117q109 0 184 22.5t145 76.5l126 -156q-112 -71 -223 -100t-273 -29q-212 0 -342 60q-67 31 -108 91.5t-41 130.5q0 80 45.5 137t132.5 86q-81 35 -116 80t-35 114q0 95 66 161q109 109 397 109
q147 0 256.5 -28.5t213.5 -93.5l-123 -149q-135 84 -334 84q-107 0 -167 -32q-57 -30 -57 -86q0 -51 58 -74.5t186 -23.5h227zM528 1058l-31 405h232l-32 -405h-169z" />
    <glyph glyph-name="etatonos" unicode="&#x3ae;" horiz-adv-x="1258" 
d="M142 0v908h211l12 -95q126 119 348 119q256 0 356 -154q31 -47 44 -115t13 -183v-958h-234v933q0 128 -38 185q-58 89 -209 89q-161 0 -225 -87q-44 -60 -44 -215v-427h-234zM547 1058l-32 405h232l-32 -405h-168z" />
    <glyph glyph-name="iotatonos" unicode="&#x3af;" horiz-adv-x="619" 
d="M140 908h240v-576q0 -86 18 -115t73 -29q34 0 94 13l11 -193q-94 -25 -167 -25q-166 0 -231 116q-38 69 -38 243v566zM175 1058l-31 405h232l-32 -405h-169z" />
    <glyph glyph-name="upsilondieresistonos" unicode="&#x3b0;" horiz-adv-x="1237" 
d="M142 908h240v-510q0 -75 12 -114t44 -68q61 -55 180 -55q131 0 191 66q26 28 35.5 65t9.5 106v510h240v-522q0 -112 -24 -183t-79 -120q-66 -60 -155 -87.5t-218 -27.5q-174 0 -276 50q-109 54 -154.5 137.5t-45.5 230.5v522zM544 1058l-31 405h231l-31 -405h-169z
M328 1324q53 0 89 -36.5t36 -88.5q0 -54 -36.5 -90.5t-88.5 -36.5q-53 0 -89.5 37t-36.5 91q0 51 36.5 87.5t89.5 36.5zM929 1324q53 0 89 -36.5t36 -89.5t-36.5 -89.5t-88.5 -36.5q-53 0 -89.5 37t-36.5 91q0 51 36.5 87.5t89.5 36.5z" />
    <glyph glyph-name="alpha" unicode="&#x3b1;" horiz-adv-x="1290" 
d="M962 0l-16 118q-136 -142 -383 -142q-233 0 -360 124q-130 127 -130 354t130 354q127 124 357 124q234 0 366 -129l12 105h211v-908h-187zM614 730q-150 0 -229 -80q-71 -71 -71 -196q0 -124 71 -196q78 -80 230 -80q151 0 229 80q71 72 71 192q0 128 -71 200
q-78 80 -230 80z" />
    <glyph glyph-name="beta" unicode="&#x3b2;" horiz-adv-x="1272" 
d="M382 68v-546h-240v1443q0 108 21 174t74 123q124 132 372 132q284 0 402 -170q63 -90 63 -215q0 -99 -60 -177q-21 -27 -87 -73q81 -31 123.5 -59.5t75.5 -73.5q67 -90 67 -228q0 -197 -138 -306q-128 -102 -353 -102q-98 0 -163.5 16t-156.5 62zM382 261q68 -46 124 -62
t146 -16q301 0 301 224q0 110 -79.5 165.5t-235.5 55.5h-40v197h28q103 0 158 45.5t55 128.5q0 93 -61 144.5t-171 51.5q-131 0 -190 -76q-35 -46 -35 -146v-712z" />
    <glyph glyph-name="gamma" unicode="&#x3b3;" horiz-adv-x="1046" 
d="M406 -2l-416 910h262l271 -653l271 653h262l-416 -910v-476h-234v476z" />
    <glyph glyph-name="delta" unicode="&#x3b4;" horiz-adv-x="1281" 
d="M559 896q-141 67 -193 113q-67 59 -67 145q0 63 42.5 111t119.5 73q86 27 328 27h184v-195h-199q-129 0 -178.5 -14.5t-49.5 -51.5t39 -64t235 -128q185 -95 270 -184q112 -117 112 -282q0 -128 -70 -243q-72 -121 -207 -178q-125 -54 -283 -54q-259 0 -413 140
q-150 138 -150 344q0 161 95 278q123 151 385 163zM638 731q-142 0 -231 -83q-81 -78 -81 -189q0 -123 84 -202q86 -81 232 -81q140 0 226.5 78t86.5 204q0 115 -79 189q-90 84 -238 84z" />
    <glyph glyph-name="epsilon" unicode="&#x3b5;" horiz-adv-x="1142" 
d="M859 536v-152h-230q-137 0 -201 -26.5t-64 -84.5q0 -117 277 -117q109 0 184 22.5t145 76.5l126 -156q-112 -71 -223 -100t-273 -29q-212 0 -342 60q-67 31 -108 91.5t-41 130.5q0 80 45.5 137t132.5 86q-81 35 -116 80t-35 114q0 95 66 161q109 109 397 109
q147 0 256.5 -28.5t213.5 -93.5l-123 -149q-135 84 -334 84q-107 0 -167 -32q-57 -30 -57 -86q0 -51 58 -74.5t186 -23.5h227z" />
    <glyph glyph-name="zeta" unicode="&#x3b6;" horiz-adv-x="945" 
d="M133 1170v195h765v-126q-226 -263 -389 -518q-89 -139 -117 -205.5t-28 -138.5q0 -116 91 -167q32 -18 64.5 -26.5t159.5 -30.5q114 -20 176 -77.5t62 -143.5q0 -133 -113 -233q-53 -47 -172 -129l-132 138q112 63 150.5 102t38.5 88q0 55 -50 74q-29 11 -138 25
q-119 15 -181.5 36t-109.5 62q-100 88 -100 250q0 98 37 189.5t131 224.5q137 194 324 411h-469z" />
    <glyph glyph-name="eta" unicode="&#x3b7;" horiz-adv-x="1258" 
d="M142 0v908h211l12 -95q126 119 348 119q256 0 356 -154q31 -47 44 -115t13 -183v-958h-234v933q0 128 -38 185q-58 89 -209 89q-161 0 -225 -87q-44 -60 -44 -215v-427h-234z" />
    <glyph glyph-name="theta" unicode="&#x3b8;" horiz-adv-x="1291" 
d="M645 1394q285 0 431 -211q140 -200 140 -500q0 -299 -140 -501q-145 -211 -430 -211q-287 0 -432 211q-140 202 -140 510q0 294 140 491q149 211 431 211zM312 787h666q-8 125 -46 215q-42 98 -110 145q-69 46 -177 46q-144 0 -223 -88q-97 -108 -110 -318zM312 597
q19 -425 333 -425q144 0 223 88q100 113 110 337h-666z" />
    <glyph glyph-name="iota" unicode="&#x3b9;" horiz-adv-x="619" 
d="M142 908h240v-576q0 -86 18 -115t73 -29q34 0 94 13l11 -193q-94 -25 -167 -25q-166 0 -231 116q-38 69 -38 243v566z" />
    <glyph glyph-name="kappa" unicode="&#x3ba;" horiz-adv-x="1092" 
d="M142 0v908h234v-391l395 391h308l-412 -355l449 -553h-280l-328 419l-132 -116v-303h-234z" />
    <glyph glyph-name="lambda" unicode="&#x3bb;" horiz-adv-x="1131" 
d="M427 902l-228 463h254l673 -1365h-256l-324 659l-271 -659h-267z" />
    <glyph glyph-name="uni03BC" unicode="&#x3bc;" horiz-adv-x="1234" 
d="M142 908h234v-456q0 -150 33 -200q51 -73 187 -73q160 0 223 91q22 31 30.5 80.5t8.5 148.5v409h234v-908h-211l-12 95q-67 -68 -133 -96t-161 -28q-62 0 -98 10t-101 46v-505h-234v1386z" />
    <glyph glyph-name="nu" unicode="&#x3bd;" horiz-adv-x="1046" 
d="M442 -7l-452 915h262l271 -580l272 580h261l-452 -915h-162z" />
    <glyph glyph-name="xi" unicode="&#x3be;" horiz-adv-x="970" 
d="M137 1170v195h776v-161q-465 -56 -465 -245q0 -93 93.5 -141t276.5 -48h79v-163h-139q-122 0 -188.5 -12.5t-116.5 -45.5q-90 -58 -90 -172q0 -111 94 -164q33 -19 65.5 -27.5t155.5 -29.5q258 -44 258 -224q0 -134 -114 -235q-52 -46 -172 -128l-132 138
q111 62 150.5 101.5t39.5 88.5q0 56 -53 76q-34 12 -147 25q-121 14 -186 35.5t-115 65.5q-97 85 -97 247q0 147 88 245q60 66 202 125q-82 31 -122 61q-70 51 -70 144q0 99 74 163q33 28 69 44.5t122 41.5h-336z" />
    <glyph glyph-name="omicron" unicode="&#x3bf;" horiz-adv-x="1249" 
d="M625 931q253 0 403 -124q149 -124 149 -353q0 -230 -149 -354t-401 -124q-256 0 -404 124q-150 125 -150 361q0 222 150 346q149 124 402 124zM626 729q-152 0 -236 -79q-76 -71 -76 -193q0 -129 76 -200q84 -79 237 -79q152 0 234 79q76 73 76 196q0 126 -76 197
q-84 79 -235 79z" />
    <glyph glyph-name="pi" unicode="&#x3c0;" horiz-adv-x="1334" 
d="M233 0v713h-162v195h1191v-195h-162v-713h-242v713h-383v-713h-242z" />
    <glyph glyph-name="rho" unicode="&#x3c1;" horiz-adv-x="1252" 
d="M325 111v-589h-240v842q0 254 97 380q145 187 450 187q221 0 356 -94q191 -133 191 -388q0 -218 -129.5 -346t-349.5 -128q-244 0 -375 136zM632 729q-148 0 -231 -79q-74 -71 -74 -193q0 -130 74 -201q83 -79 233 -79q149 0 230 79q74 73 74 197q0 125 -74 197
q-82 79 -232 79z" />
    <glyph glyph-name="uni03C2" unicode="&#x3c2;" horiz-adv-x="1056" 
d="M1047 794l-135 -162q-113 98 -283 98q-153 0 -237 -76q-78 -71 -78 -203q0 -158 117 -223q36 -19 75.5 -29t189.5 -38q132 -24 196 -80t64 -148q0 -135 -113 -236q-53 -46 -173 -128l-132 138q114 64 152 102.5t38 89.5q0 55 -56 74q-31 11 -151 25q-137 17 -210 42
t-127 75q-111 101 -111 318q0 199 89 314q142 184 453 184q275 0 432 -137z" />
    <glyph glyph-name="sigma" unicode="&#x3c3;" horiz-adv-x="1303" 
d="M1294 908v-195h-246q135 -111 135 -290q0 -206 -147 -328q-152 -125 -413 -125q-256 0 -405 136q-145 134 -145 342q0 158 91 274q97 124 277 166q85 20 274 20h579zM788 713h-102q-176 0 -257 -55q-103 -71 -103 -213q0 -121 69 -191q83 -83 230 -83q161 0 245 90
q67 72 67 190q0 158 -149 262z" />
    <glyph glyph-name="tau" unicode="&#x3c4;" horiz-adv-x="967" 
d="M349 713h-297v195h864v-195h-327v-381q0 -86 18 -115t73 -29q35 0 94 13l11 -193q-94 -25 -170 -25q-163 0 -228 116q-38 69 -38 243v371z" />
    <glyph glyph-name="upsilon" unicode="&#x3c5;" horiz-adv-x="1236" 
d="M142 908h240v-510q0 -75 12 -114t44 -68q61 -55 180 -55q131 0 191 66q26 28 35.5 65t9.5 106v510h240v-522q0 -112 -24 -183t-79 -120q-66 -60 -155 -87.5t-218 -27.5q-174 0 -276 50q-109 54 -154.5 137.5t-45.5 230.5v522z" />
    <glyph glyph-name="phi" unicode="&#x3c6;" horiz-adv-x="1603" 
d="M683 168v751q80 11 156 11q316 0 500 -116q185 -117 185 -364q0 -221 -153.5 -340.5t-453.5 -132.5v-455h-234v456q-225 12 -362 82q-242 123 -242 385q0 305 338 419l96 -135q-75 -36 -112 -66q-81 -67 -81 -202q0 -178 158 -250q74 -33 205 -43zM917 168q151 8 232 49
q134 69 134 234q0 278 -366 288v-571z" />
    <glyph glyph-name="chi" unicode="&#x3c7;" horiz-adv-x="1048" 
d="M376 476l-369 432h286l242 -277l246 277h250l-381 -417l413 -491h-286l-285 333l-290 -333h-252z" />
    <glyph glyph-name="psi" unicode="&#x3c8;" horiz-adv-x="1686" 
d="M142 908h245v-439q0 -96 13 -146t46 -80q68 -60 241 -60h39v725h234v-725h39q174 0 241 60q33 30 46 79t13 147v439h245v-426q0 -178 -39 -270q-48 -115 -172.5 -169.5t-343.5 -55.5h-29v-465h-234v465h-29q-292 2 -423 103q-73 57 -102.5 144t-29.5 248v426z" />
    <glyph glyph-name="omega" unicode="&#x3c9;" horiz-adv-x="1671" 
d="M728 624h214v-172q0 -134 25 -188q39 -86 152 -86q100 0 160.5 73t60.5 192q0 113 -42 203.5t-139 183.5l173 105q101 -87 154 -172q100 -160 100 -345q0 -219 -129 -336q-120 -111 -306 -111q-165 0 -256 81q-31 28 -60 79q-90 -160 -316 -160q-186 0 -306 111
q-129 117 -129 336q0 301 254 517l173 -105q-77 -75 -111 -132q-70 -118 -70 -254q0 -129 69 -201q61 -65 152 -65q121 0 157 98q20 55 20 176v172z" />
    <glyph glyph-name="iotadieresis" unicode="&#x3ca;" horiz-adv-x="619" 
d="M142 908h240v-576q0 -86 18 -115t73 -29q34 0 94 13l11 -193q-94 -25 -170 -25q-163 0 -228 116q-38 69 -38 243v566zM96 1330q57 0 96 -38t39 -93t-39.5 -93.5t-95.5 -38.5q-58 0 -97 38.5t-39 94.5q0 54 39.5 92t96.5 38zM524 1330q57 0 96 -38t39 -94q0 -55 -39.5 -93
t-95.5 -38q-58 0 -97 38.5t-39 94.5q0 54 39.5 92t96.5 38z" />
    <glyph glyph-name="upsilondieresis" unicode="&#x3cb;" horiz-adv-x="1236" 
d="M142 908h240v-510q0 -75 12 -114t44 -68q61 -55 180 -55q131 0 191 66q26 28 35.5 65t9.5 106v510h240v-522q0 -112 -24 -183t-79 -120q-66 -60 -155 -87.5t-218 -27.5q-174 0 -276 50q-109 54 -154.5 137.5t-45.5 230.5v522zM405 1330q57 0 96 -38t39 -93t-39.5 -93.5
t-95.5 -38.5q-58 0 -97 38.5t-39 94.5q0 54 39.5 92t96.5 38zM833 1330q57 0 96 -38t39 -94q0 -55 -39.5 -93t-95.5 -38q-58 0 -97 38.5t-39 94.5q0 54 39.5 92t96.5 38z" />
    <glyph glyph-name="omicrontonos" unicode="&#x3cc;" horiz-adv-x="1249" 
d="M625 931q253 0 403 -124q149 -124 149 -353q0 -230 -149 -354t-401 -124q-256 0 -404 124q-150 125 -150 361q0 222 150 346q149 124 402 124zM626 729q-152 0 -236 -79q-76 -71 -76 -193q0 -129 76 -200q84 -79 237 -79q152 0 234 79q76 73 76 196q0 126 -76 197
q-84 79 -235 79zM542 1058l-31 405h231l-31 -405h-169z" />
    <glyph glyph-name="upsilontonos" unicode="&#x3cd;" horiz-adv-x="1236" 
d="M142 908h240v-510q0 -75 12 -114t44 -68q61 -55 180 -55q131 0 191 66q26 28 35.5 65t9.5 106v510h240v-522q0 -112 -24 -183t-79 -120q-66 -60 -155 -87.5t-218 -27.5q-174 0 -276 50q-109 54 -154.5 137.5t-45.5 230.5v522zM535 1058l-31 405h232l-32 -405h-169z" />
    <glyph glyph-name="omegatonos" unicode="&#x3ce;" horiz-adv-x="1671" 
d="M728 624h214v-172q0 -134 25 -188q39 -86 152 -86q100 0 160.5 73t60.5 192q0 113 -42 203.5t-139 183.5l173 105q101 -87 154 -172q100 -160 100 -345q0 -219 -129 -336q-120 -111 -306 -111q-165 0 -256 81q-31 28 -60 79q-90 -160 -316 -160q-186 0 -306 111
q-129 117 -129 336q0 301 254 517l173 -105q-77 -75 -111 -132q-70 -118 -70 -254q0 -129 69 -201q61 -65 152 -65q121 0 157 98q20 55 20 176v172zM752 1058l-31 405h232l-32 -405h-169z" />
    <glyph glyph-name="theta1" unicode="&#x3d1;" horiz-adv-x="1291" 
d="M645 1394q285 0 431 -211q140 -200 140 -500q0 -299 -140 -501q-145 -211 -430 -211q-287 0 -432 211q-140 202 -140 510q0 294 140 491q149 211 431 211zM312 787h666q-8 125 -46 215q-42 98 -110 145q-69 46 -177 46q-144 0 -223 -88q-97 -108 -110 -318zM312 597
q19 -425 333 -425q144 0 223 88q100 113 110 337h-666z" />
    <glyph glyph-name="phi1" unicode="&#x3d5;" horiz-adv-x="1603" 
d="M683 168v751q80 11 156 11q316 0 500 -116q185 -117 185 -364q0 -221 -153.5 -340.5t-453.5 -132.5v-455h-234v456q-225 12 -362 82q-242 123 -242 385q0 305 338 419l96 -135q-75 -36 -112 -66q-81 -67 -81 -202q0 -178 158 -250q74 -33 205 -43zM917 168q151 8 232 49
q134 69 134 234q0 278 -366 288v-571z" />
    <glyph glyph-name="uni0400" unicode="&#x400;" horiz-adv-x="1220" 
d="M177 0v1365h908v-216h-664v-335h583v-216h-583v-382h693v-216h-937zM373 1758l218 107l249 -316l-154 -80z" />
    <glyph glyph-name="afii10023" unicode="&#x401;" horiz-adv-x="1220" 
d="M177 0v1365h908v-216h-664v-335h583v-216h-583v-382h693v-216h-937zM398 1787q57 0 96 -38t39 -94q0 -55 -39.5 -93t-95.5 -38q-58 0 -97 38.5t-39 94.5q0 54 39.5 92t96.5 38zM885 1787q57 0 96 -38.5t39 -93.5t-39.5 -93t-95.5 -38q-58 0 -97 38.5t-39 94.5q0 54 40 92
t96 38z" />
    <glyph glyph-name="afii10051" unicode="&#x402;" horiz-adv-x="1557" 
d="M362 0v1149h-314v216h1014v-216h-446v-356q120 112 338 112q211 0 342 -118q118 -106 118 -326v-939h-241v923q0 83 -15 129t-51 74q-70 55 -200 55q-148 0 -226 -63q-65 -53 -65 -202v-438h-254z" />
    <glyph glyph-name="afii10052" unicode="&#x403;" horiz-adv-x="1181" 
d="M177 0v1365h938v-216h-688v-1149h-250zM961 1758l-313 -289l-154 80l249 316z" />
    <glyph glyph-name="afii10053" unicode="&#x404;" horiz-adv-x="1464" 
d="M1173 802v-204h-818q43 -407 507 -407q149 0 252.5 41.5t180.5 132.5l175 -151q-92 -90 -166 -134q-178 -105 -457 -105q-358 0 -558 179q-200 178 -200 522q0 334 187 518q200 196 562 196q197 0 343.5 -58t268.5 -183l-164 -153q-87 94 -189.5 135.5t-248.5 41.5
q-400 0 -487 -371h812z" />
    <glyph glyph-name="afii10054" unicode="&#x405;" horiz-adv-x="1256" 
d="M65 302l216 109q32 -78 62 -116q44 -55 111.5 -79.5t174.5 -24.5q157 0 230 57q62 48 62 131q0 94 -99 143q-53 26 -251 87q-195 61 -299 143q-130 102 -130 265q0 167 128 268q133 105 355 105q164 0 279.5 -57t201.5 -180l-194 -118q-50 77 -119.5 111t-175.5 34
q-107 0 -169 -41.5t-62 -113.5q0 -83 76 -128q35 -21 64 -31.5t167 -54.5q216 -68 325 -138q151 -97 151 -283q0 -140 -77 -246q-61 -84 -179 -126q-122 -43 -285 -43q-249 0 -395 94q-65 42 -102 93.5t-66 139.5z" />
    <glyph glyph-name="afii10055" unicode="&#x406;" horiz-adv-x="604" 
d="M177 0v1365h250v-1365h-250z" />
    <glyph glyph-name="afii10056" unicode="&#x407;" horiz-adv-x="604" 
d="M177 0v1365h250v-1365h-250zM59 1787q57 0 96 -38t39 -94q0 -54 -39.5 -92.5t-95.5 -38.5q-58 0 -97 38.5t-39 94.5q0 54 40 92t96 38zM546 1787q56 0 95.5 -38.5t39.5 -93.5t-39.5 -93t-95.5 -38q-58 0 -97 38.5t-39 94.5q0 54 39.5 92t96.5 38z" />
    <glyph glyph-name="afii10057" unicode="&#x408;" horiz-adv-x="1004" 
d="M576 1365h250v-856q0 -175 -27 -269q-39 -136 -157 -201q-115 -64 -277 -64q-106 0 -188.5 27t-177.5 92l100 196q75 -55 130.5 -76.5t123.5 -21.5q139 0 190 85q20 32 26.5 75.5t6.5 145.5v867z" />
    <glyph glyph-name="afii10058" unicode="&#x409;" horiz-adv-x="2232" 
d="M1084 0v1149h-462l-2 -38q-34 -560 -93 -763q-51 -177 -150 -261q-106 -90 -281 -90q-33 0 -80 3v219q40 -5 57 -5q155 0 214 170q36 103 64.5 367t41.5 614h940v-525h315q247 0 365 -95q139 -111 139 -314q0 -116 -46.5 -208.5t-131.5 -144.5q-128 -78 -354 -78h-536z
M1333 200h244q197 0 262 59q68 62 68 164q0 115 -82 174q-67 49 -248 49h-244v-446z" />
    <glyph glyph-name="afii10059" unicode="&#x40a;" horiz-adv-x="2240" 
d="M1099 0v598h-672v-598h-250v1365h250v-551h672v551h241v-551h315q246 0 365 -91q139 -108 139 -305q0 -112 -47 -202t-131 -140q-128 -76 -354 -76h-528zM1340 200h244q196 0 262 55q68 57 68 153q0 107 -82 162q-67 45 -248 45h-244v-415z" />
    <glyph glyph-name="afii10060" unicode="&#x40b;" horiz-adv-x="1557" 
d="M362 0v1149h-314v216h1014v-216h-446v-356q120 112 338 112q211 0 342 -118q118 -106 118 -326v-461h-241v445q0 88 -16 134t-58 74q-73 50 -191 50q-149 0 -227 -63q-65 -53 -65 -202v-438h-254z" />
    <glyph glyph-name="afii10061" unicode="&#x40c;" horiz-adv-x="1345" 
d="M177 0v1365h250v-639l619 639h295l-583 -574l657 -791h-314l-502 633l-172 -168v-465h-250zM1038 1758l-313 -289l-154 80l249 316z" />
    <glyph glyph-name="uni040D" unicode="&#x40d;" horiz-adv-x="1583" 
d="M177 0v1365h240v-975l784 974h205v-1366h-240v973l-785 -971h-204zM500 1758l218 107l250 -316l-154 -80z" />
    <glyph glyph-name="afii10062" unicode="&#x40e;" horiz-adv-x="1389" 
d="M568 523l-530 842h289l375 -612l382 612h289l-909 -1365h-264zM328 1771l206 15q4 -87 37.5 -117t127.5 -30q95 0 127.5 29t37.5 118l206 -15q-7 -122 -60 -188q-95 -121 -311 -121q-176 0 -270 78.5t-101 230.5z" />
    <glyph glyph-name="afii10145" unicode="&#x40f;" horiz-adv-x="1568" 
d="M177 0v1365h250v-1149h715v1149h249v-1365h-495v-262h-225v262h-494z" />
    <glyph glyph-name="afii10017" unicode="&#x410;" horiz-adv-x="1544" 
d="M1143 294h-743l-139 -294h-264l684 1382h182l683 -1382h-264zM1057 483l-285 607l-286 -607h571z" />
    <glyph glyph-name="afii10018" unicode="&#x411;" horiz-adv-x="1317" 
d="M177 0v1365h944v-216h-703v-330h315q247 0 365 -92q140 -108 140 -307q0 -113 -47 -203.5t-131 -140.5q-128 -76 -355 -76h-528zM418 200h244q197 0 263 57q68 58 68 155q0 110 -82 167q-67 46 -249 46h-244v-425z" />
    <glyph glyph-name="afii10019" unicode="&#x412;" horiz-adv-x="1304" 
d="M177 0v1365h430q174 0 284 -29t178 -92q101 -96 101 -242q0 -181 -194 -273q117 -47 162 -92q104 -101 104 -256q0 -214 -180 -312q-126 -69 -393 -69h-492zM411 797h206q161 0 230 35q89 44 89 150q0 107 -101 155q-64 31 -218 31h-206v-371zM411 206h230q184 0 260 39
q94 49 94 161q0 126 -127 178q-71 29 -239 29h-218v-407z" />
    <glyph glyph-name="afii10020" unicode="&#x413;" horiz-adv-x="1181" 
d="M177 0v1365h938v-216h-688v-1149h-250z" />
    <glyph glyph-name="afii10021" unicode="&#x414;" horiz-adv-x="1643" 
d="M1344 0h-1120v-262h-225v478h74q80 0 145.5 41t94.5 109q39 92 71.5 369t46.5 630h997v-1149h141v-478h-225v262zM1178 216v933h-517q-12 -320 -55 -597q-21 -131 -54 -192.5t-127 -143.5h753z" />
    <glyph glyph-name="afii10022" unicode="&#x415;" horiz-adv-x="1220" 
d="M177 0v1365h908v-216h-664v-335h583v-216h-583v-382h693v-216h-937z" />
    <glyph glyph-name="afii10024" unicode="&#x416;" horiz-adv-x="2171" 
d="M963 0v600h-85l-542 -600h-303l646 704l-596 661h283l513 -565h84v565h245v-565h84l513 565h283l-596 -661l646 -704h-303l-542 600h-85v-600h-245z" />
    <glyph glyph-name="afii10025" unicode="&#x417;" horiz-adv-x="1454" 
d="M436 607v193h180q217 0 304 28q149 47 149 160q0 90 -97.5 140t-272.5 50q-154 0 -266 -39t-223 -133l-160 155q157 128 310 181t366 53q367 0 514 -158q86 -93 86 -214q0 -132 -108 -223q-59 -50 -171 -86q109 -38 168 -76q65 -41 102 -111q36 -70 36 -156
q0 -118 -70 -209q-149 -192 -578 -192q-218 0 -372 53t-299 177l162 166q119 -106 250 -146q110 -33 251 -33q195 0 302 58q43 23 69 65t26 88q0 109 -115 159t-364 50h-179z" />
    <glyph glyph-name="afii10026" unicode="&#x418;" horiz-adv-x="1583" 
d="M177 0v1365h240v-975l784 974h205v-1366h-240v973l-785 -971h-204z" />
    <glyph glyph-name="afii10027" unicode="&#x419;" horiz-adv-x="1583" 
d="M177 0v1365h240v-975l784 974h205v-1366h-240v973l-785 -971h-204zM421 1771l206 15q4 -87 37.5 -117t126.5 -30q96 0 128 29t38 118l205 -15q-6 -121 -59 -188q-95 -121 -312 -121q-175 0 -269 78.5t-101 230.5z" />
    <glyph glyph-name="afii10028" unicode="&#x41a;" horiz-adv-x="1345" 
d="M177 0v1365h250v-639l619 639h295l-583 -574l657 -791h-314l-502 633l-172 -168v-465h-250z" />
    <glyph glyph-name="afii10029" unicode="&#x41b;" horiz-adv-x="1510" 
d="M393 1365h940v-1365h-249v1149h-462l-2 -38q-34 -559 -93 -763q-51 -177 -150 -261q-106 -90 -281 -90q-33 0 -80 3v219q41 -5 57 -5q155 0 214 171q36 102 64.5 366.5t41.5 613.5z" />
    <glyph glyph-name="afii10030" unicode="&#x41c;" horiz-adv-x="1918" 
d="M177 0v1365h187l595 -805l595 805h187v-1365h-242v939l-471 -647h-138l-471 647v-939h-242z" />
    <glyph glyph-name="afii10031" unicode="&#x41d;" horiz-adv-x="1610" 
d="M177 0v1365h250v-551h757v551h249v-1365h-249v598h-757v-598h-250z" />
    <glyph glyph-name="afii10032" unicode="&#x41e;" horiz-adv-x="1755" 
d="M878 1390q383 0 600 -217q188 -189 188 -490t-188 -491q-120 -121 -297 -174q-146 -43 -301 -43q-388 0 -603 217q-188 190 -188 500q0 182 79 333q107 205 340 299q165 66 370 66zM878 1173q-261 0 -408 -151q-123 -125 -123 -333q0 -220 123 -346q146 -151 410 -151
q259 0 405 151q123 126 123 340q0 213 -123 339q-146 151 -407 151z" />
    <glyph glyph-name="afii10033" unicode="&#x41f;" horiz-adv-x="1626" 
d="M177 0v1365h1271v-1365h-250v1149h-771v-1149h-250z" />
    <glyph glyph-name="afii10034" unicode="&#x420;" horiz-adv-x="1216" 
d="M421 478v-478h-244v1365h378q296 0 443 -99q171 -114 171 -345q0 -138 -67 -243q-129 -200 -514 -200h-167zM421 687h149q182 0 260 52q91 60 91 181q0 137 -111 197q-72 39 -240 39h-149v-469z" />
    <glyph glyph-name="afii10035" unicode="&#x421;" horiz-adv-x="1464" 
d="M1295 364l175 -150q-91 -90 -166 -134q-179 -105 -452 -105q-359 0 -563 181q-200 175 -200 520q0 333 188 517q201 197 560 197q197 0 343.5 -57.5t269.5 -183.5l-164 -153q-86 93 -188.5 135t-243.5 42q-255 0 -388 -143q-119 -128 -119 -357q0 -218 111 -337
q135 -145 409 -145q278 0 428 173z" />
    <glyph glyph-name="afii10036" unicode="&#x422;" horiz-adv-x="1067" 
d="M408 0v1149h-411v216h1072v-216h-411v-1149h-250z" />
    <glyph glyph-name="afii10037" unicode="&#x423;" horiz-adv-x="1389" 
d="M568 523l-530 842h289l375 -612l382 612h289l-909 -1365h-264z" />
    <glyph glyph-name="afii10038" unicode="&#x424;" horiz-adv-x="2111" 
d="M942 77q-320 16 -493 90q-179 76 -266 210q-88 133 -88 305q0 235 157 389q101 101 267 152.5t423 63.5v188h227v-188q317 -15 493 -90q179 -76 266 -210q88 -133 88 -305q0 -235 -157 -389q-102 -101 -265.5 -152t-424.5 -64v-188h-227v188zM942 280v804
q-218 -11 -331 -51q-259 -91 -259 -351q0 -279 298 -364q102 -28 292 -38zM1169 280q218 11 331 51q259 91 259 351q0 279 -298 364q-102 28 -292 38v-804z" />
    <glyph glyph-name="afii10039" unicode="&#x425;" horiz-adv-x="1361" 
d="M550 704l-518 661h298l382 -484l377 484h265l-518 -643l566 -722h-299l-427 541l-433 -541h-269z" />
    <glyph glyph-name="afii10040" unicode="&#x426;" horiz-adv-x="1607" 
d="M177 0v1365h250v-1149h715v1149h249v-1149h142v-478h-225v262h-1131z" />
    <glyph glyph-name="afii10041" unicode="&#x427;" horiz-adv-x="1481" 
d="M1055 0v450q-213 -37 -356 -37q-349 0 -485 179q-86 113 -86 350v423h250v-396q0 -110 15.5 -166t58.5 -95q84 -79 294 -79q166 0 309 37v699h249v-1365h-249z" />
    <glyph glyph-name="afii10042" unicode="&#x428;" horiz-adv-x="2222" 
d="M177 0v1365h250v-1149h559v1149h250v-1149h559v1149h250v-1365h-1868z" />
    <glyph glyph-name="afii10043" unicode="&#x429;" horiz-adv-x="2260" 
d="M177 0v1365h250v-1149h559v1149h250v-1149h559v1149h250v-1149h141v-478h-225v262h-1784z" />
    <glyph glyph-name="afii10044" unicode="&#x42a;" horiz-adv-x="1624" 
d="M483 0v1149h-445v216h686v-525h315q247 0 365 -95q139 -111 139 -314q0 -116 -46.5 -208.5t-131.5 -144.5q-128 -78 -354 -78h-528zM724 200h244q197 0 262 59q68 62 68 164q0 115 -82 174q-67 49 -248 49h-244v-446z" />
    <glyph glyph-name="afii10045" unicode="&#x42b;" horiz-adv-x="1858" 
d="M177 0v1365h241v-525h315q246 0 365 -95q139 -111 139 -314q0 -116 -46.5 -208.5t-131.5 -144.5q-128 -78 -354 -78h-528zM418 200h244q197 0 262 59q68 62 68 164q0 115 -82 174q-67 49 -248 49h-244v-446zM1431 0v1365h250v-1365h-250z" />
    <glyph glyph-name="afii10046" unicode="&#x42c;" horiz-adv-x="1317" 
d="M177 0v1365h241v-525h315q246 0 365 -95q139 -111 139 -314q0 -116 -46.5 -208.5t-131.5 -144.5q-128 -78 -354 -78h-528zM418 200h244q197 0 262 59q68 62 68 164q0 115 -82 174q-67 49 -248 49h-244v-446z" />
    <glyph glyph-name="afii10047" unicode="&#x42d;" horiz-adv-x="1464" 
d="M291 598v204h812q-85 371 -493 371q-142 0 -244 -42t-188 -135l-164 153q80 82 161 130q187 111 450 111q363 0 563 -196q187 -184 187 -513q0 -349 -200 -527q-200 -179 -558 -179q-209 0 -349.5 54t-273.5 185l175 151q77 -91 180.5 -132.5t252.5 -41.5q464 0 507 407
h-818z" />
    <glyph glyph-name="afii10048" unicode="&#x42e;" horiz-adv-x="2433" 
d="M177 0v1365h250v-551h351q31 178 126 301q109 141 288 211q163 64 363 64q385 0 601 -217q188 -189 188 -490t-188 -491q-216 -217 -601 -217q-277 0 -472 117q-138 84 -212 204t-98 302h-346v-598h-250zM1556 1173q-261 0 -408 -151q-123 -125 -123 -333
q0 -220 123 -346q146 -151 409 -151q260 0 406 151q123 126 123 340q0 213 -123 339q-146 151 -407 151z" />
    <glyph glyph-name="afii10049" unicode="&#x42f;" horiz-adv-x="1283" 
d="M861 507h-105q-61 0 -138 6l-321 -513h-296l376 549q-284 97 -284 387q0 186 106 292q74 73 188 105t302 32h417v-1365h-245v507zM862 710v446h-188q-171 0 -240 -41q-93 -57 -93 -180q0 -141 107 -190q77 -35 226 -35h188z" />
    <glyph glyph-name="afii10065" unicode="&#x430;" horiz-adv-x="1290" 
d="M962 0l-16 118q-136 -142 -383 -142q-233 0 -360 124q-130 127 -130 354t130 354q127 124 357 124q234 0 366 -129l12 105h211v-908h-187zM614 730q-150 0 -229 -80q-71 -71 -71 -196q0 -124 71 -196q78 -80 230 -80q151 0 229 80q71 72 71 192q0 128 -71 200
q-78 80 -230 80z" />
    <glyph glyph-name="afii10066" unicode="&#x431;" horiz-adv-x="1277" 
d="M1069 1419l23 -190q-46 -28 -102.5 -37.5t-214.5 -15.5q-190 -7 -263.5 -29.5t-111.5 -86.5q-24 -40 -34.5 -87t-24.5 -180q149 141 372 141t356 -132q76 -75 111 -185q24 -74 24 -152q0 -174 -100 -300q-72 -92 -189 -141q-121 -50 -268 -50q-234 0 -378 119
q-92 76 -134 195.5t-42 304.5q0 231 42 401.5t118 247.5q81 83 244 105q70 10 274 22q217 13 298 50zM655 729q-152 0 -237 -79q-77 -71 -77 -194q0 -129 76 -200q84 -79 236 -79t234 79q76 73 76 197q0 125 -75 197q-82 79 -233 79z" />
    <glyph glyph-name="afii10067" unicode="&#x432;" horiz-adv-x="1167" 
d="M142 0v908h533q219 0 298 -52q94 -62 94 -181q0 -134 -155 -196q199 -50 199 -224q0 -149 -148 -216q-85 -39 -257 -39h-564zM382 537h243q204 0 204 111q0 101 -185 101h-262v-212zM382 162h277q108 0 158 24q58 27 58 90q0 120 -236 120h-257v-234z" />
    <glyph glyph-name="afii10068" unicode="&#x433;" horiz-adv-x="963" 
d="M142 0v908h762v-195h-522v-713h-240z" />
    <glyph glyph-name="afii10069" unicode="&#x434;" horiz-adv-x="1300" 
d="M1016 0h-776v-247h-225v442h41q64 0 119 45.5t82 121.5q55 144 69 546h800v-713h115v-442h-225v247zM886 195v524h-346q-2 -31 -3 -47q-10 -162 -20 -224t-35 -117q-34 -74 -106 -136h510z" />
    <glyph glyph-name="afii10070" unicode="&#x435;" horiz-adv-x="1190" 
d="M1128 393h-825q7 -87 54 -140q86 -95 257 -95q104 0 169 28t100 87l224 -41q-32 -88 -97 -141q-140 -115 -387 -115q-259 0 -404 124q-146 124 -146 354t144 356q138 121 394 121q266 0 396 -128q124 -121 124 -331q0 -24 -3 -79zM904 548q-10 80 -44 120q-73 87 -252 87
q-278 0 -300 -207h596z" />
    <glyph glyph-name="afii10072" unicode="&#x436;" horiz-adv-x="1643" 
d="M706 0v388h-52l-370 -388h-270l441 469l-398 439h259l332 -374h58v374h231v-374h58l332 374h259l-398 -439l441 -469h-270l-370 388h-52v-388h-231z" />
    <glyph glyph-name="afii10073" unicode="&#x437;" horiz-adv-x="1106" 
d="M263 392v152h227q125 0 177 20q67 27 67 78q0 109 -236 109q-180 0 -329 -89l-116 155q196 122 465 122q209 0 336 -61q60 -29 96 -84.5t36 -118.5q0 -67 -35.5 -112.5t-115.5 -79.5q67 -23 106 -61q72 -69 72 -163q0 -95 -73 -171q-112 -118 -420 -118q-167 0 -276 30
t-218 106l106 165q153 -115 364 -115q125 0 193.5 31.5t68.5 89.5q0 60 -63.5 87.5t-201.5 27.5h-230z" />
    <glyph glyph-name="afii10074" unicode="&#x438;" horiz-adv-x="1233" 
d="M142 0v908h236v-597l484 597h228v-908h-236v594l-484 -594h-228z" />
    <glyph glyph-name="afii10075" unicode="&#x439;" horiz-adv-x="1233" 
d="M142 0v908h236v-597l484 597h228v-908h-236v594l-484 -594h-228zM250 1343l206 16q5 -88 37 -118t122 -30q93 0 124.5 29t36.5 119l206 -16q-7 -120 -59 -188q-94 -121 -306 -121q-174 0 -267 78.5t-100 230.5z" />
    <glyph glyph-name="afii10076" unicode="&#x43a;" horiz-adv-x="1092" 
d="M142 0v908h234v-391l395 391h308l-412 -355l449 -553h-280l-328 419l-132 -116v-303h-234z" />
    <glyph glyph-name="afii10077" unicode="&#x43b;" horiz-adv-x="1199" 
d="M817 0v713h-325q-17 -301 -38 -410q-30 -155 -117 -228q-94 -78 -232 -78q-23 0 -83 3v207q42 -6 58 -6q70 0 108.5 62t53.5 199q19 160 25 446h790v-908h-240z" />
    <glyph glyph-name="afii10078" unicode="&#x43c;" horiz-adv-x="1471" 
d="M142 0v908h221l373 -483l372 483h221v-908h-212v591l-315 -412h-140l-308 412v-591h-212z" />
    <glyph glyph-name="afii10079" unicode="&#x43d;" horiz-adv-x="1228" 
d="M142 0v908h240v-339h464v339h240v-908h-240v380h-464v-380h-240z" />
    <glyph glyph-name="afii10080" unicode="&#x43e;" horiz-adv-x="1249" 
d="M625 931q253 0 403 -124q149 -124 149 -353q0 -230 -149 -354t-401 -124q-256 0 -404 124q-150 125 -150 361q0 222 150 346q149 124 402 124zM626 729q-152 0 -236 -79q-76 -71 -76 -193q0 -129 76 -200q84 -79 237 -79q152 0 234 79q76 73 76 196q0 126 -76 197
q-84 79 -235 79z" />
    <glyph glyph-name="afii10081" unicode="&#x43f;" horiz-adv-x="1232" 
d="M142 0v908h947v-908h-240v713h-467v-713h-240z" />
    <glyph glyph-name="afii10082" unicode="&#x440;" horiz-adv-x="1290" 
d="M376 100v-578h-234v1386h211l12 -105q131 129 365 129q231 0 358 -124q130 -127 130 -354t-130 -354q-127 -124 -359 -124q-118 0 -216 34.5t-137 89.5zM676 730q-150 0 -229 -80q-71 -72 -71 -192q0 -128 71 -200q78 -80 230 -80q151 0 229 80q71 72 71 196t-71 196
q-79 80 -230 80z" />
    <glyph glyph-name="afii10083" unicode="&#x441;" horiz-adv-x="1056" 
d="M904 281l145 -168q-60 -53 -121 -81q-123 -56 -302 -56q-258 0 -405 122q-148 123 -148 352q0 233 151 360q145 121 391 121q275 0 432 -137l-135 -162q-113 98 -283 98q-156 0 -237 -76q-78 -74 -78 -204q0 -125 75 -197q78 -75 227 -75q92 0 158 23.5t130 79.5z" />
    <glyph glyph-name="afii10084" unicode="&#x442;" horiz-adv-x="967" 
d="M360 0v713h-310v195h866v-195h-311v-713h-245z" />
    <glyph glyph-name="afii10085" unicode="&#x443;" horiz-adv-x="1047" 
d="M404 8l-414 900h262l266 -611l277 611h257l-663 -1386h-247z" />
    <glyph glyph-name="afii10086" unicode="&#x444;" horiz-adv-x="1827" 
d="M804 49q-76 -46 -131.5 -63t-134.5 -17q-214 0 -339 146q-115 134 -115 338t115 338q125 146 339 146q79 0 136 -17.5t130 -63.5v509h218v-509q72 46 129.5 63.5t136.5 17.5q214 0 339 -146q115 -134 115 -338t-115 -338q-125 -146 -339 -146q-79 0 -135 17t-131 63v-527
h-218v527zM804 252v401q-102 83 -223 83q-133 0 -199 -87q-57 -75 -57 -196q0 -136 67 -209.5t190 -73.5q66 0 115.5 18.5t106.5 63.5zM1022 252q102 -82 222 -82q134 0 200 87q57 75 57 196q0 135 -67 209t-189 74q-121 0 -223 -83v-401z" />
    <glyph glyph-name="afii10087" unicode="&#x445;" horiz-adv-x="1048" 
d="M376 476l-369 432h286l242 -277l246 277h250l-381 -417l413 -491h-286l-285 333l-290 -333h-252z" />
    <glyph glyph-name="afii10088" unicode="&#x446;" horiz-adv-x="1236" 
d="M142 0v908h240v-713h439v713h240v-713h115v-442h-225v247h-809z" />
    <glyph glyph-name="afii10089" unicode="&#x447;" horiz-adv-x="1182" 
d="M800 0v258q-138 -37 -260 -37q-228 0 -329 97t-101 314v276h240v-288q0 -71 11.5 -106t42.5 -59q52 -39 163 -39q128 0 233 41v451h240v-908h-240z" />
    <glyph glyph-name="afii10090" unicode="&#x448;" horiz-adv-x="1793" 
d="M142 0v908h245v-713h391v713h237v-713h390v713h245v-908h-1508z" />
    <glyph glyph-name="afii10091" unicode="&#x449;" horiz-adv-x="1824" 
d="M142 0v908h245v-713h391v713h237v-713h390v713h245v-713h115v-442h-225v247h-1398z" />
    <glyph glyph-name="afii10092" unicode="&#x44a;" horiz-adv-x="1254" 
d="M291 0v713h-260v195h500v-298h251q211 0 303 -54q134 -78 134 -246q0 -152 -106.5 -231t-310.5 -79h-511zM531 156h229q127 0 182 34.5t55 114.5q0 78 -55 113t-179 35h-232v-297z" />
    <glyph glyph-name="afii10093" unicode="&#x44b;" horiz-adv-x="1579" 
d="M142 0v908h240v-298h251q211 0 303 -54q134 -78 134 -246q0 -152 -106.5 -231t-310.5 -79h-511zM382 156h229q127 0 182 34.5t55 113.5q0 92 -77 125q-54 24 -157 24h-232v-297zM1196 0v908h240v-908h-240z" />
    <glyph glyph-name="afii10094" unicode="&#x44c;" horiz-adv-x="1104" 
d="M142 0v908h240v-298h251q211 0 303 -54q134 -78 134 -246q0 -152 -106.5 -231t-310.5 -79h-511zM382 156h229q127 0 182 34.5t55 113.5q0 92 -77 125q-54 24 -157 24h-232v-297z" />
    <glyph glyph-name="afii10095" unicode="&#x44d;" horiz-adv-x="1056" 
d="M223 392v152h504q-8 70 -52 119q-79 88 -250 88q-94 0 -159.5 -22t-139.5 -78l-118 143q71 52 122 76q130 61 314 61q242 0 387 -121q151 -126 151 -359q0 -230 -148 -353q-147 -122 -397 -122q-146 0 -247.5 32.5t-182.5 104.5l134 154q64 -59 133.5 -84.5t163.5 -25.5
q271 0 294 235h-509z" />
    <glyph glyph-name="afii10096" unicode="&#x44e;" horiz-adv-x="1801" 
d="M142 0v908h240v-339h254q25 124 103 209q147 161 436 161q255 0 403 -124q150 -125 150 -354t-150 -354q-148 -124 -401 -124q-332 0 -469 198q-59 85 -77 199h-249v-380h-240zM1177 737q-151 0 -235 -79q-76 -71 -76 -193q0 -130 76 -201q83 -79 236 -79q152 0 234 79
q76 73 76 197q0 126 -76 197q-84 79 -235 79z" />
    <glyph glyph-name="afii10097" unicode="&#x44f;" horiz-adv-x="1201" 
d="M817 315h-211q-54 0 -96 1l-239 -316h-240l278 372q-101 36 -146.5 95t-45.5 153q0 153 123 232q87 56 270 56h548v-908h-241v315zM818 471v273h-267q-109 0 -159 -33t-50 -105q0 -70 50.5 -102.5t158.5 -32.5h267z" />
    <glyph glyph-name="uni0450" unicode="&#x450;" horiz-adv-x="1190" 
d="M1128 387h-825q7 -83 55 -133q84 -90 256 -90q104 0 169.5 26.5t99.5 82.5l224 -40q-32 -88 -97 -142q-140 -115 -387 -115q-259 0 -404 124q-146 125 -146 355q0 229 144 355q138 121 394 121q266 0 396 -128q124 -120 124 -330q0 -26 -3 -86zM904 549q-10 78 -44 117
q-73 85 -253 85q-185 0 -258 -96q-34 -44 -41 -106h596zM311 1313l218 107l249 -316l-154 -80z" />
    <glyph glyph-name="afii10071" unicode="&#x451;" horiz-adv-x="1190" 
d="M1128 393h-825q7 -87 54 -140q86 -95 257 -95q104 0 169 28t100 87l224 -41q-32 -88 -97 -141q-140 -115 -387 -115q-259 0 -404 124q-146 124 -146 354t144 356q138 121 394 121q266 0 396 -128q124 -121 124 -331q0 -24 -3 -79zM904 548q-10 80 -44 120q-73 87 -252 87
q-278 0 -300 -207h596zM409 1330q56 0 95.5 -38t39.5 -94q0 -55 -39.5 -93t-95.5 -38q-58 0 -97 38.5t-39 94.5q0 54 39.5 92t96.5 38zM837 1330q56 0 95.5 -38t39.5 -93t-39.5 -93.5t-95.5 -38.5q-58 0 -97 38.5t-39 94.5q0 54 39.5 92t96.5 38z" />
    <glyph glyph-name="afii10099" unicode="&#x452;" horiz-adv-x="1267" 
d="M142 0v1039h-127v168h127v158h234v-158h303v-168h-303v-220q77 62 153 87.5t184 25.5q260 0 361 -154q31 -48 44 -115t13 -183v-958h-234v933q0 128 -38 185q-59 89 -211 89q-163 0 -227 -87q-45 -60 -45 -203v-439h-234z" />
    <glyph glyph-name="afii10100" unicode="&#x453;" horiz-adv-x="963" 
d="M142 0v908h762v-195h-522v-713h-240zM838 1313l-313 -289l-154 80l249 316z" />
    <glyph glyph-name="afii10101" unicode="&#x454;" horiz-adv-x="1056" 
d="M832 544v-152h-509q8 -92 53 -146q76 -90 241 -90q177 0 297 111l134 -154q-91 -81 -198 -109q-109 -29 -237 -29q-245 0 -392 122q-148 124 -148 353q0 233 151 360q145 121 387 121q136 0 235 -31t201 -106l-118 -143q-72 55 -139 77.5t-160 22.5q-132 0 -210.5 -53.5
t-91.5 -153.5h504z" />
    <glyph glyph-name="afii10102" unicode="&#x455;" horiz-adv-x="932" 
d="M26 206l200 77q40 -71 92 -100.5t138 -29.5q196 0 196 110q0 50 -47 72q-36 16 -216 59q-148 35 -216 88q-83 64 -83 180q0 129 105 201q100 68 259 68q134 0 223.5 -40.5t153.5 -131.5l-169 -89q-57 92 -196 92q-73 0 -116 -26.5t-43 -70.5q0 -52 61 -73q30 -10 159 -42
q113 -28 159.5 -44.5t90.5 -44.5q97 -63 97 -193q0 -140 -98 -211q-112 -81 -310 -81q-166 0 -278 59t-162 171z" />
    <glyph glyph-name="afii10103" unicode="&#x456;" horiz-adv-x="517" 
d="M142 0v908h234v-908h-234zM259 1335q65 0 104 -37t39 -99t-39 -99.5t-104 -37.5q-66 0 -105 37.5t-39 101.5q0 60 39.5 97t104.5 37z" />
    <glyph glyph-name="afii10104" unicode="&#x457;" horiz-adv-x="517" 
d="M141 0v908h234v-908h-234zM45 1330q57 0 96 -38t39 -93t-39.5 -93.5t-95.5 -38.5q-58 0 -97 38.5t-39 94.5q0 54 39.5 92t96.5 38zM473 1330q57 0 96 -38t39 -94q0 -55 -39.5 -93t-95.5 -38q-58 0 -97 38.5t-39 94.5q0 54 39.5 92t96.5 38z" />
    <glyph glyph-name="afii10105" unicode="&#x458;" horiz-adv-x="527" 
d="M153 908h234v-940q0 -149 -19 -223.5t-69 -125.5q-96 -96 -307 -100l-7 199q102 4 135 51.5t33 193.5v945zM270 1335q65 0 104 -37t39 -99t-39 -99.5t-104 -37.5q-67 0 -105.5 37.5t-38.5 101.5q0 60 39.5 97t104.5 37z" />
    <glyph glyph-name="afii10106" unicode="&#x459;" horiz-adv-x="1779" 
d="M817 0v713h-325q-17 -301 -38 -410q-29 -154 -117 -228q-93 -78 -232 -78q-23 0 -83 3v207q42 -6 58 -6q70 0 108.5 62t53.5 199q19 160 25 446h790v-298h251q211 0 303 -54q134 -78 134 -246q0 -152 -106.5 -231t-310.5 -79h-511zM1057 156h229q126 0 181.5 34.5
t55.5 113.5q0 92 -77 125q-54 24 -157 24h-232v-297z" />
    <glyph glyph-name="afii10107" unicode="&#x45a;" horiz-adv-x="1796" 
d="M833 0v380h-451v-380h-240v908h240v-339h451v339h240v-324h251q213 0 303 -51q134 -76 134 -236q0 -146 -106.5 -221.5t-310.5 -75.5h-511zM1073 156h229q127 0 182 31.5t55 103.5q0 84 -77 115q-53 21 -157 21h-232v-271z" />
    <glyph glyph-name="afii10108" unicode="&#x45b;" horiz-adv-x="1267" 
d="M142 0v1039h-127v168h127v158h234v-158h303v-168h-303v-220q77 62 153 87.5t184 25.5q260 0 361 -154q31 -48 44 -115t13 -183v-480h-234v455q0 128 -38 185q-59 89 -211 89q-163 0 -227 -87q-45 -60 -45 -203v-439h-234z" />
    <glyph glyph-name="afii10109" unicode="&#x45c;" horiz-adv-x="1092" 
d="M142 0v908h234v-391l395 391h308l-412 -355l449 -553h-280l-328 419l-132 -116v-303h-234zM891 1313l-313 -289l-154 80l249 316z" />
    <glyph glyph-name="uni045D" unicode="&#x45d;" horiz-adv-x="1233" 
d="M142 0v908h236v-597l484 597h228v-908h-236v594l-484 -594h-228zM311 1313l218 107l249 -316l-154 -80z" />
    <glyph glyph-name="afii10110" unicode="&#x45e;" horiz-adv-x="1047" 
d="M404 8l-414 900h262l266 -611l277 611h257l-663 -1386h-247zM159 1343l206 16q4 -87 36.5 -117.5t122.5 -30.5q93 0 125 29t36 119l206 -16q-7 -120 -59 -188q-94 -121 -306 -121q-174 0 -267 78.5t-100 230.5z" />
    <glyph glyph-name="afii10193" unicode="&#x45f;" horiz-adv-x="1204" 
d="M142 0v908h240v-713h439v713h240v-908h-347v-247h-226v247h-346z" />
    <glyph glyph-name="uni0462" unicode="&#x462;" horiz-adv-x="1477" 
d="M337 0v1149h-314v216h1213v-216h-658v-309h315q246 0 365 -95q139 -111 139 -314q0 -116 -47 -208.5t-131 -144.5q-128 -78 -354 -78h-528zM578 200h244q197 0 262 59q68 62 68 164q0 115 -82 174q-67 49 -248 49h-244v-446z" />
    <glyph glyph-name="uni0463" unicode="&#x463;" horiz-adv-x="1290" 
d="M141 0v1053h-124v167h124v145h234v-145h302v-167h-302v-243q40 53 140 87.5t212 34.5q232 0 359 -124q130 -127 130 -354t-130 -354q-127 -124 -361 -124q-165 0 -297 75q-50 28 -71 59l-17 -110h-199zM675 730q-151 0 -229 -80q-71 -72 -71 -192q0 -128 71 -200
q78 -80 230 -80q150 0 228 80q71 72 71 196q0 125 -71 196q-79 80 -229 80z" />
    <glyph glyph-name="afii10050" unicode="&#x490;" horiz-adv-x="1181" 
d="M177 0v1365h714v209h224v-425h-688v-1149h-250z" />
    <glyph glyph-name="afii10098" unicode="&#x491;" horiz-adv-x="963" 
d="M142 0v908h542v212h220v-407h-522v-713h-240z" />
    <glyph glyph-name="uni0492" unicode="&#x492;" horiz-adv-x="1205" 
d="M202 0v598h-156v207h156v560h938v-216h-689v-344h462v-207h-462v-598h-249z" />
    <glyph glyph-name="uni0493" unicode="&#x493;" horiz-adv-x="986" 
d="M165 0v311h-122v177h122v420h762v-195h-522v-225h271v-177h-271v-311h-240z" />
    <glyph glyph-name="uni0496" unicode="&#x496;" horiz-adv-x="2171" 
d="M963 0v600h-85l-542 -600h-303l646 704l-596 661h283l513 -565h84v565h245v-565h85l513 565h282l-596 -661l458 -488h187v-478h-225v262h-76l-543 600h-85v-600h-245z" />
    <glyph glyph-name="uni0497" unicode="&#x497;" horiz-adv-x="1643" 
d="M706 0v388h-52l-370 -388h-270l441 469l-398 439h259l332 -374h58v374h231v-374h58l332 374h259l-397 -439l271 -274h196v-442h-225v247h-71l-371 388h-52v-388h-231z" />
    <glyph glyph-name="uni049A" unicode="&#x49a;" horiz-adv-x="1345" 
d="M177 0v1365h250v-639l619 639h295l-583 -574l477 -575h208v-478h-226v262h-117l-501 633l-172 -168v-465h-250z" />
    <glyph glyph-name="uni049B" unicode="&#x49b;" horiz-adv-x="1092" 
d="M142 0v908h234v-391l394 391h308l-412 -355l294 -358h221v-442h-225v247h-121l-327 418l-132 -115v-303h-234z" />
    <glyph glyph-name="uni049C" unicode="&#x49c;" horiz-adv-x="1372" 
d="M177 0v1365h250v-669l149 154v334h119v-208l379 389h295l-584 -574l658 -791h-315l-433 544v-273h-119v313l-149 -147v-437h-250z" />
    <glyph glyph-name="uni049D" unicode="&#x49d;" horiz-adv-x="1120" 
d="M142 0v908h234v-420l113 111v251h100v-147l209 205h308l-412 -355l450 -553h-281l-274 346v-208h-100v240l-113 -98v-280h-234z" />
    <glyph glyph-name="uni04A2" unicode="&#x4a2;" horiz-adv-x="1650" 
d="M177 0v1365h250v-551h757v551h249v-1149h142v-478h-225v262h-166v598h-757v-598h-250z" />
    <glyph glyph-name="uni04A3" unicode="&#x4a3;" horiz-adv-x="1260" 
d="M142 0v908h240v-339h464v339h240v-713h114v-442h-225v247h-129v380h-464v-380h-240z" />
    <glyph glyph-name="uni04AE" unicode="&#x4ae;" horiz-adv-x="1321" 
d="M536 0v539l-563 826h283l405 -585l405 585h282l-562 -826v-539h-250z" />
    <glyph glyph-name="uni04AF" unicode="&#x4af;" horiz-adv-x="1046" 
d="M406 -2l-416 910h262l271 -653l271 653h262l-416 -910v-476h-234v476z" />
    <glyph glyph-name="uni04B0" unicode="&#x4b0;" horiz-adv-x="1101" 
d="M429 0v359h-294v207h282l-424 799h274l283 -590l284 590h274l-426 -799h284v-207h-295v-359h-242z" />
    <glyph glyph-name="uni04B1" unicode="&#x4b1;" horiz-adv-x="1046" 
d="M405 0l-415 908h262l271 -653l271 653h262l-415 -908h306v-177h-307v-301h-234v301h-307v177h306z" />
    <glyph glyph-name="uni04B2" unicode="&#x4b2;" horiz-adv-x="1361" 
d="M550 704l-518 661h298l382 -483l377 483h266l-519 -643l399 -506h207v-478h-226v262h-113l-427 541l-433 -541h-269z" />
    <glyph glyph-name="uni04B3" unicode="&#x4b3;" horiz-adv-x="1048" 
d="M375 476l-368 432h286l241 -277l247 277h249l-380 -418l251 -295h213v-442h-225v247h-113l-284 333l-291 -333h-251z" />
    <glyph glyph-name="uni04B6" unicode="&#x4b6;" horiz-adv-x="1521" 
d="M1055 0v450q-213 -37 -356 -37q-349 0 -485 179q-86 113 -86 350v423h250v-396q0 -110 15.5 -166t58.5 -95q84 -79 294 -79q163 0 309 37v699h249v-1149h143v-478h-225v262h-167z" />
    <glyph glyph-name="uni04B7" unicode="&#x4b7;" horiz-adv-x="1213" 
d="M800 0v257q-140 -36 -260 -36q-228 0 -329 97t-101 314v276h240v-288q0 -71 11.5 -106t42.5 -59q52 -39 163 -39q127 0 233 41v451h240v-713h114v-442h-225v247h-129z" />
    <glyph glyph-name="uni04B8" unicode="&#x4b8;" horiz-adv-x="1481" 
d="M1055 0v450q-149 -26 -269 -33v-258h-120v255q-287 12 -412.5 135t-125.5 393v423h250v-396q0 -87 7 -130t27 -80q55 -100 254 -125v391h120v-394q168 9 269 35v699h249v-1365h-249z" />
    <glyph glyph-name="uni04B9" unicode="&#x4b9;" horiz-adv-x="1206" 
d="M824 0v258q-88 -25 -185 -33v-159h-100v155q-205 4 -300 73q-129 93 -129 338v276h240v-288q0 -73 14 -110t50 -60q40 -25 125 -32v271h100v-269q104 9 185 37v451h240v-908h-240z" />
    <glyph glyph-name="uni04BA" unicode="&#x4ba;" horiz-adv-x="1372" 
d="M177 0v1365h254v-556q122 111 339 111q211 0 341 -118q118 -106 118 -325v-477h-241v461q0 87 -16 133t-57 74q-72 50 -192 50q-148 0 -227 -63q-65 -53 -65 -201v-454h-254z" />
    <glyph glyph-name="uni04BB" unicode="&#x4bb;" horiz-adv-x="1265" 
d="M142 0v1365h234v-546q78 62 154 87.5t183 25.5q260 0 361 -154q31 -47 44 -114.5t13 -183.5v-480h-234v455q0 128 -38 185q-59 89 -212 89q-162 0 -226 -87q-45 -60 -45 -203v-439h-234z" />
    <glyph glyph-name="uni04C0" unicode="&#x4c0;" horiz-adv-x="604" 
d="M177 0v1365h250v-1365h-250z" />
    <glyph glyph-name="uni04CF" unicode="&#x4cf;" horiz-adv-x="604" 
d="M177 0v1365h250v-1365h-250z" />
    <glyph glyph-name="uni04D8" unicode="&#x4d8;" horiz-adv-x="1755" 
d="M89 777h1310q-23 136 -89 216q-147 180 -434 180q-165 0 -283 -57.5t-228 -190.5l-162 150q91 113 177 173q201 142 497 142q386 0 602 -217q188 -190 188 -490q0 -301 -188 -491q-216 -217 -601 -217q-291 0 -492 130q-238 154 -284 441q-13 79 -13 187v44zM357 600
q16 -91 36 -140.5t60 -95.5q149 -172 424 -172q308 0 446 200q59 84 78 208h-1044z" />
    <glyph glyph-name="afii10846" unicode="&#x4d9;" horiz-adv-x="1249" 
d="M72 548h850q-11 70 -49 112q-81 88 -249 88q-93 0 -154.5 -19.5t-144.5 -74.5l-134 147q75 63 188 96.5t247 33.5q252 0 401 -124t149 -353t-149 -354q-149 -124 -403 -124q-253 0 -402 124q-114 95 -139 251q-11 64 -11 197zM321 402q5 -95 43 -144q77 -99 261 -99
q145 0 224.5 63.5t79.5 179.5h-608z" />
    <glyph glyph-name="uni04E8" unicode="&#x4e8;" horiz-adv-x="1755" 
d="M878 1390q383 0 600 -217q188 -189 188 -490t-188 -491q-120 -121 -297 -174q-146 -43 -301 -43q-387 0 -603 217q-188 190 -188 500q0 182 79 333q107 205 340 299q165 66 370 66zM356 777h1043q-24 136 -92 219q-144 177 -428 177q-217 0 -352.5 -102.5t-170.5 -293.5z
M355 600q28 -152 97 -235q144 -173 426 -173q198 0 331 87q84 56 129 131.5t62 189.5h-1045z" />
    <glyph glyph-name="uni04E9" unicode="&#x4e9;" horiz-adv-x="1249" 
d="M625 931q253 0 403 -124q149 -123 149 -353q0 -229 -149 -354q-149 -124 -401 -124q-256 0 -404 124q-150 125 -150 361q0 223 150 346q149 124 402 124zM328 548h594q-11 62 -57 111q-83 89 -239 89q-119 0 -199 -54t-99 -146zM321 402q9 -93 59 -149q85 -94 246 -94
q134 0 215.5 65t87.5 178h-608z" />
    <glyph glyph-name="uni1E1E" unicode="&#x1e1e;" horiz-adv-x="1116" 
d="M177 0v1365h863v-215h-613v-355h551v-216h-551v-579h-250zM628 1791q65 0 104 -37t39 -99t-39 -99t-104 -37q-67 0 -105.5 37t-38.5 101q0 61 39.5 97.5t104.5 36.5z" />
    <glyph glyph-name="uni1E1F" unicode="&#x1e1f;" horiz-adv-x="644" 
d="M181 703h-122v205h122v94q0 108 13 166.5t46 106.5q77 106 261 106q66 0 148 -15v-188q-54 10 -95 10q-83 0 -111 -36t-28 -142v-102h213v-205h-213v-703h-234v703zM413 1791q66 0 105 -37t39 -99t-39 -99t-105 -37t-105 37t-39 101q0 61 39.5 97.5t104.5 36.5z" />
    <glyph glyph-name="Wgrave" unicode="&#x1e80;" horiz-adv-x="2243" 
d="M523 -8l-468 1373h264l303 -1017l426 1017h146l426 -1017l303 1017h264l-468 -1373h-183l-415 992l-415 -992h-183zM816 1758l218 107l250 -316l-154 -80z" />
    <glyph glyph-name="wgrave" unicode="&#x1e81;" horiz-adv-x="1646" 
d="M374 -7l-370 915h262l208 -579l296 579h105l296 -579l208 579h262l-370 -915h-156l-293 583l-292 -583h-156zM501 1313l217 107l250 -316l-154 -80z" />
    <glyph glyph-name="Wacute" unicode="&#x1e82;" horiz-adv-x="2243" 
d="M523 -8l-468 1373h264l303 -1017l426 1017h146l426 -1017l303 1017h264l-468 -1373h-183l-415 992l-415 -992h-183zM1440 1758l-313 -289l-154 80l249 316z" />
    <glyph glyph-name="wacute" unicode="&#x1e83;" horiz-adv-x="1646" 
d="M374 -7l-370 915h262l208 -579l296 579h105l296 -579l208 579h262l-370 -915h-156l-293 583l-292 -583h-156zM1124 1313l-313 -289l-154 80l249 316z" />
    <glyph glyph-name="Wdieresis" unicode="&#x1e84;" horiz-adv-x="2243" 
d="M523 -8l-468 1373h264l303 -1017l426 1017h146l426 -1017l303 1017h264l-468 -1373h-183l-415 992l-415 -992h-183zM878 1787q57 0 96 -38t39 -94q0 -54 -39.5 -92.5t-95.5 -38.5q-58 0 -97 38.5t-39 94.5q0 54 40 92t96 38zM1366 1787q57 0 96 -38t39 -93t-39.5 -93.5
t-95.5 -38.5q-58 0 -97 38.5t-39 95.5q0 54 39.5 91.5t96.5 37.5z" />
    <glyph glyph-name="wdieresis" unicode="&#x1e85;" horiz-adv-x="1646" 
d="M374 -7l-370 915h262l208 -579l296 579h105l296 -579l208 579h262l-370 -915h-156l-293 583l-292 -583h-156zM609 1330q57 0 96 -38t39 -94q0 -55 -39 -93t-96 -38q-58 0 -97 38.5t-39 94.5q0 54 40 92t96 38zM1037 1330q56 0 95.5 -38t39.5 -93t-39.5 -93.5t-95.5 -38.5
q-58 0 -97 38.5t-39 94.5q0 54 39.5 92t96.5 38z" />
    <glyph glyph-name="uni1EA0" unicode="&#x1ea0;" horiz-adv-x="1544" 
d="M1143 294h-743l-139 -294h-264l684 1382h182l683 -1382h-264zM1057 483l-285 607l-286 -607h571zM772 -93q61 0 102.5 -40.5t41.5 -98.5q0 -59 -42 -99.5t-102 -40.5q-61 0 -102.5 40.5t-41.5 100.5q0 57 42.5 97.5t101.5 40.5z" />
    <glyph glyph-name="uni1EA1" unicode="&#x1ea1;" horiz-adv-x="1290" 
d="M962 0l-16 105q-137 -129 -380 -129q-236 0 -363 124q-130 127 -130 354t130 354q127 124 361 124q230 0 362 -114l12 90h211v-908h-187zM614 730q-150 0 -229 -80q-71 -71 -71 -196q0 -124 71 -196q78 -80 230 -80q151 0 229 80q71 72 71 192q0 129 -71 200
q-79 80 -230 80zM611 -93q61 0 102.5 -40.5t41.5 -99.5q0 -58 -42 -98.5t-102 -40.5q-61 0 -102.5 40.5t-41.5 100.5q0 57 42.5 97.5t101.5 40.5z" />
    <glyph glyph-name="uni1EA2" unicode="&#x1ea2;" horiz-adv-x="1544" 
d="M1143 294h-743l-139 -294h-264l684 1382h182l683 -1382h-264zM1057 483l-285 607l-286 -607h571zM695 1470v171h50q57 0 75 12.5t18 51.5q0 63 -63 63q-51 0 -118 -39l-53 134q71 36 104 46t83 10q102 0 157.5 -52.5t55.5 -147.5q0 -171 -171 -199v-50h-138z" />
    <glyph glyph-name="uni1EA3" unicode="&#x1ea3;" horiz-adv-x="1290" 
d="M962 0l-16 105q-137 -129 -380 -129q-236 0 -363 124q-130 127 -130 354t130 354q127 124 361 124q230 0 362 -114l12 90h211v-908h-187zM614 730q-150 0 -229 -80q-71 -71 -71 -196q0 -124 71 -196q78 -80 230 -80q151 0 229 80q71 72 71 192q0 129 -71 200
q-79 80 -230 80zM535 1018v171h50q56 0 74.5 12.5t18.5 51.5q0 62 -63 62q-51 0 -118 -38l-53 134q68 36 102.5 46t84.5 10q101 0 157 -52.5t56 -147.5q0 -83 -44.5 -134.5t-126.5 -64.5v-50h-138z" />
    <glyph glyph-name="uni1EA4" unicode="&#x1ea4;" horiz-adv-x="1544" 
d="M1143 294h-743l-139 -294h-264l684 1382h182l683 -1382h-264zM1057 483l-285 607l-286 -607h571zM1431 1916l-313 -289l-154 80l249 316zM728 1605l-182 -161l-174 79l281 284h150l280 -284l-174 -79z" />
    <glyph glyph-name="uni1EA5" unicode="&#x1ea5;" horiz-adv-x="1290" 
d="M962 0l-16 105q-137 -129 -380 -129q-236 0 -363 124q-130 127 -130 354t130 354q127 124 361 124q230 0 362 -114l12 90h211v-908h-187zM614 730q-150 0 -229 -80q-71 -71 -71 -196q0 -124 71 -196q78 -80 230 -80q151 0 229 80q71 72 71 192q0 129 -71 200
q-79 80 -230 80zM1235 1532l-313 -290l-154 80l249 316zM566 1180l-182 -168l-172 78l280 283h149l279 -283l-172 -78z" />
    <glyph glyph-name="uni1EA6" unicode="&#x1ea6;" horiz-adv-x="1544" 
d="M1143 294h-743l-139 -294h-264l684 1382h182l683 -1382h-264zM1057 483l-285 607l-286 -607h571zM902 1916l218 107l249 -316l-154 -80zM755 1605l-181 -161l-174 79l281 284h149l281 -284l-174 -79z" />
    <glyph glyph-name="uni1EA7" unicode="&#x1ea7;" horiz-adv-x="1290" 
d="M962 0l-16 105q-137 -129 -380 -129q-236 0 -363 124q-130 127 -130 354t130 354q127 124 361 124q230 0 362 -114l12 90h211v-908h-187zM614 730q-150 0 -229 -80q-71 -71 -71 -196q0 -124 71 -196q78 -80 230 -80q151 0 229 80q71 72 71 192q0 129 -71 200
q-79 80 -230 80zM712 1532l218 106l249 -316l-154 -80zM611 1180l-182 -168l-172 78l279 283h149l280 -283l-172 -78z" />
    <glyph glyph-name="uni1EA8" unicode="&#x1ea8;" horiz-adv-x="1544" 
d="M1143 294h-743l-139 -294h-264l684 1382h182l683 -1382h-264zM1057 483l-285 607l-286 -607h571zM1056 1628v171h50q57 0 75 12.5t18 51.5q0 62 -63 62q-50 0 -118 -38l-53 134q69 36 103 46t84 10q101 0 157 -52.5t56 -146.5q0 -84 -44.5 -135.5t-126.5 -64.5v-50h-138z
M732 1605l-182 -161l-174 79l281 284h150l280 -284l-173 -79z" />
    <glyph glyph-name="uni1EA9" unicode="&#x1ea9;" horiz-adv-x="1290" 
d="M962 0l-16 105q-137 -129 -380 -129q-236 0 -363 124q-130 127 -130 354t130 354q127 124 361 124q230 0 362 -114l12 90h211v-908h-187zM614 730q-150 0 -229 -80q-71 -71 -71 -196q0 -124 71 -196q78 -80 230 -80q151 0 229 80q71 72 71 192q0 129 -71 200
q-79 80 -230 80zM865 1236v171h50q57 0 75 12.5t18 51.5q0 63 -63 63q-51 0 -118 -39l-53 134q72 37 104.5 46.5t83.5 9.5q100 0 156 -52.5t56 -146.5q0 -172 -171 -200v-50h-138zM573 1180l-182 -168l-172 78l280 283h149l279 -283l-172 -78z" />
    <glyph glyph-name="uni1EAA" unicode="&#x1eaa;" horiz-adv-x="1544" 
d="M1143 294h-743l-139 -294h-264l684 1382h182l683 -1382h-264zM1057 483l-285 607l-286 -607h571zM535 1850h-132q18 120 41 163q24 45 67 72t89 27q63 0 180 -54q89 -41 131 -41q75 0 97 92h132q-7 -100 -33 -151q-54 -111 -161 -111q-69 0 -193 57q-82 38 -122 38
q-39 0 -61 -21t-35 -71zM770 1605l-182 -161l-174 79l281 284h150l281 -284l-174 -79z" />
    <glyph glyph-name="uni1EAB" unicode="&#x1eab;" horiz-adv-x="1290" 
d="M962 0l-16 105q-137 -129 -380 -129q-236 0 -363 124q-130 127 -130 354t130 354q127 124 361 124q230 0 362 -114l12 90h211v-908h-187zM614 730q-150 0 -229 -80q-71 -71 -71 -196q0 -124 71 -196q78 -80 230 -80q151 0 229 80q71 72 71 192q0 129 -71 200
q-79 80 -230 80zM379 1408h-132q17 119 41 163q24 45 66.5 72t88.5 27q63 0 181 -54q88 -41 131 -41q74 0 97 92h132q-8 -100 -33 -151q-54 -111 -161 -111q-70 0 -193 57q-83 38 -122 38q-72 0 -96 -92zM614 1180l-182 -168l-172 78l280 283h148l280 -283l-172 -78z" />
    <glyph glyph-name="uni1EAC" unicode="&#x1eac;" horiz-adv-x="1544" 
d="M1143 294h-743l-139 -294h-264l684 1382h182l683 -1382h-264zM1057 483l-285 607l-286 -607h571zM772 1630l-182 -161l-174 79l281 284h150l280 -284l-174 -79zM772 -93q61 0 102.5 -40.5t41.5 -98.5q0 -59 -42 -99.5t-102 -40.5q-61 0 -102.5 40.5t-41.5 100.5
q0 57 42.5 97.5t101.5 40.5z" />
    <glyph glyph-name="uni1EAD" unicode="&#x1ead;" horiz-adv-x="1290" 
d="M962 0l-16 105q-137 -129 -380 -129q-236 0 -363 124q-130 127 -130 354t130 354q127 124 361 124q230 0 362 -114l12 90h211v-908h-187zM614 730q-150 0 -229 -80q-71 -71 -71 -196q0 -124 71 -196q78 -80 230 -80q151 0 229 80q71 72 71 192q0 129 -71 200
q-79 80 -230 80zM641 1194l-182 -169l-172 79l280 283h149l279 -283l-172 -79zM611 -93q61 0 102.5 -40.5t41.5 -99.5q0 -58 -42 -98.5t-102 -40.5q-61 0 -102.5 40.5t-41.5 100.5q0 57 42.5 97.5t101.5 40.5z" />
    <glyph glyph-name="uni1EAE" unicode="&#x1eae;" horiz-adv-x="1544" 
d="M1143 294h-743l-139 -294h-264l684 1382h182l683 -1382h-264zM1057 483l-285 607l-286 -607h571zM1083 2064l-313 -289l-154 80l249 316zM420 1772h163q7 -80 29 -105q41 -44 160 -44q128 0 165 52q18 24 24 97h163q-2 -121 -48 -187q-84 -121 -304 -121q-238 0 -318 141
q-33 60 -34 167z" />
    <glyph glyph-name="uni1EAF" unicode="&#x1eaf;" horiz-adv-x="1290" 
d="M962 0l-16 105q-137 -129 -380 -129q-236 0 -363 124q-130 127 -130 354t130 354q127 124 361 124q230 0 362 -114l12 90h211v-908h-187zM614 730q-150 0 -229 -80q-71 -71 -71 -196q0 -124 71 -196q78 -80 230 -80q151 0 229 80q71 72 71 192q0 129 -71 200
q-79 80 -230 80zM925 1649l-313 -289l-154 80l250 316zM262 1328h163q7 -80 30 -105q41 -44 159 -44q129 0 166 52q17 24 23 97h163q-1 -121 -47 -187q-85 -121 -305 -121q-238 0 -317 141q-34 60 -35 167z" />
    <glyph glyph-name="uni1EB0" unicode="&#x1eb0;" horiz-adv-x="1544" 
d="M1143 294h-743l-139 -294h-264l684 1382h182l683 -1382h-264zM1057 483l-285 607l-286 -607h571zM474 2064l218 107l250 -316l-155 -80zM420 1772h163q7 -80 29 -105q41 -44 160 -44q128 0 165 52q18 24 24 97h163q-2 -121 -48 -187q-84 -121 -304 -121q-238 0 -318 141
q-33 60 -34 167z" />
    <glyph glyph-name="uni1EB1" unicode="&#x1eb1;" horiz-adv-x="1290" 
d="M962 0l-16 105q-137 -129 -380 -129q-236 0 -363 124q-130 127 -130 354t130 354q127 124 361 124q230 0 362 -114l12 90h211v-908h-187zM614 730q-150 0 -229 -80q-71 -71 -71 -196q0 -124 71 -196q78 -80 230 -80q151 0 229 80q71 72 71 192q0 129 -71 200
q-79 80 -230 80zM319 1649l218 107l249 -316l-154 -80zM265 1328h163q7 -81 29 -105q41 -44 160 -44q128 0 165 52q18 24 24 97h163q-1 -121 -48 -187q-84 -121 -304 -121q-238 0 -318 141q-33 59 -34 167z" />
    <glyph glyph-name="uni1EB2" unicode="&#x1eb2;" horiz-adv-x="1544" 
d="M1143 294h-743l-139 -294h-264l684 1382h182l683 -1382h-264zM1057 483l-285 607l-286 -607h571zM710 1790v157h50q57 0 75 12.5t18 52.5q0 62 -63 62q-51 0 -118 -39l-54 134q68 36 103 46.5t85 10.5q101 0 157 -52.5t56 -147.5q0 -83 -44 -134.5t-127 -65.5v-36h-138z
M420 1772h163q7 -80 29 -105q41 -44 160 -44q128 0 165 52q18 24 24 97h163q-2 -121 -48 -187q-84 -121 -304 -121q-238 0 -318 141q-33 60 -34 167z" />
    <glyph glyph-name="uni1EB3" unicode="&#x1eb3;" horiz-adv-x="1290" 
d="M962 0l-16 105q-137 -129 -380 -129q-236 0 -363 124q-130 127 -130 354t130 354q127 124 361 124q230 0 362 -114l12 90h211v-908h-187zM614 730q-150 0 -229 -80q-71 -71 -71 -196q0 -124 71 -196q78 -80 230 -80q151 0 229 80q71 72 71 192q0 129 -71 200
q-79 80 -230 80zM545 1354v170h50q57 0 75 13t18 52q0 63 -63 63q-50 0 -118 -39l-53 134q68 35 102.5 45.5t84.5 10.5q101 0 157 -52.5t56 -147.5q0 -172 -171 -199v-50h-138zM259 1328h163q7 -81 30 -105q40 -44 159 -44q128 0 166 52q18 25 23 97h163q-1 -121 -47 -187
q-85 -121 -305 -121q-238 0 -317 141q-34 60 -35 167z" />
    <glyph glyph-name="uni1EB4" unicode="&#x1eb4;" horiz-adv-x="1544" 
d="M1143 294h-743l-139 -294h-264l684 1382h182l683 -1382h-264zM1057 483l-285 607l-286 -607h571zM535 1846h-132q17 119 41 163t67 71t89 27q63 0 180 -54q88 -40 131 -40q75 0 97 91h132q-7 -99 -33 -151q-54 -110 -160 -110q-70 0 -194 56q-82 38 -122 38
q-72 0 -96 -91zM417 1772h163q7 -81 29 -105q41 -44 160 -44q128 0 165 52q18 25 24 97h163q-2 -121 -48 -187q-84 -121 -305 -121q-238 0 -317 141q-33 60 -34 167z" />
    <glyph glyph-name="uni1EB5" unicode="&#x1eb5;" horiz-adv-x="1290" 
d="M962 0l-16 105q-137 -129 -380 -129q-236 0 -363 124q-130 127 -130 354t130 354q127 124 361 124q230 0 362 -114l12 90h211v-908h-187zM614 730q-150 0 -229 -80q-71 -71 -71 -196q0 -124 71 -196q78 -80 230 -80q151 0 229 80q71 72 71 192q0 129 -71 200
q-79 80 -230 80zM381 1408h-132q17 119 41 163q24 45 66.5 72t89.5 27q63 0 180 -54q89 -41 131 -41q76 0 97 92h132q-7 -100 -33 -151q-54 -111 -160 -111q-71 0 -194 57q-82 38 -122 38q-39 0 -60.5 -21t-35.5 -71zM264 1328h163q7 -81 30 -105q41 -44 159 -44
q129 0 166 52q18 25 23 97h163q-1 -120 -47 -187q-85 -121 -305 -121q-238 0 -317 141q-33 60 -35 167z" />
    <glyph glyph-name="uni1EB6" unicode="&#x1eb6;" horiz-adv-x="1544" 
d="M1143 294h-743l-139 -294h-264l684 1382h182l683 -1382h-264zM1057 483l-285 607l-286 -607h571zM420 1798h163q7 -81 29 -105q41 -44 160 -44q128 0 165 52q18 25 24 97h163q-2 -121 -48 -187q-84 -121 -304 -121q-238 0 -318 141q-33 60 -34 167zM772 -93
q61 0 102.5 -40.5t41.5 -98.5q0 -59 -42 -99.5t-102 -40.5q-61 0 -102.5 40.5t-41.5 100.5q0 57 42.5 97.5t101.5 40.5z" />
    <glyph glyph-name="uni1EB7" unicode="&#x1eb7;" horiz-adv-x="1290" 
d="M962 0l-16 105q-137 -129 -380 -129q-236 0 -363 124q-130 127 -130 354t130 354q127 124 361 124q230 0 362 -114l12 90h211v-908h-187zM614 730q-150 0 -229 -80q-71 -71 -71 -196q0 -124 71 -196q78 -80 230 -80q151 0 229 80q71 72 71 192q0 129 -71 200
q-79 80 -230 80zM275 1342h163q7 -81 30 -105q40 -44 159 -44q129 0 166 52q17 24 23 97h163q-1 -121 -47 -187q-84 -121 -305 -121q-238 0 -317 141q-33 60 -35 167zM611 -93q61 0 102.5 -40.5t41.5 -99.5q0 -58 -42 -98.5t-102 -40.5q-61 0 -102.5 40.5t-41.5 100.5
q0 57 42.5 97.5t101.5 40.5z" />
    <glyph glyph-name="uni1EB8" unicode="&#x1eb8;" horiz-adv-x="1220" 
d="M177 0v1365h908v-216h-664v-335h583v-216h-583v-382h693v-216h-937zM645 -93q61 0 102.5 -40.5t41.5 -99.5q0 -58 -42 -98.5t-102 -40.5q-61 0 -102.5 41t-41.5 100q0 57 42.5 97.5t101.5 40.5z" />
    <glyph glyph-name="uni1EB9" unicode="&#x1eb9;" horiz-adv-x="1190" 
d="M1128 387h-825q7 -83 55 -133q84 -90 256 -90q104 0 169.5 26.5t99.5 82.5l224 -40q-32 -88 -97 -142q-140 -115 -387 -115q-259 0 -404 124q-146 125 -146 355q0 229 144 355q138 121 394 121q266 0 396 -128q124 -120 124 -330q0 -26 -3 -86zM904 549q-10 78 -44 117
q-73 85 -253 85q-185 0 -258 -96q-34 -44 -41 -106h596zM602 -93q61 0 102.5 -40.5t41.5 -99.5q0 -58 -42 -98.5t-102 -40.5q-61 0 -102.5 40.5t-41.5 100.5q0 57 42 97.5t102 40.5z" />
    <glyph glyph-name="uni1EBA" unicode="&#x1eba;" horiz-adv-x="1220" 
d="M177 0v1365h908v-216h-664v-335h583v-216h-583v-382h693v-216h-937zM564 1470v171h50q57 0 75 12.5t18 51.5q0 63 -63 63q-51 0 -118 -39l-54 134q72 36 105 46t83 10q101 0 157 -52.5t56 -147.5q0 -171 -171 -199v-50h-138z" />
    <glyph glyph-name="uni1EBB" unicode="&#x1ebb;" horiz-adv-x="1190" 
d="M1128 387h-825q7 -83 55 -133q84 -90 256 -90q104 0 169.5 26.5t99.5 82.5l224 -40q-32 -88 -97 -142q-140 -115 -387 -115q-259 0 -404 124q-146 125 -146 355q0 229 144 355q138 121 394 121q266 0 396 -128q124 -120 124 -330q0 -26 -3 -86zM904 549q-10 78 -44 117
q-73 85 -253 85q-185 0 -258 -96q-34 -44 -41 -106h596zM536 1018v171h50q56 0 74.5 12.5t18.5 51.5q0 62 -63 62q-51 0 -118 -38l-54 134q69 36 103.5 46t84.5 10q101 0 157 -52.5t56 -146.5q0 -84 -44.5 -135.5t-126.5 -64.5v-50h-138z" />
    <glyph glyph-name="uni1EBC" unicode="&#x1ebc;" horiz-adv-x="1220" 
d="M177 0v1365h908v-216h-664v-335h583v-216h-583v-382h693v-216h-937zM398 1527h-135q19 122 43 163q25 45 69 72t91 27q65 0 188 -54q93 -41 137 -41q79 0 102 92h135q-8 -99 -35 -151q-57 -111 -166 -111q-71 0 -201 57q-86 38 -129 38q-75 0 -99 -92z" />
    <glyph glyph-name="uni1EBD" unicode="&#x1ebd;" horiz-adv-x="1190" 
d="M1128 387h-825q7 -83 55 -133q84 -90 256 -90q104 0 169.5 26.5t99.5 82.5l224 -40q-32 -88 -97 -142q-140 -115 -387 -115q-259 0 -404 124q-146 125 -146 355q0 229 144 355q138 121 394 121q266 0 396 -128q124 -120 124 -330q0 -26 -3 -86zM904 549q-10 78 -44 117
q-73 85 -253 85q-185 0 -258 -96q-34 -44 -41 -106h596zM354 1078h-134q18 121 43 163q25 45 69 72t91 27q64 0 188 -54q92 -41 137 -41q79 0 102 92h134q-8 -100 -35 -151q-57 -111 -165 -111q-72 0 -201 57q-86 38 -129 38q-75 0 -100 -92z" />
    <glyph glyph-name="uni1EBE" unicode="&#x1ebe;" horiz-adv-x="1220" 
d="M177 0v1365h908v-216h-664v-335h583v-216h-583v-382h693v-216h-937zM1276 1916l-313 -289l-154 80l249 316zM573 1605l-182 -161l-174 79l281 284h150l281 -284l-174 -79z" />
    <glyph glyph-name="uni1EBF" unicode="&#x1ebf;" horiz-adv-x="1190" 
d="M1128 387h-825q7 -83 55 -133q84 -90 256 -90q104 0 169.5 26.5t99.5 82.5l224 -40q-32 -88 -97 -142q-140 -115 -387 -115q-259 0 -404 124q-146 125 -146 355q0 229 144 355q138 121 394 121q266 0 396 -128q124 -120 124 -330q0 -26 -3 -86zM904 549q-10 78 -44 117
q-73 85 -253 85q-185 0 -258 -96q-34 -44 -41 -106h596zM1213 1532l-313 -290l-154 80l250 316zM545 1180l-182 -168l-173 78l280 283h149l280 -283l-172 -78z" />
    <glyph glyph-name="uni1EC0" unicode="&#x1ec0;" horiz-adv-x="1220" 
d="M177 0v1365h908v-216h-664v-335h583v-216h-583v-382h693v-216h-937zM740 1916l218 107l249 -316l-154 -80zM594 1605l-182 -161l-174 79l281 284h150l281 -284l-175 -79z" />
    <glyph glyph-name="uni1EC1" unicode="&#x1ec1;" horiz-adv-x="1190" 
d="M1128 387h-825q7 -83 55 -133q84 -90 256 -90q104 0 169.5 26.5t99.5 82.5l224 -40q-32 -88 -97 -142q-140 -115 -387 -115q-259 0 -404 124q-146 125 -146 355q0 229 144 355q138 121 394 121q266 0 396 -128q124 -120 124 -330q0 -26 -3 -86zM904 549q-10 78 -44 117
q-73 85 -253 85q-185 0 -258 -96q-34 -44 -41 -106h596zM665 1532l218 106l249 -316l-154 -80zM564 1180l-182 -168l-172 78l280 283h149l279 -283l-172 -78z" />
    <glyph glyph-name="uni1EC2" unicode="&#x1ec2;" horiz-adv-x="1220" 
d="M169 0v1365h908v-216h-664v-335h583v-216h-583v-382h693v-216h-937zM884 1628v171h50q56 0 74.5 12.5t18.5 50.5q0 63 -64 63q-48 0 -117 -38l-53 134q69 36 103 46t84 10q101 0 157 -52.5t56 -147.5q0 -83 -44.5 -134.5t-126.5 -64.5v-50h-138zM560 1605l-182 -161
l-174 79l281 284h150l281 -284l-174 -79z" />
    <glyph glyph-name="uni1EC3" unicode="&#x1ec3;" horiz-adv-x="1191" 
d="M1128 387h-825q7 -83 55 -133q84 -90 256 -90q104 0 169.5 26.5t99.5 82.5l224 -40q-32 -88 -97 -142q-140 -115 -387 -115q-259 0 -404 124q-146 125 -146 355q0 229 144 355q138 121 394 121q266 0 396 -128q124 -120 124 -330q0 -26 -3 -86zM904 549q-10 78 -44 117
q-73 85 -253 85q-185 0 -258 -96q-34 -44 -41 -106h596zM850 1236v171h50q57 0 75 12.5t18 51.5q0 63 -63 63q-51 0 -118 -39l-53 134q71 36 104 46t84 10q100 0 156 -52.5t56 -147.5q0 -171 -171 -199v-50h-138zM558 1180l-181 -168l-173 78l280 283h149l280 -283l-173 -78
z" />
    <glyph glyph-name="uni1EC4" unicode="&#x1ec4;" horiz-adv-x="1220" 
d="M177 0v1365h908v-216h-664v-335h583v-216h-583v-382h693v-216h-937zM416 1850h-132q16 119 40 163q24 45 67 72t89 27q63 0 181 -54q88 -41 131 -41q74 0 96 92h133q-7 -97 -33 -151q-54 -111 -161 -111q-70 0 -193 57q-83 38 -122 38q-72 0 -96 -92zM651 1605l-182 -161
l-174 79l281 284h150l280 -284l-174 -79z" />
    <glyph glyph-name="uni1EC5" unicode="&#x1ec5;" horiz-adv-x="1190" 
d="M1128 387h-825q7 -83 55 -133q84 -90 256 -90q104 0 169.5 26.5t99.5 82.5l224 -40q-32 -88 -97 -142q-140 -115 -387 -115q-259 0 -404 124q-146 125 -146 355q0 229 144 355q138 121 394 121q266 0 396 -128q124 -120 124 -330q0 -26 -3 -86zM904 549q-10 78 -44 117
q-73 85 -253 85q-185 0 -258 -96q-34 -44 -41 -106h596zM369 1408h-132q17 119 40 163q24 45 67 72t89 27q63 0 181 -54q88 -41 131 -41q74 0 97 92h132q-7 -98 -33 -151q-54 -111 -161 -111q-70 0 -193 57q-83 38 -122 38q-72 0 -96 -92zM604 1180l-182 -168l-173 78
l280 283h149l280 -283l-172 -78z" />
    <glyph glyph-name="uni1EC6" unicode="&#x1ec6;" horiz-adv-x="1220" 
d="M177 0v1365h908v-216h-664v-335h583v-216h-583v-382h693v-216h-937zM649 1630l-181 -161l-175 79l281 284h150l281 -284l-174 -79zM651 -93q61 0 102.5 -40.5t41.5 -98.5q0 -59 -41.5 -99.5t-102.5 -40.5t-102.5 41t-41.5 100q0 57 42.5 97.5t101.5 40.5z" />
    <glyph glyph-name="uni1EC7" unicode="&#x1ec7;" horiz-adv-x="1190" 
d="M1128 387h-825q7 -83 55 -133q84 -90 256 -90q104 0 169.5 26.5t99.5 82.5l224 -40q-32 -88 -97 -142q-140 -115 -387 -115q-259 0 -404 124q-146 125 -146 355q0 229 144 355q138 121 394 121q266 0 396 -128q124 -120 124 -330q0 -26 -3 -86zM904 549q-10 78 -44 117
q-73 85 -253 85q-185 0 -258 -96q-34 -44 -41 -106h596zM610 1194l-181 -169l-173 79l280 283h149l280 -283l-173 -79zM602 -93q61 0 102.5 -40.5t41.5 -99.5q0 -58 -42 -98.5t-102 -40.5q-61 0 -102.5 40.5t-41.5 100.5q0 57 42 97.5t102 40.5z" />
    <glyph glyph-name="uni1EC8" unicode="&#x1ec8;" horiz-adv-x="604" 
d="M177 0v1365h250v-1365h-250zM218 1470v171h50q57 0 75 12.5t18 51.5q0 63 -63 63q-51 0 -118 -39l-53 134q68 35 102.5 45.5t84.5 10.5q101 0 157 -52.5t56 -147.5q0 -171 -171 -199v-50h-138z" />
    <glyph glyph-name="uni1EC9" unicode="&#x1ec9;" horiz-adv-x="518" 
d="M141 0v908h234v-908h-234zM189 1018v171h50q57 0 75 12.5t18 51.5q0 62 -63 62q-51 0 -118 -38l-53 134q65 34 101 45t86 11q101 0 157 -52.5t56 -146.5q0 -84 -44.5 -135.5t-126.5 -64.5v-50h-138z" />
    <glyph glyph-name="uni1ECA" unicode="&#x1eca;" horiz-adv-x="604" 
d="M177 0v1365h250v-1365h-250zM303 -93q60 0 101.5 -40.5t41.5 -98.5q0 -59 -41.5 -99.5t-102.5 -40.5t-102.5 41t-41.5 100q0 57 42.5 97.5t102.5 40.5z" />
    <glyph glyph-name="uni1ECB" unicode="&#x1ecb;" horiz-adv-x="517" 
d="M141 0v908h234v-908h-234zM258 1335q66 0 105 -37t39 -99q0 -63 -39 -100t-104 -37q-67 0 -106 37t-39 102q0 60 39.5 97t104.5 37zM259 -93q60 0 101.5 -40.5t41.5 -98.5q0 -59 -41.5 -99.5t-102.5 -40.5t-102.5 41t-41.5 100q0 57 42.5 97.5t102.5 40.5z" />
    <glyph glyph-name="uni1ECC" unicode="&#x1ecc;" horiz-adv-x="1755" 
d="M878 1390q383 0 600 -217q188 -189 188 -490q0 -302 -188 -491q-120 -121 -297 -174q-146 -43 -301 -43q-388 0 -603 217q-188 190 -188 500q0 182 79 333q107 205 340 299q165 66 370 66zM878 1173q-261 0 -408 -151q-123 -126 -123 -333q0 -220 123 -346
q146 -151 410 -151q259 0 405 151q123 126 123 340q0 213 -123 339q-146 151 -407 151zM879 -93q60 0 101.5 -40.5t41.5 -98.5q0 -59 -41.5 -99.5t-102.5 -40.5t-102.5 41t-41.5 100q0 57 42.5 97.5t102.5 40.5z" />
    <glyph glyph-name="uni1ECD" unicode="&#x1ecd;" horiz-adv-x="1249" 
d="M625 931q253 0 403 -124q149 -124 149 -353t-149 -354q-149 -124 -401 -124q-256 0 -404 124q-150 125 -150 361q0 222 150 346q149 124 402 124zM626 729q-152 0 -236 -79q-76 -71 -76 -193q0 -129 76 -200q84 -79 237 -79q152 0 234 79q76 73 76 196q0 126 -76 197
q-84 79 -235 79zM625 -93q61 0 102.5 -40.5t41.5 -99.5q0 -58 -42 -98.5t-102 -40.5q-61 0 -102.5 41t-41.5 100q0 57 42 97.5t102 40.5z" />
    <glyph glyph-name="uni1ECE" unicode="&#x1ece;" horiz-adv-x="1755" 
d="M878 1390q383 0 600 -217q188 -189 188 -490q0 -302 -188 -491q-120 -121 -297 -174q-146 -43 -301 -43q-388 0 -603 217q-188 190 -188 500q0 182 79 333q107 205 340 299q165 66 370 66zM878 1173q-261 0 -408 -151q-123 -126 -123 -333q0 -220 123 -346
q146 -151 410 -151q259 0 405 151q123 126 123 340q0 213 -123 339q-146 151 -407 151zM769 1470v171h50q57 0 75 12.5t18 51.5q0 63 -63 63q-51 0 -118 -39l-54 134q73 37 105.5 46.5t82.5 9.5q101 0 157 -52.5t56 -146.5q0 -173 -171 -200v-50h-138z" />
    <glyph glyph-name="uni1ECF" unicode="&#x1ecf;" horiz-adv-x="1249" 
d="M625 931q253 0 403 -124q149 -124 149 -353t-149 -354q-149 -124 -401 -124q-256 0 -404 124q-150 125 -150 361q0 222 150 346q149 124 402 124zM626 729q-152 0 -236 -79q-76 -71 -76 -193q0 -129 76 -200q84 -79 237 -79q152 0 234 79q76 73 76 196q0 126 -76 197
q-84 79 -235 79zM516 1018v171h50q57 0 75 12.5t18 51.5q0 62 -63 62q-51 0 -118 -38l-53 134q70 36 103.5 46t83.5 10q101 0 157 -52.5t56 -146.5q0 -84 -44.5 -135.5t-126.5 -64.5v-50h-138z" />
    <glyph glyph-name="uni1ED0" unicode="&#x1ed0;" horiz-adv-x="1755" 
d="M878 1390q383 0 600 -217q188 -189 188 -490q0 -302 -188 -491q-120 -121 -297 -174q-146 -43 -301 -43q-388 0 -603 217q-188 190 -188 500q0 182 79 333q107 205 340 299q165 66 370 66zM878 1173q-261 0 -408 -151q-123 -126 -123 -333q0 -220 123 -346
q146 -151 410 -151q259 0 405 151q123 126 123 340q0 213 -123 339q-146 151 -407 151zM1516 1916l-313 -289l-154 80l250 316zM813 1605l-181 -161l-174 79l280 284h150l281 -284l-174 -79z" />
    <glyph glyph-name="uni1ED1" unicode="&#x1ed1;" horiz-adv-x="1249" 
d="M625 931q253 0 403 -124q149 -124 149 -353t-149 -354q-149 -124 -401 -124q-256 0 -404 124q-150 125 -150 361q0 222 150 346q149 124 402 124zM626 729q-152 0 -236 -79q-76 -71 -76 -193q0 -129 76 -200q84 -79 237 -79q152 0 234 79q76 73 76 196q0 126 -76 197
q-84 79 -235 79zM1208 1532l-313 -290l-154 80l249 316zM539 1180l-182 -168l-172 78l280 283h149l279 -283l-172 -78z" />
    <glyph glyph-name="uni1ED2" unicode="&#x1ed2;" horiz-adv-x="1755" 
d="M878 1390q383 0 600 -217q188 -189 188 -490q0 -302 -188 -491q-120 -121 -297 -174q-146 -43 -301 -43q-388 0 -603 217q-188 190 -188 500q0 182 79 333q107 205 340 299q165 66 370 66zM878 1173q-261 0 -408 -151q-123 -126 -123 -333q0 -220 123 -346
q146 -151 410 -151q259 0 405 151q123 126 123 340q0 213 -123 339q-146 151 -407 151zM973 1916l217 107l250 -316l-154 -80zM826 1605l-182 -161l-174 79l281 284h150l281 -284l-174 -79z" />
    <glyph glyph-name="uni1ED3" unicode="&#x1ed3;" horiz-adv-x="1249" 
d="M625 931q253 0 403 -124q149 -124 149 -353t-149 -354q-149 -124 -401 -124q-256 0 -404 124q-150 125 -150 361q0 222 150 346q149 124 402 124zM626 729q-152 0 -236 -79q-76 -71 -76 -193q0 -129 76 -200q84 -79 237 -79q152 0 234 79q76 73 76 196q0 126 -76 197
q-84 79 -235 79zM698 1532l219 106l249 -316l-154 -80zM597 1180l-181 -168l-173 78l280 283h149l280 -283l-173 -78z" />
    <glyph glyph-name="uni1ED4" unicode="&#x1ed4;" horiz-adv-x="1755" 
d="M878 1390q383 0 600 -217q188 -189 188 -490q0 -302 -188 -491q-120 -121 -297 -174q-146 -43 -301 -43q-388 0 -603 217q-188 190 -188 500q0 182 79 333q107 205 340 299q165 66 370 66zM878 1173q-261 0 -408 -151q-123 -126 -123 -333q0 -220 123 -346
q146 -151 410 -151q259 0 405 151q123 126 123 340q0 213 -123 339q-146 151 -407 151zM1127 1628v171h50q57 0 75 12.5t18 51.5q0 62 -63 62q-50 0 -118 -38l-53 134q69 36 103 46t84 10q101 0 157 -52.5t56 -147.5q0 -83 -44.5 -134.5t-126.5 -64.5v-50h-138zM802 1605
l-181 -161l-174 79l281 284h149l281 -284l-174 -79z" />
    <glyph glyph-name="uni1ED5" unicode="&#x1ed5;" horiz-adv-x="1249" 
d="M625 931q253 0 403 -124q149 -124 149 -353t-149 -354q-149 -124 -401 -124q-256 0 -404 124q-150 125 -150 361q0 222 150 346q149 124 402 124zM626 729q-152 0 -236 -79q-76 -71 -76 -193q0 -129 76 -200q84 -79 237 -79q152 0 234 79q76 73 76 196q0 126 -76 197
q-84 79 -235 79zM844 1236v171h50q57 0 75 12.5t18 51.5q0 63 -63 63q-51 0 -118 -39l-53 134q72 37 104.5 46.5t83.5 9.5q100 0 156 -52.5t56 -146.5q0 -172 -171 -200v-50h-138zM553 1180l-182 -168l-173 78l281 283h148l280 -283l-172 -78z" />
    <glyph glyph-name="uni1ED6" unicode="&#x1ed6;" horiz-adv-x="1755" 
d="M878 1390q383 0 600 -217q188 -189 188 -490q0 -302 -188 -491q-120 -121 -297 -174q-146 -43 -301 -43q-388 0 -603 217q-188 190 -188 500q0 182 79 333q107 205 340 299q165 66 370 66zM878 1173q-261 0 -408 -151q-123 -126 -123 -333q0 -220 123 -346
q146 -151 410 -151q259 0 405 151q123 126 123 340q0 213 -123 339q-146 151 -407 151zM641 1850h-132q17 118 41 163t67 72t89 27q63 0 180 -54q89 -41 131 -41q75 0 97 92h132q-7 -99 -33 -151q-54 -111 -160 -111q-71 0 -194 57q-82 38 -122 38q-39 0 -61 -21t-35 -71z
M876 1605l-182 -161l-174 79l281 284h150l281 -284l-174 -79z" />
    <glyph glyph-name="uni1ED7" unicode="&#x1ed7;" horiz-adv-x="1249" 
d="M625 931q253 0 403 -124q149 -124 149 -353t-149 -354q-149 -124 -401 -124q-256 0 -404 124q-150 125 -150 361q0 222 150 346q149 124 402 124zM626 729q-152 0 -236 -79q-76 -71 -76 -193q0 -129 76 -200q84 -79 237 -79q152 0 234 79q76 73 76 196q0 126 -76 197
q-84 79 -235 79zM389 1408h-133q17 119 41 163q24 45 67 72t89 27q63 0 180 -54q89 -41 131 -41q75 0 97 92h132q-7 -99 -32 -151q-55 -111 -161 -111q-71 0 -194 57q-82 38 -121 38t-61 -21t-35 -71zM623 1180l-181 -168l-173 78l280 283h149l280 -283l-173 -78z" />
    <glyph glyph-name="uni1ED8" unicode="&#x1ed8;" horiz-adv-x="1755" 
d="M878 1390q383 0 600 -217q188 -189 188 -490q0 -302 -188 -491q-120 -121 -297 -174q-146 -43 -301 -43q-388 0 -603 217q-188 190 -188 500q0 182 79 333q107 205 340 299q165 66 370 66zM878 1173q-261 0 -408 -151q-123 -126 -123 -333q0 -220 123 -346
q146 -151 410 -151q259 0 405 151q123 126 123 340q0 213 -123 339q-146 151 -407 151zM878 1630l-182 -161l-174 79l281 284h150l280 -284l-174 -79zM879 -93q60 0 101.5 -40.5t41.5 -98.5q0 -59 -41.5 -99.5t-102.5 -40.5t-102.5 41t-41.5 100q0 57 42.5 97.5t102.5 40.5z
" />
    <glyph glyph-name="uni1ED9" unicode="&#x1ed9;" horiz-adv-x="1249" 
d="M625 931q253 0 403 -124q149 -124 149 -353t-149 -354q-149 -124 -401 -124q-256 0 -404 124q-150 125 -150 361q0 222 150 346q149 124 402 124zM626 729q-152 0 -236 -79q-76 -71 -76 -193q0 -129 76 -200q84 -79 237 -79q152 0 234 79q76 73 76 196q0 126 -76 197
q-84 79 -235 79zM625 1194l-182 -169l-172 79l279 283h149l280 -283l-172 -79zM625 -93q61 0 102.5 -40.5t41.5 -99.5q0 -58 -42 -98.5t-102 -40.5q-61 0 -102.5 41t-41.5 100q0 57 42 97.5t102 40.5z" />
    <glyph glyph-name="uni1EDA" unicode="&#x1eda;" horiz-adv-x="1780" 
d="M1590 1014q76 -139 76 -331q0 -302 -188 -491q-216 -217 -601 -217t-600 217q-188 190 -188 491q0 300 188 490q119 120 297 174q143 43 298 43q360 0 597 -212q72 44 93.5 69t21.5 64q0 74 -111 159l155 107q67 -46 94 -79q68 -82 68 -192q0 -87 -44.5 -152t-155.5 -140
zM878 1173q-261 0 -408 -151q-123 -126 -123 -333q0 -220 123 -346q146 -151 410 -151q259 0 405 151q123 126 123 340q0 213 -123 339q-146 151 -407 151zM1180 1758l-313 -289l-154 80l249 316z" />
    </font>
</defs>
</svg>
