<svg width="1920" height="19369" viewBox="0 0 1920 19369" fill="none" xmlns="http://www.w3.org/2000/svg">
<g filter="url(#filter0_f_171_1010)">
<path d="M533.54 19773.1C634.39 19901.5 992.679 19846.8 1057.39 19846.1L2263.78 19568L3013.59 18573.3C2325.98 18503.2 801.786 17286.4 393.353 17218.5C-159.796 17126.6 -783.657 17653.4 -731.904 18160.9C-682.634 18644 -406.358 18535.3 -425.601 18683.9C-466.635 19000.9 402.951 19606.7 533.54 19773.1Z" fill="#2E88FC"/>
<path d="M533.54 19773.1C634.39 19901.5 992.679 19846.8 1057.39 19846.1L2263.78 19568L3013.59 18573.3C2325.98 18503.2 801.786 17286.4 393.353 17218.5C-159.796 17126.6 -783.657 17653.4 -731.904 18160.9C-682.634 18644 -406.358 18535.3 -425.601 18683.9C-466.635 19000.9 402.951 19606.7 533.54 19773.1Z" fill="url(#paint0_linear_171_1010)"/>
<path d="M533.54 19773.1C634.39 19901.5 992.679 19846.8 1057.39 19846.1L2263.78 19568L3013.59 18573.3C2325.98 18503.2 801.786 17286.4 393.353 17218.5C-159.796 17126.6 -783.657 17653.4 -731.904 18160.9C-682.634 18644 -406.358 18535.3 -425.601 18683.9C-466.635 19000.9 402.951 19606.7 533.54 19773.1Z" fill="url(#paint1_linear_171_1010)" fill-opacity="0.25"/>
<path d="M533.54 19773.1C634.39 19901.5 992.679 19846.8 1057.39 19846.1L2263.78 19568L3013.59 18573.3C2325.98 18503.2 801.786 17286.4 393.353 17218.5C-159.796 17126.6 -783.657 17653.4 -731.904 18160.9C-682.634 18644 -406.358 18535.3 -425.601 18683.9C-466.635 19000.9 402.951 19606.7 533.54 19773.1Z" fill="url(#paint2_linear_171_1010)"/>
<path d="M533.54 19773.1C634.39 19901.5 992.679 19846.8 1057.39 19846.1L2263.78 19568L3013.59 18573.3C2325.98 18503.2 801.786 17286.4 393.353 17218.5C-159.796 17126.6 -783.657 17653.4 -731.904 18160.9C-682.634 18644 -406.358 18535.3 -425.601 18683.9C-466.635 19000.9 402.951 19606.7 533.54 19773.1Z" fill="url(#paint3_linear_171_1010)" fill-opacity="0.75"/>
<path d="M533.54 19773.1C634.39 19901.5 992.679 19846.8 1057.39 19846.1L2263.78 19568L3013.59 18573.3C2325.98 18503.2 801.786 17286.4 393.353 17218.5C-159.796 17126.6 -783.657 17653.4 -731.904 18160.9C-682.634 18644 -406.358 18535.3 -425.601 18683.9C-466.635 19000.9 402.951 19606.7 533.54 19773.1Z" fill="url(#paint4_linear_171_1010)" fill-opacity="0.8"/>
<path d="M533.54 19773.1C634.39 19901.5 992.679 19846.8 1057.39 19846.1L2263.78 19568L3013.59 18573.3C2325.98 18503.2 801.786 17286.4 393.353 17218.5C-159.796 17126.6 -783.657 17653.4 -731.904 18160.9C-682.634 18644 -406.358 18535.3 -425.601 18683.9C-466.635 19000.9 402.951 19606.7 533.54 19773.1Z" fill="url(#paint5_radial_171_1010)" fill-opacity="0.5"/>
</g>
<g filter="url(#filter1_f_171_1010)">
<path d="M629.54 12425.9C730.39 12297.4 1088.68 12352.1 1153.39 12352.9L2359.78 12631L3109.59 13625.7C2421.98 13695.8 897.786 14912.5 489.353 14980.4C-63.7958 15072.4 -687.657 14545.5 -635.904 14038.1C-586.634 13555 -310.358 13663.6 -329.601 13515C-370.635 13198.1 498.951 12592.3 629.54 12425.9Z" fill="#2E88FC"/>
<path d="M629.54 12425.9C730.39 12297.4 1088.68 12352.1 1153.39 12352.9L2359.78 12631L3109.59 13625.7C2421.98 13695.8 897.786 14912.5 489.353 14980.4C-63.7958 15072.4 -687.657 14545.5 -635.904 14038.1C-586.634 13555 -310.358 13663.6 -329.601 13515C-370.635 13198.1 498.951 12592.3 629.54 12425.9Z" fill="url(#paint6_linear_171_1010)"/>
<path d="M629.54 12425.9C730.39 12297.4 1088.68 12352.1 1153.39 12352.9L2359.78 12631L3109.59 13625.7C2421.98 13695.8 897.786 14912.5 489.353 14980.4C-63.7958 15072.4 -687.657 14545.5 -635.904 14038.1C-586.634 13555 -310.358 13663.6 -329.601 13515C-370.635 13198.1 498.951 12592.3 629.54 12425.9Z" fill="url(#paint7_linear_171_1010)" fill-opacity="0.25"/>
<path d="M629.54 12425.9C730.39 12297.4 1088.68 12352.1 1153.39 12352.9L2359.78 12631L3109.59 13625.7C2421.98 13695.8 897.786 14912.5 489.353 14980.4C-63.7958 15072.4 -687.657 14545.5 -635.904 14038.1C-586.634 13555 -310.358 13663.6 -329.601 13515C-370.635 13198.1 498.951 12592.3 629.54 12425.9Z" fill="url(#paint8_linear_171_1010)"/>
<path d="M629.54 12425.9C730.39 12297.4 1088.68 12352.1 1153.39 12352.9L2359.78 12631L3109.59 13625.7C2421.98 13695.8 897.786 14912.5 489.353 14980.4C-63.7958 15072.4 -687.657 14545.5 -635.904 14038.1C-586.634 13555 -310.358 13663.6 -329.601 13515C-370.635 13198.1 498.951 12592.3 629.54 12425.9Z" fill="url(#paint9_linear_171_1010)" fill-opacity="0.75"/>
<path d="M629.54 12425.9C730.39 12297.4 1088.68 12352.1 1153.39 12352.9L2359.78 12631L3109.59 13625.7C2421.98 13695.8 897.786 14912.5 489.353 14980.4C-63.7958 15072.4 -687.657 14545.5 -635.904 14038.1C-586.634 13555 -310.358 13663.6 -329.601 13515C-370.635 13198.1 498.951 12592.3 629.54 12425.9Z" fill="url(#paint10_radial_171_1010)" fill-opacity="0.5"/>
</g>
<g filter="url(#filter2_f_171_1010)">
<path d="M1317.03 8093.02C1215.96 8221.33 857.763 8165.99 793.056 8165.14L-412.863 7885.02L-1161 6889.04C-473.269 6820.1 1052.97 5605.93 1461.52 5538.72C2014.82 5447.7 2637.79 5975.63 2585.18 6482.98C2535.1 6965.99 2259.01 6856.85 2278 7005.5C2318.5 7322.5 1447.89 7926.87 1317.03 8093.02Z" fill="#2E88FC"/>
<path d="M1317.03 8093.02C1215.96 8221.33 857.763 8165.99 793.056 8165.14L-412.863 7885.02L-1161 6889.04C-473.269 6820.1 1052.97 5605.93 1461.52 5538.72C2014.82 5447.7 2637.79 5975.63 2585.18 6482.98C2535.1 6965.99 2259.01 6856.85 2278 7005.5C2318.5 7322.5 1447.89 7926.87 1317.03 8093.02Z" fill="url(#paint11_linear_171_1010)"/>
<path d="M1317.03 8093.02C1215.96 8221.33 857.763 8165.99 793.056 8165.14L-412.863 7885.02L-1161 6889.04C-473.269 6820.1 1052.97 5605.93 1461.52 5538.72C2014.82 5447.7 2637.79 5975.63 2585.18 6482.98C2535.1 6965.99 2259.01 6856.85 2278 7005.5C2318.5 7322.5 1447.89 7926.87 1317.03 8093.02Z" fill="url(#paint12_linear_171_1010)" fill-opacity="0.5"/>
<path d="M1317.03 8093.02C1215.96 8221.33 857.763 8165.99 793.056 8165.14L-412.863 7885.02L-1161 6889.04C-473.269 6820.1 1052.97 5605.93 1461.52 5538.72C2014.82 5447.7 2637.79 5975.63 2585.18 6482.98C2535.1 6965.99 2259.01 6856.85 2278 7005.5C2318.5 7322.5 1447.89 7926.87 1317.03 8093.02Z" fill="url(#paint13_linear_171_1010)"/>
<path d="M1317.03 8093.02C1215.96 8221.33 857.763 8165.99 793.056 8165.14L-412.863 7885.02L-1161 6889.04C-473.269 6820.1 1052.97 5605.93 1461.52 5538.72C2014.82 5447.7 2637.79 5975.63 2585.18 6482.98C2535.1 6965.99 2259.01 6856.85 2278 7005.5C2318.5 7322.5 1447.89 7926.87 1317.03 8093.02Z" fill="url(#paint14_linear_171_1010)" fill-opacity="0.8"/>
<path d="M1317.03 8093.02C1215.96 8221.33 857.763 8165.99 793.056 8165.14L-412.863 7885.02L-1161 6889.04C-473.269 6820.1 1052.97 5605.93 1461.52 5538.72C2014.82 5447.7 2637.79 5975.63 2585.18 6482.98C2535.1 6965.99 2259.01 6856.85 2278 7005.5C2318.5 7322.5 1447.89 7926.87 1317.03 8093.02Z" fill="url(#paint15_linear_171_1010)"/>
<path d="M1317.03 8093.02C1215.96 8221.33 857.763 8165.99 793.056 8165.14L-412.863 7885.02L-1161 6889.04C-473.269 6820.1 1052.97 5605.93 1461.52 5538.72C2014.82 5447.7 2637.79 5975.63 2585.18 6482.98C2535.1 6965.99 2259.01 6856.85 2278 7005.5C2318.5 7322.5 1447.89 7926.87 1317.03 8093.02Z" fill="url(#paint16_linear_171_1010)" fill-opacity="0.5"/>
<path d="M1317.03 8093.02C1215.96 8221.33 857.763 8165.99 793.056 8165.14L-412.863 7885.02L-1161 6889.04C-473.269 6820.1 1052.97 5605.93 1461.52 5538.72C2014.82 5447.7 2637.79 5975.63 2585.18 6482.98C2535.1 6965.99 2259.01 6856.85 2278 7005.5C2318.5 7322.5 1447.89 7926.87 1317.03 8093.02Z" fill="url(#paint17_radial_171_1010)" fill-opacity="0.5"/>
</g>
<g filter="url(#filter3_f_171_1010)">
<path d="M629.54 9758.88C730.39 9630.4 1088.68 9685.14 1153.39 9685.88L2359.78 9963.96L3109.59 10958.7C2421.98 11028.8 897.786 12245.5 489.353 12313.4C-63.7958 12405.4 -687.657 11878.5 -635.904 11371.1C-586.634 10888 -310.358 10996.6 -329.601 10848C-370.635 10531.1 498.951 9925.25 629.54 9758.88Z" fill="#2E88FC"/>
<path d="M629.54 9758.88C730.39 9630.4 1088.68 9685.14 1153.39 9685.88L2359.78 9963.96L3109.59 10958.7C2421.98 11028.8 897.786 12245.5 489.353 12313.4C-63.7958 12405.4 -687.657 11878.5 -635.904 11371.1C-586.634 10888 -310.358 10996.6 -329.601 10848C-370.635 10531.1 498.951 9925.25 629.54 9758.88Z" fill="url(#paint18_linear_171_1010)"/>
<path d="M629.54 9758.88C730.39 9630.4 1088.68 9685.14 1153.39 9685.88L2359.78 9963.96L3109.59 10958.7C2421.98 11028.8 897.786 12245.5 489.353 12313.4C-63.7958 12405.4 -687.657 11878.5 -635.904 11371.1C-586.634 10888 -310.358 10996.6 -329.601 10848C-370.635 10531.1 498.951 9925.25 629.54 9758.88Z" fill="url(#paint19_linear_171_1010)"/>
<path d="M629.54 9758.88C730.39 9630.4 1088.68 9685.14 1153.39 9685.88L2359.78 9963.96L3109.59 10958.7C2421.98 11028.8 897.786 12245.5 489.353 12313.4C-63.7958 12405.4 -687.657 11878.5 -635.904 11371.1C-586.634 10888 -310.358 10996.6 -329.601 10848C-370.635 10531.1 498.951 9925.25 629.54 9758.88Z" fill="url(#paint20_linear_171_1010)" fill-opacity="0.25"/>
<path d="M629.54 9758.88C730.39 9630.4 1088.68 9685.14 1153.39 9685.88L2359.78 9963.96L3109.59 10958.7C2421.98 11028.8 897.786 12245.5 489.353 12313.4C-63.7958 12405.4 -687.657 11878.5 -635.904 11371.1C-586.634 10888 -310.358 10996.6 -329.601 10848C-370.635 10531.1 498.951 9925.25 629.54 9758.88Z" fill="url(#paint21_linear_171_1010)" fill-opacity="0.5"/>
</g>
<rect x="-291.211" y="-395" width="2262" height="2467" fill="url(#paint22_linear_171_1010)"/>
<rect x="-291.211" y="-395" width="2262" height="2467" fill="url(#paint23_linear_171_1010)" fill-opacity="0.3"/>
<g filter="url(#filter4_f_171_1010)">
<path d="M1040.33 1104.85C1252.98 1103 983.777 772.46 1132.74 742.477C1281.7 712.495 1120.8 436.162 1585.4 380.012C1841.9 349.012 2056.14 362.518 2073 544.5C2289.6 894.872 2113.24 1516.36 1806.45 1772.02C1488.91 2036.63 292.052 1802.16 -220.735 2261.19L-233.528 2272.92C-229.312 2268.96 -225.048 2265.05 -220.735 2261.19L1040.33 1104.85Z" fill="#ED5F5C"/>
<path d="M1040.33 1104.85C1252.98 1103 983.777 772.46 1132.74 742.477C1281.7 712.495 1120.8 436.162 1585.4 380.012C1841.9 349.012 2056.14 362.518 2073 544.5C2289.6 894.872 2113.24 1516.36 1806.45 1772.02C1488.91 2036.63 292.052 1802.16 -220.735 2261.19L-233.528 2272.92C-229.312 2268.96 -225.048 2265.05 -220.735 2261.19L1040.33 1104.85Z" fill="url(#paint24_linear_171_1010)"/>
<path d="M1040.33 1104.85C1252.98 1103 983.777 772.46 1132.74 742.477C1281.7 712.495 1120.8 436.162 1585.4 380.012C1841.9 349.012 2056.14 362.518 2073 544.5C2289.6 894.872 2113.24 1516.36 1806.45 1772.02C1488.91 2036.63 292.052 1802.16 -220.735 2261.19L-233.528 2272.92C-229.312 2268.96 -225.048 2265.05 -220.735 2261.19L1040.33 1104.85Z" fill="url(#paint25_linear_171_1010)"/>
<path d="M1040.33 1104.85C1252.98 1103 983.777 772.46 1132.74 742.477C1281.7 712.495 1120.8 436.162 1585.4 380.012C1841.9 349.012 2056.14 362.518 2073 544.5C2289.6 894.872 2113.24 1516.36 1806.45 1772.02C1488.91 2036.63 292.052 1802.16 -220.735 2261.19L-233.528 2272.92C-229.312 2268.96 -225.048 2265.05 -220.735 2261.19L1040.33 1104.85Z" fill="url(#paint26_linear_171_1010)"/>
</g>
<g filter="url(#filter5_f_171_1010)">
<path d="M-121.733 968.42C-284.874 960.454 -478.221 1267.02 -520.046 1316.4L-1100.21 2410.07L-839.805 3628.22C-336.403 3154.6 1581.37 2800.02 1900.23 2535.9C2332.06 2178.19 2342.63 1361.68 1925.33 1068.37C1528.04 789.142 583.768 1195.9 435.707 1219.06C287.645 1242.22 89.5158 978.735 -121.733 968.42Z" fill="#2E88FC"/>
<path d="M-121.733 968.42C-284.874 960.454 -478.221 1267.02 -520.046 1316.4L-1100.21 2410.07L-839.805 3628.22C-336.403 3154.6 1581.37 2800.02 1900.23 2535.9C2332.06 2178.19 2342.63 1361.68 1925.33 1068.37C1528.04 789.142 583.768 1195.9 435.707 1219.06C287.645 1242.22 89.5158 978.735 -121.733 968.42Z" fill="white" fill-opacity="0.2"/>
<path d="M-121.733 968.42C-284.874 960.454 -478.221 1267.02 -520.046 1316.4L-1100.21 2410.07L-839.805 3628.22C-336.403 3154.6 1581.37 2800.02 1900.23 2535.9C2332.06 2178.19 2342.63 1361.68 1925.33 1068.37C1528.04 789.142 583.768 1195.9 435.707 1219.06C287.645 1242.22 89.5158 978.735 -121.733 968.42Z" fill="url(#paint27_linear_171_1010)"/>
<path d="M-121.733 968.42C-284.874 960.454 -478.221 1267.02 -520.046 1316.4L-1100.21 2410.07L-839.805 3628.22C-336.403 3154.6 1581.37 2800.02 1900.23 2535.9C2332.06 2178.19 2342.63 1361.68 1925.33 1068.37C1528.04 789.142 583.768 1195.9 435.707 1219.06C287.645 1242.22 89.5158 978.735 -121.733 968.42Z" fill="url(#paint28_linear_171_1010)" fill-opacity="0.8"/>
<path d="M-121.733 968.42C-284.874 960.454 -478.221 1267.02 -520.046 1316.4L-1100.21 2410.07L-839.805 3628.22C-336.403 3154.6 1581.37 2800.02 1900.23 2535.9C2332.06 2178.19 2342.63 1361.68 1925.33 1068.37C1528.04 789.142 583.768 1195.9 435.707 1219.06C287.645 1242.22 89.5158 978.735 -121.733 968.42Z" fill="url(#paint29_linear_171_1010)"/>
<path d="M-121.733 968.42C-284.874 960.454 -478.221 1267.02 -520.046 1316.4L-1100.21 2410.07L-839.805 3628.22C-336.403 3154.6 1581.37 2800.02 1900.23 2535.9C2332.06 2178.19 2342.63 1361.68 1925.33 1068.37C1528.04 789.142 583.768 1195.9 435.707 1219.06C287.645 1242.22 89.5158 978.735 -121.733 968.42Z" fill="url(#paint30_linear_171_1010)" fill-opacity="0.3"/>
<path d="M-121.733 968.42C-284.874 960.454 -478.221 1267.02 -520.046 1316.4L-1100.21 2410.07L-839.805 3628.22C-336.403 3154.6 1581.37 2800.02 1900.23 2535.9C2332.06 2178.19 2342.63 1361.68 1925.33 1068.37C1528.04 789.142 583.768 1195.9 435.707 1219.06C287.645 1242.22 89.5158 978.735 -121.733 968.42Z" fill="url(#paint31_linear_171_1010)"/>
<path d="M-121.733 968.42C-284.874 960.454 -478.221 1267.02 -520.046 1316.4L-1100.21 2410.07L-839.805 3628.22C-336.403 3154.6 1581.37 2800.02 1900.23 2535.9C2332.06 2178.19 2342.63 1361.68 1925.33 1068.37C1528.04 789.142 583.768 1195.9 435.707 1219.06C287.645 1242.22 89.5158 978.735 -121.733 968.42Z" fill="url(#paint32_linear_171_1010)" fill-opacity="0.5"/>
<path d="M-121.733 968.42C-284.874 960.454 -478.221 1267.02 -520.046 1316.4L-1100.21 2410.07L-839.805 3628.22C-336.403 3154.6 1581.37 2800.02 1900.23 2535.9C2332.06 2178.19 2342.63 1361.68 1925.33 1068.37C1528.04 789.142 583.768 1195.9 435.707 1219.06C287.645 1242.22 89.5158 978.735 -121.733 968.42Z" fill="url(#paint33_radial_171_1010)" fill-opacity="0.5"/>
</g>
<rect x="1920" y="9685" width="1920" height="2072" transform="rotate(-180 1920 9685)" fill="url(#paint34_linear_171_1010)" fill-opacity="0.5"/>
<defs>
<filter id="filter0_f_171_1010" x="-947.921" y="16995" width="4174.51" height="3076.28" filterUnits="userSpaceOnUse" color-interpolation-filters="sRGB">
<feFlood flood-opacity="0" result="BackgroundImageFix"/>
<feBlend mode="normal" in="SourceGraphic" in2="BackgroundImageFix" result="shape"/>
<feGaussianBlur stdDeviation="106.5" result="effect1_foregroundBlur_171_1010"/>
</filter>
<filter id="filter1_f_171_1010" x="-851.921" y="12127.7" width="4174.51" height="3076.28" filterUnits="userSpaceOnUse" color-interpolation-filters="sRGB">
<feFlood flood-opacity="0" result="BackgroundImageFix"/>
<feBlend mode="normal" in="SourceGraphic" in2="BackgroundImageFix" result="shape"/>
<feGaussianBlur stdDeviation="106.5" result="effect1_foregroundBlur_171_1010"/>
</filter>
<filter id="filter2_f_171_1010" x="-1374" y="5315.41" width="4175.3" height="3075.32" filterUnits="userSpaceOnUse" color-interpolation-filters="sRGB">
<feFlood flood-opacity="0" result="BackgroundImageFix"/>
<feBlend mode="normal" in="SourceGraphic" in2="BackgroundImageFix" result="shape"/>
<feGaussianBlur stdDeviation="106.5" result="effect1_foregroundBlur_171_1010"/>
</filter>
<filter id="filter3_f_171_1010" x="-851.921" y="9460.67" width="4174.51" height="3076.28" filterUnits="userSpaceOnUse" color-interpolation-filters="sRGB">
<feFlood flood-opacity="0" result="BackgroundImageFix"/>
<feBlend mode="normal" in="SourceGraphic" in2="BackgroundImageFix" result="shape"/>
<feGaussianBlur stdDeviation="106.5" result="effect1_foregroundBlur_171_1010"/>
</filter>
<filter id="filter4_f_171_1010" x="-433.528" y="167.034" width="2802.5" height="2305.89" filterUnits="userSpaceOnUse" color-interpolation-filters="sRGB">
<feFlood flood-opacity="0" result="BackgroundImageFix"/>
<feBlend mode="normal" in="SourceGraphic" in2="BackgroundImageFix" result="shape"/>
<feGaussianBlur stdDeviation="100" result="effect1_foregroundBlur_171_1010"/>
</filter>
<filter id="filter5_f_171_1010" x="-1300.21" y="768.268" width="3731.55" height="3059.95" filterUnits="userSpaceOnUse" color-interpolation-filters="sRGB">
<feFlood flood-opacity="0" result="BackgroundImageFix"/>
<feBlend mode="normal" in="SourceGraphic" in2="BackgroundImageFix" result="shape"/>
<feGaussianBlur stdDeviation="100" result="effect1_foregroundBlur_171_1010"/>
</filter>
<linearGradient id="paint0_linear_171_1010" x1="-676.207" y1="18566.9" x2="248.368" y2="18535.2" gradientUnits="userSpaceOnUse">
<stop stop-color="#FFEADE"/>
<stop offset="1" stop-color="#D65007" stop-opacity="0"/>
</linearGradient>
<linearGradient id="paint1_linear_171_1010" x1="-61.8729" y1="19142.5" x2="494.804" y2="18125.7" gradientUnits="userSpaceOnUse">
<stop stop-color="#F9914E"/>
<stop offset="1" stop-color="#F67C2D" stop-opacity="0"/>
</linearGradient>
<linearGradient id="paint2_linear_171_1010" x1="-225.331" y1="18838.3" x2="722.669" y2="18270.3" gradientUnits="userSpaceOnUse">
<stop stop-color="#CDE3F5"/>
<stop offset="1" stop-color="#CDE3F5" stop-opacity="0"/>
</linearGradient>
<linearGradient id="paint3_linear_171_1010" x1="1154" y1="19846.5" x2="190.344" y2="19086.9" gradientUnits="userSpaceOnUse">
<stop stop-color="#ED5F5C"/>
<stop offset="1" stop-color="#ED5F5C" stop-opacity="0"/>
</linearGradient>
<linearGradient id="paint4_linear_171_1010" x1="254.5" y1="17373" x2="772" y2="18290" gradientUnits="userSpaceOnUse">
<stop offset="0.121877" stop-color="white"/>
<stop offset="1" stop-color="white" stop-opacity="0"/>
</linearGradient>
<radialGradient id="paint5_radial_171_1010" cx="0" cy="0" r="1" gradientUnits="userSpaceOnUse" gradientTransform="translate(1459.09 19100) rotate(-112.291) scale(512.974 806.838)">
<stop stop-color="white"/>
<stop offset="1" stop-color="white" stop-opacity="0"/>
</radialGradient>
<linearGradient id="paint6_linear_171_1010" x1="-580.207" y1="13632" x2="344.368" y2="13663.7" gradientUnits="userSpaceOnUse">
<stop stop-color="#FFEADE"/>
<stop offset="1" stop-color="#D65007" stop-opacity="0"/>
</linearGradient>
<linearGradient id="paint7_linear_171_1010" x1="34.1271" y1="13056.4" x2="590.804" y2="14073.3" gradientUnits="userSpaceOnUse">
<stop stop-color="#F9914E"/>
<stop offset="1" stop-color="#F67C2D" stop-opacity="0"/>
</linearGradient>
<linearGradient id="paint8_linear_171_1010" x1="16.0001" y1="13274.5" x2="1925" y2="13875.5" gradientUnits="userSpaceOnUse">
<stop stop-color="#CDE3F5"/>
<stop offset="1" stop-color="#CDE3F5" stop-opacity="0"/>
</linearGradient>
<linearGradient id="paint9_linear_171_1010" x1="1497.5" y1="12233" x2="1114.33" y2="13213.7" gradientUnits="userSpaceOnUse">
<stop stop-color="#ED5F5C"/>
<stop offset="1" stop-color="#ED5F5C" stop-opacity="0"/>
</linearGradient>
<radialGradient id="paint10_radial_171_1010" cx="0" cy="0" r="1" gradientUnits="userSpaceOnUse" gradientTransform="translate(1555.09 13099) rotate(112.291) scale(512.974 806.838)">
<stop stop-color="white"/>
<stop offset="1" stop-color="white" stop-opacity="0"/>
</radialGradient>
<linearGradient id="paint11_linear_171_1010" x1="2528.8" y1="6888.93" x2="1604.28" y2="6855.64" gradientUnits="userSpaceOnUse">
<stop stop-color="#FFEADE"/>
<stop offset="1" stop-color="#D65007" stop-opacity="0"/>
</linearGradient>
<linearGradient id="paint12_linear_171_1010" x1="1913.5" y1="7463.5" x2="1358.54" y2="6445.69" gradientUnits="userSpaceOnUse">
<stop stop-color="#F9914E"/>
<stop offset="1" stop-color="#F67C2D" stop-opacity="0"/>
</linearGradient>
<linearGradient id="paint13_linear_171_1010" x1="26.5" y1="6949" x2="657.564" y2="6275.14" gradientUnits="userSpaceOnUse">
<stop stop-color="#CBE5FA"/>
<stop offset="1" stop-color="#CDE3F5" stop-opacity="0"/>
</linearGradient>
<linearGradient id="paint14_linear_171_1010" x1="1907.5" y1="7660.5" x2="1462" y2="6782.5" gradientUnits="userSpaceOnUse">
<stop stop-color="#CDE3F5"/>
<stop offset="1" stop-color="#CDE3F5" stop-opacity="0"/>
</linearGradient>
<linearGradient id="paint15_linear_171_1010" x1="1191.15" y1="8253.59" x2="1321.17" y2="7264.91" gradientUnits="userSpaceOnUse">
<stop stop-color="#ED5F5C"/>
<stop offset="1" stop-color="#ED5F5C" stop-opacity="0"/>
</linearGradient>
<linearGradient id="paint16_linear_171_1010" x1="279.569" y1="7958.08" x2="638.528" y2="6838.58" gradientUnits="userSpaceOnUse">
<stop stop-color="white"/>
<stop offset="1" stop-color="#F67C2D" stop-opacity="0"/>
</linearGradient>
<radialGradient id="paint17_radial_171_1010" cx="0" cy="0" r="1" gradientUnits="userSpaceOnUse" gradientTransform="translate(392.606 7418.36) rotate(-67.612) scale(512.974 806.838)">
<stop stop-color="white"/>
<stop offset="1" stop-color="white" stop-opacity="0"/>
</radialGradient>
<linearGradient id="paint18_linear_171_1010" x1="-518.832" y1="12275.6" x2="362.873" y2="10698.5" gradientUnits="userSpaceOnUse">
<stop stop-color="white"/>
<stop offset="1" stop-color="white" stop-opacity="0"/>
</linearGradient>
<linearGradient id="paint19_linear_171_1010" x1="-129.331" y1="10693.6" x2="818.669" y2="11261.6" gradientUnits="userSpaceOnUse">
<stop stop-color="#CDE3F5"/>
<stop offset="1" stop-color="#CDE3F5" stop-opacity="0"/>
</linearGradient>
<linearGradient id="paint20_linear_171_1010" x1="1667.22" y1="9892.07" x2="1310.15" y2="11012.2" gradientUnits="userSpaceOnUse">
<stop stop-color="white"/>
<stop offset="1" stop-color="#F67C2D" stop-opacity="0"/>
</linearGradient>
<linearGradient id="paint21_linear_171_1010" x1="12.5001" y1="10596" x2="1285" y2="10650" gradientUnits="userSpaceOnUse">
<stop stop-color="white"/>
<stop offset="0.833033" stop-color="white" stop-opacity="0"/>
</linearGradient>
<linearGradient id="paint22_linear_171_1010" x1="-291.211" y1="-234.298" x2="2092.29" y2="-101.035" gradientUnits="userSpaceOnUse">
<stop stop-color="#CDE3F5"/>
<stop offset="1" stop-color="#C1CFE4"/>
</linearGradient>
<linearGradient id="paint23_linear_171_1010" x1="936.498" y1="-262.585" x2="933.413" y2="277.728" gradientUnits="userSpaceOnUse">
<stop stop-color="#5A6877"/>
<stop offset="1" stop-color="#5A6877" stop-opacity="0"/>
</linearGradient>
<linearGradient id="paint24_linear_171_1010" x1="1776.4" y1="426.012" x2="951.405" y2="1080.5" gradientUnits="userSpaceOnUse">
<stop stop-color="#FFEADE"/>
<stop offset="1" stop-color="#D65007" stop-opacity="0"/>
</linearGradient>
<linearGradient id="paint25_linear_171_1010" x1="21.8173" y1="1375.41" x2="742.371" y2="1758.1" gradientUnits="userSpaceOnUse">
<stop stop-color="#F9914E"/>
<stop offset="1" stop-color="#F67C2D" stop-opacity="0"/>
</linearGradient>
<linearGradient id="paint26_linear_171_1010" x1="-266.403" y1="1730.15" x2="412.262" y2="1823.87" gradientUnits="userSpaceOnUse">
<stop stop-color="#CBE5FA"/>
<stop offset="1" stop-color="#CDE3F5" stop-opacity="0"/>
</linearGradient>
<linearGradient id="paint27_linear_171_1010" x1="1582.05" y1="844.472" x2="1000.36" y2="1563.83" gradientUnits="userSpaceOnUse">
<stop stop-color="#FFEADE"/>
<stop offset="1" stop-color="#D65007" stop-opacity="0"/>
</linearGradient>
<linearGradient id="paint28_linear_171_1010" x1="136.388" y1="1853.11" x2="882.92" y2="2238.19" gradientUnits="userSpaceOnUse">
<stop stop-color="#F9914E"/>
<stop offset="1" stop-color="#F67C2D" stop-opacity="0"/>
</linearGradient>
<linearGradient id="paint29_linear_171_1010" x1="-275.441" y1="2045.36" x2="546.632" y2="2286.5" gradientUnits="userSpaceOnUse">
<stop stop-color="#CBE5FA"/>
<stop offset="1" stop-color="#CDE3F5" stop-opacity="0"/>
</linearGradient>
<linearGradient id="paint30_linear_171_1010" x1="690.842" y1="1160.94" x2="780.079" y2="1650.37" gradientUnits="userSpaceOnUse">
<stop stop-color="#CDE3F5"/>
<stop offset="1" stop-color="#CDE3F5" stop-opacity="0"/>
</linearGradient>
<linearGradient id="paint31_linear_171_1010" x1="-172.5" y1="1172.5" x2="480.691" y2="1532.18" gradientUnits="userSpaceOnUse">
<stop stop-color="#ED5F5C"/>
<stop offset="1" stop-color="#ED5F5C" stop-opacity="0"/>
</linearGradient>
<linearGradient id="paint32_linear_171_1010" x1="-700.854" y1="1839.71" x2="379.372" y2="2303.66" gradientUnits="userSpaceOnUse">
<stop stop-color="white"/>
<stop offset="1" stop-color="#F67C2D" stop-opacity="0"/>
</linearGradient>
<radialGradient id="paint33_radial_171_1010" cx="0" cy="0" r="1" gradientUnits="userSpaceOnUse" gradientTransform="translate(-219.461 2108.67) rotate(18.6334) scale(512.974 806.838)">
<stop stop-color="white"/>
<stop offset="1" stop-color="white" stop-opacity="0"/>
</radialGradient>
<linearGradient id="paint34_linear_171_1010" x1="2880" y1="9685" x2="2880" y2="11757" gradientUnits="userSpaceOnUse">
<stop stop-color="#CDE3F5" stop-opacity="0"/>
<stop offset="0.511762" stop-color="#CDE3F5"/>
<stop offset="1" stop-color="#CDE3F5" stop-opacity="0"/>
</linearGradient>
</defs>
</svg>
