<svg width="25" height="25" viewBox="0 0 25 25" fill="none" xmlns="http://www.w3.org/2000/svg">
<path d="M12.1035 2.63794C6.59352 2.63794 2.10352 7.12794 2.10352 12.6379C2.10352 18.1479 6.59352 22.6379 12.1035 22.6379C17.6135 22.6379 22.1035 18.1479 22.1035 12.6379C22.1035 7.12794 17.6135 2.63794 12.1035 2.63794ZM16.4535 16.2079C16.3135 16.4479 16.0635 16.5779 15.8035 16.5779C15.6735 16.5779 15.5435 16.5479 15.4235 16.4679L12.3235 14.6179C11.5535 14.1579 10.9835 13.1479 10.9835 12.2579V8.15794C10.9835 7.74794 11.3235 7.40794 11.7335 7.40794C12.1435 7.40794 12.4835 7.74794 12.4835 8.15794V12.2579C12.4835 12.6179 12.7835 13.1479 13.0935 13.3279L16.1935 15.1779C16.5535 15.3879 16.6735 15.8479 16.4535 16.2079Z" fill="#434E58" fill-opacity="0.75"/>
</svg>
