<svg width="1584" height="695" viewBox="0 0 1584 695" fill="none" xmlns="http://www.w3.org/2000/svg">
<path fill-rule="evenodd" clip-rule="evenodd" d="M50 0C22.3858 0 0 22.3857 0 49.9999V644.743C0 672.358 22.3857 694.743 50 694.743H583.729C622.389 694.743 652.298 661.805 669.458 627.162C675.897 614.161 684.216 602.144 694.228 591.579C720.158 564.218 755.328 548.847 792 548.847C828.672 548.847 863.841 564.218 889.772 591.579C899.784 602.144 908.102 614.161 914.542 627.162C931.701 661.805 961.611 694.743 1000.27 694.743H1534C1561.61 694.743 1584 672.358 1584 644.743V50C1584 22.3858 1561.61 0 1534 0H50Z" fill="white"/>
</svg>
