<svg width="323" height="199" viewBox="0 0 323 199" fill="none" xmlns="http://www.w3.org/2000/svg">
<path fill-rule="evenodd" clip-rule="evenodd" d="M24 0C10.7452 0 0 10.7452 0 24V175C0 188.255 10.7452 199 24 199H101C112.046 199 120.605 189.541 125.782 179.783C127.675 176.216 130.101 172.916 133.009 170.009C140.698 162.32 151.126 158 162 158C172.874 158 183.302 162.32 190.991 170.009C193.899 172.916 196.325 176.216 198.218 179.783C203.395 189.541 211.954 199 223 199H299C312.255 199 323 188.255 323 175V24C323 10.7452 312.255 0 299 0H24Z" fill="white"/>
</svg>
