<svg width="12" height="14" viewBox="0 0 12 14" fill="none" xmlns="http://www.w3.org/2000/svg">
<path d="M2.324 14V0.291199H6.164C7.8664 0.291199 9.1208 0.636799 9.9272 1.328C10.7464 2.0192 11.156 3.0048 11.156 4.2848C11.156 5.1168 10.964 5.8464 10.58 6.4736C10.2088 7.1008 9.6328 7.5936 8.852 7.952C8.084 8.2976 7.0984 8.4704 5.8952 8.4704H4.3976V14H2.324ZM0.692 11.5616V10.1216H7.508V11.5616H0.692ZM0.692 8.4704V6.7424H5.4536V8.4704H0.692ZM5.6456 6.7424C6.3496 6.7424 6.9512 6.6656 7.4504 6.512C7.9624 6.3584 8.3528 6.1088 8.6216 5.7632C8.8904 5.4176 9.0248 4.944 9.0248 4.3424C9.0248 3.5616 8.7816 2.9792 8.2952 2.5952C7.8088 2.2112 7.0472 2.0192 6.0104 2.0192H4.3976V6.7424H5.6456Z" fill="#00589B"/>
</svg>
